<svg width="421" height="321" viewBox="0 0 421 321" fill="none" xmlns="http://www.w3.org/2000/svg">
    <path opacity="0.4"
        d="M383.571 283.453C384.996 282.615 386.421 281.945 388.013 281.526L388.935 277.168L396.31 277L397.4 281.358C398.909 281.777 400.417 282.364 401.842 283.118L405.613 280.688L410.893 285.8L408.547 289.571C409.385 290.996 410.055 292.421 410.474 294.013L414.832 294.935L415 302.31L410.642 303.4C410.223 304.909 409.636 306.417 408.882 307.842L411.312 311.613L406.2 316.893L402.345 314.547C400.92 315.385 399.495 316.055 397.903 316.474L396.981 320.832L389.606 321L388.6 316.642C387.091 316.223 385.583 315.636 384.158 314.882L380.387 317.312L375.107 312.2L377.453 308.345C376.615 306.92 375.945 305.495 375.526 303.903L371.168 302.981L371 295.69L375.358 294.6C375.777 293.091 376.364 291.583 377.118 290.158L374.688 286.387L379.8 281.107L383.571 283.453ZM387.51 293.259C384.493 296.444 384.577 301.389 387.678 304.49C390.863 307.507 395.808 307.423 398.909 304.322C401.926 301.137 401.842 296.192 398.741 293.091C395.556 289.99 390.528 290.074 387.51 293.259Z"
        fill="#1D262B" />
    <path d="M135.567 102.423H51.9976V45.25H135.567L135.567 102.423ZM52.6575 101.763H134.907V45.9099H52.6575V101.763Z"
        fill="#4E4D4D" />
    <path
        d="M58.532 48.9335C58.532 49.8521 57.787 50.5971 56.8684 50.5971C55.9499 50.5971 55.2048 49.8528 55.2048 48.9335C55.2048 48.015 55.9499 47.2699 56.8684 47.2699C57.787 47.2699 58.532 48.015 58.532 48.9335Z"
        fill="#4F4F4F" />
    <path
        d="M65.3239 48.9335C65.3239 49.8521 64.5795 50.5971 63.6603 50.5971C62.741 50.5971 61.9973 49.8528 61.9973 48.9335C61.9973 48.015 62.7417 47.2699 63.6603 47.2699C64.5788 47.2699 65.3239 48.015 65.3239 48.9335Z"
        fill="#4E4D4D" />
    <path
        d="M72.116 48.9335C72.116 49.8521 71.3717 50.5971 70.4524 50.5971C69.5338 50.5971 68.7888 49.8528 68.7888 48.9335C68.7888 48.015 69.5332 47.2699 70.4524 47.2699C71.371 47.2699 72.116 48.015 72.116 48.9335Z"
        fill="#00D29E" />
    <path d="M135.237 51.8615H52.3276V52.5214H135.237V51.8615Z" fill="#4E4D4D" />
    <path d="M381.25 238.963H380.59V155.93L398.229 131.856V86.8691H398.889V132.072L381.25 156.146V238.963Z"
        fill="#4E4D4D" />
    <path
        d="M398.559 87.2261C397.513 87.2261 396.662 86.3749 396.662 85.3289C396.662 84.283 397.513 83.4317 398.559 83.4317C399.605 83.4317 400.456 84.283 400.456 85.3289C400.456 86.3749 399.605 87.2261 398.559 87.2261ZM398.559 84.0916C397.877 84.0916 397.322 84.6466 397.322 85.3289C397.322 86.0113 397.877 86.5662 398.559 86.5662C399.241 86.5662 399.796 86.0113 399.796 85.3289C399.796 84.6466 399.241 84.0916 398.559 84.0916Z"
        fill="#4E4D4D" />
    <path d="M385.793 238.963H385.133V158.838L402.773 134.765V103.365H403.432V134.98L385.793 159.055V238.963Z"
        fill="#4E4D4D" />
    <path
        d="M403.102 103.722C402.056 103.722 401.205 102.87 401.205 101.824C401.205 100.778 402.056 99.9272 403.102 99.9272C404.148 99.9272 405 100.778 405 101.824C405 102.87 404.148 103.722 403.102 103.722ZM403.102 100.587C402.42 100.587 401.865 101.142 401.865 101.824C401.865 102.507 402.42 103.062 403.102 103.062C403.785 103.062 404.34 102.507 404.34 101.824C404.34 101.142 403.785 100.587 403.102 100.587Z"
        fill="#4E4D4D" />
    <path d="M376.873 129.149H376.213V238.963H376.873V129.149Z" fill="#4E4D4D" />
    <path
        d="M376.543 129.479C375.497 129.479 374.646 128.628 374.646 127.582C374.646 126.536 375.497 125.684 376.543 125.684C377.589 125.684 378.44 126.536 378.44 127.582C378.44 128.628 377.589 129.479 376.543 129.479ZM376.543 126.344C375.861 126.344 375.306 126.899 375.306 127.582C375.306 128.264 375.861 128.819 376.543 128.819C377.225 128.819 377.78 128.264 377.78 127.582C377.78 126.899 377.225 126.344 376.543 126.344Z"
        fill="#4E4D4D" />
    <path d="M372.659 238.963H372V183.234L360.024 160.646V120.07H360.684V160.482L372.659 183.071V238.963Z"
        fill="#4E4D4D" />
    <path
        d="M360.354 120.4C359.308 120.4 358.456 119.549 358.456 118.503C358.456 117.457 359.308 116.606 360.354 116.606C361.399 116.606 362.251 117.457 362.251 118.503C362.251 119.549 361.399 120.4 360.354 120.4ZM360.354 117.265C359.671 117.265 359.116 117.82 359.116 118.503C359.116 119.185 359.671 119.74 360.354 119.74C361.036 119.74 361.591 119.185 361.591 118.503C361.591 117.821 361.036 117.265 360.354 117.265Z"
        fill="#4E4D4D" />
    <path d="M368.47 238.963H367.81V185.653L353.691 160.681V133.924H354.351V160.507L368.47 185.479V238.963Z"
        fill="#4E4D4D" />
    <path
        d="M354.021 134.254C352.975 134.254 352.124 133.403 352.124 132.357C352.124 131.311 352.975 130.459 354.021 130.459C355.067 130.459 355.918 131.311 355.918 132.357C355.918 133.403 355.067 134.254 354.021 134.254ZM354.021 131.119C353.339 131.119 352.784 131.674 352.784 132.357C352.784 133.039 353.339 133.594 354.021 133.594C354.704 133.594 355.259 133.039 355.259 132.357C355.259 131.675 354.704 131.119 354.021 131.119Z"
        fill="#4E4D4D" />
    <path d="M43.2975 238.963H42.6376V195.74L24.9978 171.666V146.26H25.6577V171.45L43.2975 195.525V238.963Z"
        fill="#4E4D4D" />
    <path
        d="M25.3276 146.617C24.281 146.617 23.4304 145.766 23.4304 144.72C23.4304 143.674 24.281 142.823 25.3276 142.823C26.3736 142.823 27.2248 143.674 27.2248 144.72C27.2248 145.766 26.3742 146.617 25.3276 146.617ZM25.3276 143.483C24.6453 143.483 24.0903 144.038 24.0903 144.72C24.0903 145.402 24.6453 145.957 25.3276 145.957C26.01 145.957 26.5649 145.402 26.5649 144.72C26.5649 144.038 26.01 143.483 25.3276 143.483Z"
        fill="#4E4D4D" />
    <path d="M38.7538 238.963H38.0939V198.648L20.4548 174.574V162.756H21.1147V174.359L38.7538 198.432V238.963Z"
        fill="#4E4D4D" />
    <path
        d="M20.7849 163.113C19.739 163.113 18.8877 162.261 18.8877 161.215C18.8877 160.169 19.739 159.318 20.7849 159.318C21.8315 159.318 22.6821 160.169 22.6821 161.215C22.6821 162.261 21.8308 163.113 20.7849 163.113ZM20.7849 159.978C20.1026 159.978 19.5476 160.533 19.5476 161.215C19.5476 161.898 20.1026 162.453 20.7849 162.453C21.4672 162.453 22.0222 161.898 22.0222 161.215C22.0222 160.533 21.4672 159.978 20.7849 159.978Z"
        fill="#4E4D4D" />
    <path d="M47.6743 168.743H47.0144V238.963H47.6743V168.743Z" fill="#4E4D4D" />
    <path
        d="M47.3445 169.073C46.2979 169.073 45.4473 168.222 45.4473 167.176C45.4473 166.13 46.2979 165.278 47.3445 165.278C48.3904 165.278 49.2417 166.13 49.2417 167.176C49.2417 168.222 48.3904 169.073 47.3445 169.073ZM47.3445 165.938C46.6621 165.938 46.1072 166.493 46.1072 167.176C46.1072 167.858 46.6621 168.413 47.3445 168.413C48.0268 168.413 48.5818 167.858 48.5818 167.176C48.5818 166.493 48.0268 165.938 47.3445 165.938Z"
        fill="#4E4D4D" />
    <path
        d="M51.8879 238.963H51.228V202.868L51.2663 202.794L63.2039 180.279V139.867H63.8638V180.443L63.8255 180.516L51.8879 203.031V238.963Z"
        fill="#4E4D4D" />
    <path
        d="M63.5339 140.197C62.4873 140.197 61.6367 139.346 61.6367 138.3C61.6367 137.254 62.4873 136.402 63.5339 136.402C64.5799 136.402 65.4311 137.254 65.4311 138.3C65.4311 139.346 64.5805 140.197 63.5339 140.197ZM63.5339 137.062C62.8516 137.062 62.2966 137.617 62.2966 138.3C62.2966 138.982 62.8516 139.537 63.5339 139.537C64.2163 139.537 64.7712 138.982 64.7712 138.3C64.7712 137.618 64.2163 137.062 63.5339 137.062Z"
        fill="#4E4D4D" />
    <path
        d="M56.0776 238.963H55.4177V205.276L55.4606 205.2L69.5363 180.304V153.721H70.1962V180.478L70.1533 180.553L56.0776 205.45V238.963Z"
        fill="#4E4D4D" />
    <path
        d="M69.866 154.051C68.82 154.051 67.9688 153.2 67.9688 152.154C67.9688 151.108 68.82 150.256 69.866 150.256C70.9119 150.256 71.7632 151.108 71.7632 152.154C71.7632 153.2 70.9119 154.051 69.866 154.051ZM69.866 150.916C69.1836 150.916 68.6286 151.471 68.6286 152.154C68.6286 152.836 69.1836 153.391 69.866 153.391C70.5483 153.391 71.1033 152.836 71.1033 152.154C71.1033 151.472 70.5483 150.916 69.866 150.916Z"
        fill="#4E4D4D" />
    <path
        d="M0.265625 238.667L52.8055 238.506L105.346 238.448L210.427 238.338L315.508 238.447L368.048 238.506L420.588 238.667L368.048 238.828L315.508 238.886L210.427 238.996L105.346 238.886L52.8055 238.828L0.265625 238.667Z"
        fill="#263238" />
    <path d="M355.527 46.2659H64.2173V241.131H355.527V46.2659Z" fill="#161E22" />
    <path d="M353.411 48.6428H66.3347V238.754H353.411V48.6428Z" fill="#263238" />
    <path
        d="M26.8778 245.268C26.7664 245.593 26.655 245.853 26.655 246.178C26.655 250.403 33.7836 253.847 42.5829 253.847H386.87C395.669 253.847 402.798 250.403 402.798 246.178C402.798 245.853 402.686 245.593 402.575 245.268H26.8778Z"
        fill="#3F3F40" />
    <path d="M402.798 238.01H26.655V245.928H402.798V238.01Z" fill="url(#paint0_linear_0_1)" />
    <path d="M337.186 63.0867H82.5576V224.31H337.186V63.0867Z" fill="white" />
    <path d="M337.186 63.0867H82.3425V69.2904H337.186V63.0867Z" fill="#455A64" />
    <path
        d="M87.2734 66.1889C87.2734 67.0388 86.5845 67.7278 85.7352 67.7278C84.8852 67.7278 84.1963 67.0388 84.1963 66.1889C84.1963 65.3389 84.8852 64.6507 85.7352 64.6507C86.5851 64.65 87.2734 65.3389 87.2734 66.1889Z"
        fill="white" />
    <path
        d="M93.5564 66.1889C93.5564 67.0388 92.8674 67.7278 92.0175 67.7278C91.1675 67.7278 90.4792 67.0388 90.4792 66.1889C90.4792 65.3389 91.1682 64.6507 92.0175 64.6507C92.8674 64.65 93.5564 65.3389 93.5564 66.1889Z"
        fill="#00D29E" />
    <path
        d="M99.8392 66.1889C99.8392 67.0388 99.1503 67.7278 98.3003 67.7278C97.4504 67.7278 96.7621 67.0388 96.7621 66.1889C96.7621 65.3389 97.451 64.6507 98.3003 64.6507C99.1503 64.65 99.8392 65.3389 99.8392 66.1889Z"
        fill="#BDFF4B" />
    <path d="M337.186 69.2904H332.666V224.31H337.186V69.2904Z" fill="#DBDBDB" />
    <path
        d="M334.924 123.034C334.279 123.034 333.756 122.511 333.756 121.867V71.3658C333.756 70.7211 334.279 70.1984 334.924 70.1984C335.568 70.1984 336.091 70.7211 336.091 71.3658V121.867C336.092 122.511 335.569 123.034 334.924 123.034Z"
        fill="#A6A6A6" />
    <g opacity="0.4">
        <path
            d="M340.205 31.0723C342.392 27.7198 341.447 23.2259 338.095 21.0384C334.74 18.8498 330.248 19.7959 328.061 23.1484C325.872 26.5026 326.817 30.9937 330.171 33.1823C333.523 35.3698 338.016 34.4265 340.205 31.0723ZM336.969 28.9611C335.947 30.5272 333.848 30.9686 332.282 29.9468C330.716 28.9249 330.274 26.8257 331.296 25.2596C332.319 23.6927 334.416 23.2538 335.982 24.2756C337.55 25.2972 337.992 27.3942 336.969 28.9611Z"
            fill="#A6A6A6" />
        <path d="M331.503 33.6925L329.167 32.1685L328.219 33.9057L330.295 35.2604L331.503 33.6925Z" fill="#A6A6A6" />
        <path d="M327.571 30.005L326.998 27.277L325.098 27.8338L325.608 30.2607L327.571 30.005Z" fill="#A6A6A6" />
        <path d="M327.398 24.619L328.922 22.2834L327.185 21.3348L325.83 23.4111L327.398 24.619Z" fill="#A6A6A6" />
        <path d="M331.086 20.6878L333.814 20.1141L333.257 18.2139L330.83 18.7243L331.086 20.6878Z" fill="#A6A6A6" />
        <path d="M336.472 20.5145L338.807 22.0385L339.756 20.3013L337.679 18.9466L336.472 20.5145Z" fill="#A6A6A6" />
        <path d="M340.403 24.2013L340.976 26.9302L342.877 26.3734L342.366 23.9465L340.403 24.2013Z" fill="#A6A6A6" />
        <path d="M340.576 29.5881L339.052 31.9237L340.789 32.8723L342.144 30.796L340.576 29.5881Z" fill="#A6A6A6" />
        <path d="M336.889 33.5198L334.161 34.0929L334.717 35.9931L337.144 35.4828L336.889 33.5198Z" fill="#A6A6A6" />
        <path
            d="M331.868 27.5864L333.413 29.3095L335.678 28.8325L336.397 26.634L334.853 24.9114L332.587 25.3864L331.868 27.5864ZM334.534 26.4958C334.873 26.7175 334.969 27.1712 334.747 27.5111C334.526 27.8501 334.072 27.9463 333.732 27.7246C333.393 27.5034 333.297 27.0483 333.518 26.7093C333.741 26.3686 334.195 26.2746 334.534 26.4958Z"
            fill="#A6A6A6" />
        <path
            d="M363.352 33.3168C365.526 29.9863 364.584 25.5106 361.256 23.3392C357.925 21.1655 353.449 22.1061 351.275 25.4366C349.102 28.7671 350.042 33.2445 353.375 35.4187C356.703 37.5893 361.179 36.6473 363.352 33.3168ZM362.067 32.478C360.353 35.1051 356.837 35.8451 354.213 34.1326C351.583 32.4167 350.844 28.9009 352.558 26.2738C354.272 23.6475 357.788 22.9075 360.417 24.6233C363.043 26.3364 363.78 29.8517 362.067 32.478ZM363.352 33.3168C365.526 29.9863 364.584 25.5106 361.256 23.3392C357.925 21.1655 353.449 22.1061 351.275 25.4366C349.102 28.7671 350.042 33.2445 353.375 35.4187C356.703 37.5893 361.179 36.6473 363.352 33.3168ZM362.067 32.478C360.353 35.1051 356.837 35.8451 354.213 34.1326C351.583 32.4167 350.844 28.9009 352.558 26.2738C354.272 23.6475 357.788 22.9075 360.417 24.6233C363.043 26.3364 363.78 29.8517 362.067 32.478ZM367.494 36.0191C371.162 30.3972 369.577 22.8646 363.957 19.198C358.333 15.528 350.801 17.1118 347.133 22.7337C343.464 28.3565 345.047 35.8896 350.671 39.5596C356.292 43.2268 363.825 41.642 367.494 36.0191ZM363.932 33.695C361.551 37.3442 356.644 38.3775 352.997 35.9975C349.347 33.6159 348.314 28.7061 350.695 25.0578C353.077 21.4079 357.985 20.3779 361.635 22.7595C365.282 25.1394 366.314 30.0442 363.932 33.695ZM363.352 33.3168C365.526 29.9863 364.584 25.5106 361.256 23.3392C357.925 21.1655 353.449 22.1061 351.275 25.4366C349.102 28.7671 350.042 33.2445 353.375 35.4187C356.703 37.5893 361.179 36.6473 363.352 33.3168ZM362.067 32.478C360.353 35.1051 356.837 35.8451 354.213 34.1326C351.583 32.4167 350.844 28.9009 352.558 26.2738C354.272 23.6475 357.788 22.9075 360.417 24.6233C363.043 26.3364 363.78 29.8517 362.067 32.478Z"
            fill="#A6A6A6" />
        <path d="M351.986 40.1539L349.655 38.6328L348.369 41.1105L350.236 42.3287L351.986 40.1539Z" fill="#A6A6A6" />
        <path d="M347.311 36.0466L346.053 33.5628L343.7 35.0665L344.708 37.0546L347.311 36.0466Z" fill="#A6A6A6" />
        <path d="M345.316 30.1511L345.468 27.3722L342.679 27.4974L342.558 29.7237L345.316 30.1511Z" fill="#A6A6A6" />
        <path d="M346.537 24.0494L348.057 21.719L345.579 20.4319L344.361 22.2988L346.537 24.0494Z" fill="#A6A6A6" />
        <path d="M350.644 19.375L353.127 18.1167L351.623 15.7633L349.635 16.7714L350.644 19.375Z" fill="#A6A6A6" />
        <path d="M356.538 17.3801L359.318 17.5311L359.192 14.7426L356.966 14.6206L356.538 17.3801Z" fill="#A6A6A6" />
        <path d="M362.641 18.5997L364.972 20.1209L366.258 17.6423L364.391 16.4241L362.641 18.5997Z" fill="#A6A6A6" />
        <path d="M367.315 22.7071L368.573 25.1895L370.926 23.6871L369.919 21.6982L367.315 22.7071Z" fill="#A6A6A6" />
        <path d="M369.31 28.6012L369.158 31.3815L371.948 31.2563L372.069 29.03L369.31 28.6012Z" fill="#A6A6A6" />
        <path d="M368.09 34.7034L366.569 37.0348L369.048 38.321L370.266 36.454L368.09 34.7034Z" fill="#A6A6A6" />
        <path d="M363.983 39.3789L361.5 40.6372L363.004 42.9897L364.991 41.9824L363.983 39.3789Z" fill="#A6A6A6" />
        <path d="M358.088 41.3736L355.309 41.2216L355.435 44.011L357.661 44.1322L358.088 41.3736Z" fill="#A6A6A6" />
        <path
            d="M375.361 42.3979C373.929 41.2616 371.848 41.5025 370.712 42.9325C369.575 44.3664 369.816 46.4449 371.247 47.582C372.678 48.7172 374.757 48.4775 375.893 47.0453C377.03 45.6144 376.792 43.5331 375.361 42.3979ZM375.579 46.7946C374.58 48.0532 372.754 48.2632 371.498 47.266C370.241 46.2683 370.031 44.4422 371.029 43.1839C372.027 41.9271 373.853 41.7171 375.111 42.7145C376.366 43.7119 376.577 45.5378 375.579 46.7946ZM375.361 42.3979C373.929 41.2616 371.848 41.5025 370.712 42.9325C369.575 44.3664 369.816 46.4449 371.247 47.582C372.678 48.7172 374.757 48.4775 375.893 47.0453C377.03 45.6144 376.792 43.5331 375.361 42.3979ZM375.579 46.7946C374.58 48.0532 372.754 48.2632 371.498 47.266C370.241 46.2683 370.031 44.4422 371.029 43.1839C372.027 41.9271 373.853 41.7171 375.111 42.7145C376.366 43.7119 376.577 45.5378 375.579 46.7946ZM375.361 42.3979C373.929 41.2616 371.848 41.5025 370.712 42.9325C369.575 44.3664 369.816 46.4449 371.247 47.582C372.678 48.7172 374.757 48.4775 375.893 47.0453C377.03 45.6144 376.792 43.5331 375.361 42.3979ZM375.579 46.7946C374.58 48.0532 372.754 48.2632 371.498 47.266C370.241 46.2683 370.031 44.4422 371.029 43.1839C372.027 41.9271 373.853 41.7171 375.111 42.7145C376.366 43.7119 376.577 45.5378 375.579 46.7946ZM377.64 39.5278C374.62 37.1322 370.235 37.6405 367.841 40.6555C365.447 43.6718 365.951 48.0589 368.969 50.4535C371.984 52.8459 376.372 52.3406 378.765 49.3242C381.158 46.3087 380.655 41.9194 377.64 39.5278ZM376.298 47.3651C374.987 49.0169 372.579 49.2952 370.928 47.9848C369.277 46.6744 368.999 44.266 370.31 42.6134C371.622 40.9608 374.031 40.6853 375.681 41.9957C377.33 43.3058 377.608 45.7143 376.298 47.3651ZM375.894 47.0458C377.029 45.6153 376.791 43.534 375.361 42.3979C373.929 41.2616 371.848 41.5025 370.712 42.9325C369.575 44.3664 369.816 46.4449 371.247 47.582C372.679 48.7177 374.757 48.4775 375.894 47.0458ZM375.579 46.7946C374.58 48.0532 372.754 48.2632 371.498 47.266C370.241 46.2683 370.031 44.4422 371.029 43.1839C372.027 41.9271 373.853 41.7171 375.111 42.7145C376.366 43.7119 376.577 45.5378 375.579 46.7946ZM375.361 42.3979C373.929 41.2616 371.848 41.5025 370.712 42.9325C369.575 44.3664 369.816 46.4449 371.247 47.582C372.678 48.7172 374.757 48.4775 375.893 47.0453C377.03 45.6144 376.792 43.5331 375.361 42.3979ZM375.579 46.7946C374.58 48.0532 372.754 48.2632 371.498 47.266C370.241 46.2683 370.031 44.4422 371.029 43.1839C372.027 41.9271 373.853 41.7171 375.111 42.7145C376.366 43.7119 376.577 45.5378 375.579 46.7946ZM375.361 42.3979C373.929 41.2616 371.848 41.5025 370.712 42.9325C369.575 44.3664 369.816 46.4449 371.247 47.582C372.678 48.7172 374.757 48.4775 375.893 47.0453C377.03 45.6144 376.792 43.5331 375.361 42.3979ZM375.579 46.7946C374.58 48.0532 372.754 48.2632 371.498 47.266C370.241 46.2683 370.031 44.4422 371.029 43.1839C372.027 41.9271 373.853 41.7171 375.111 42.7145C376.366 43.7119 376.577 45.5378 375.579 46.7946Z"
            fill="#A6A6A6" />
        <path d="M370.199 51.0577L368.098 49.3914L367.035 50.9699L368.903 52.4525L370.199 51.0577Z" fill="#A6A6A6" />
        <path d="M366.762 47.1783L366.456 44.5147L364.588 44.8784L364.86 47.2479L366.762 47.1783Z" fill="#A6A6A6" />
        <path d="M367.076 42.0052L368.743 39.9042L367.164 38.8412L365.682 40.7088L367.076 42.0052Z" fill="#A6A6A6" />
        <path d="M370.957 38.5685L373.62 38.2621L373.256 36.3931L370.887 36.6669L370.957 38.5685Z" fill="#A6A6A6" />
        <path d="M376.13 38.8823L378.23 40.5487L379.294 38.9701L377.426 37.4876L376.13 38.8823Z" fill="#A6A6A6" />
        <path d="M379.566 42.7626L379.872 45.4262L381.741 45.0617L381.468 42.6931L379.566 42.7626Z" fill="#A6A6A6" />
        <path d="M379.252 47.9358L377.586 50.0359L379.164 51.0997L380.647 49.2313L379.252 47.9358Z" fill="#A6A6A6" />
        <path d="M375.373 51.3721L372.709 51.6793L373.073 53.5469L375.442 53.2745L375.373 51.3721Z" fill="#A6A6A6" />
    </g>
    <path
        d="M347.55 212.018C345.108 209.624 341.951 206.733 338.217 207.764C334.704 208.735 333.36 212.57 332.731 215.764C331.92 219.882 331.289 224.04 330.635 228.185C329.975 232.372 329.355 236.564 328.752 240.759C328.412 243.126 328.075 245.494 327.745 247.862C327.58 249.046 327.415 250.231 327.251 251.415C327.09 252.577 326.896 253.737 326.832 254.909C326.812 255.282 327.397 255.337 327.479 254.981C327.932 253.006 328.118 250.952 328.408 248.947C328.7 246.931 328.992 244.914 329.287 242.898C329.872 238.893 330.478 234.891 331.081 230.889C331.685 226.885 332.309 222.884 332.948 218.886C333.49 215.496 333.746 211.282 336.752 209.046C338.401 207.819 340.505 207.805 342.373 208.519C344.352 209.273 345.932 210.69 347.478 212.091C347.529 212.136 347.597 212.064 347.55 212.018Z"
        fill="#263238" />
    <path
        d="M344.208 209.572C344.208 209.572 339.215 207.775 336.752 211.418C334.289 215.062 337.233 224.329 359.965 229.558C359.965 229.558 359.369 219.636 354.496 209.01C349.623 198.382 340.939 202.406 344.208 209.572Z"
        fill="#00D29E" />
    <path
        d="M358.658 228.041C358.346 227.397 357.904 226.798 357.515 226.197C357.135 225.611 356.751 225.028 356.362 224.448C356.07 224.011 355.772 223.578 355.473 223.146C355.494 223.041 355.5 222.931 355.515 222.821C355.541 222.625 355.567 222.427 355.592 222.231C355.648 221.805 355.71 221.379 355.773 220.955C355.836 220.53 355.906 220.107 355.987 219.686C356.07 219.256 356.113 218.749 356.285 218.347C356.313 218.281 356.194 218.248 356.186 218.326C356.158 218.579 356.051 218.834 355.982 219.079C355.929 219.27 355.879 219.461 355.83 219.653C355.719 220.084 355.614 220.517 355.517 220.951C355.428 221.351 355.352 221.754 355.283 222.158C355.251 222.352 355.222 222.546 355.195 222.741C354.79 222.163 354.377 221.591 353.95 221.029C352.744 219.438 351.466 217.909 350.145 216.416C350.151 216.401 350.165 216.392 350.166 216.375C350.284 213.986 350.227 211.623 350.756 209.272C350.771 209.209 350.674 209.174 350.659 209.238C350.163 211.442 349.667 213.756 349.81 216.033C349.337 215.503 348.857 214.978 348.373 214.457C347.266 213.267 346.138 212.094 344.986 210.948C344.939 210.901 344.866 210.969 344.911 211.017C346.826 213.079 348.645 215.227 350.417 217.413C349.037 217.368 347.634 217.465 346.262 217.567C344.721 217.682 343.189 217.879 341.658 218.09C341.593 218.099 341.613 218.2 341.678 218.191C343.199 217.963 344.737 217.843 346.274 217.779C347.758 217.718 349.232 217.785 350.714 217.78C351.671 218.967 352.619 220.162 353.551 221.369C353.485 221.366 353.415 221.366 353.34 221.365C352.992 221.358 352.644 221.352 352.295 221.358C351.605 221.37 350.913 221.418 350.225 221.477C348.813 221.598 347.409 221.795 346.027 222.105C345.962 222.12 345.982 222.214 346.046 222.206C347.443 222.048 348.843 221.917 350.248 221.868C350.918 221.844 351.588 221.844 352.259 221.844C352.607 221.844 352.956 221.841 353.304 221.846C353.513 221.849 353.702 221.873 353.878 221.794C354.489 222.588 355.101 223.381 355.707 224.179C356.189 224.814 356.665 225.454 357.132 226.101C357.61 226.761 358.042 227.482 358.573 228.1C358.614 228.146 358.683 228.093 358.658 228.041Z"
        fill="#263238" />
    <path
        d="M346.382 214.735C345.584 214.604 344.757 214.618 343.951 214.617C343.14 214.617 342.328 214.641 341.517 214.67C341.443 214.672 341.449 214.776 341.523 214.771C342.346 214.712 343.167 214.698 343.992 214.71C344.787 214.722 345.584 214.798 346.379 214.777C346.406 214.776 346.409 214.739 346.382 214.735Z"
        fill="#263238" />
    <path
        d="M353.517 216.567C353.61 215.791 353.707 215.011 353.873 214.247C353.888 214.175 353.784 214.151 353.773 214.225C353.656 214.99 353.508 215.748 353.395 216.513C353.338 216.896 353.286 217.279 353.239 217.663C353.196 218.013 353.115 218.394 353.146 218.747C353.152 218.814 353.262 218.821 353.279 218.757C353.372 218.413 353.363 218.029 353.397 217.674C353.433 217.305 353.472 216.936 353.517 216.567Z"
        fill="#263238" />
    <path
        d="M352.022 207.965C351.823 208.721 351.626 209.486 351.486 210.255C351.416 210.645 351.356 211.037 351.303 211.43C351.252 211.806 351.184 212.2 351.226 212.579C351.23 212.609 351.277 212.611 351.286 212.583C351.396 212.232 351.417 211.851 351.466 211.488C351.516 211.11 351.574 210.733 351.639 210.358C351.777 209.565 351.917 208.78 352.118 208.001C352.135 207.937 352.038 207.901 352.022 207.965Z"
        fill="#263238" />
    <path
        d="M322.421 254.07C322.296 252.639 322.156 251.209 322.006 249.78C321.707 246.948 321.361 244.122 320.981 241.3C320.602 238.486 320.241 235.666 319.789 232.863C319.581 231.578 319.367 230.262 318.922 229.034C318.539 227.977 317.906 227.022 316.8 226.64C314.126 225.716 312.321 228.489 311.242 230.452C311.209 230.511 311.295 230.555 311.332 230.501C311.978 229.572 313.765 226.963 315.794 227.084C317.159 227.166 318.251 228.133 318.906 231.537C320.539 240.019 322.011 257.231 322.183 258.357C322.274 258.954 322.696 258.928 322.699 258.288C322.707 256.88 322.544 255.471 322.421 254.07Z"
        fill="#263238" />
    <path
        d="M311.963 229.397C311.963 229.397 314.3 221.142 309.132 225.27C300.53 232.14 300.225 247.085 300.225 247.085C300.225 247.085 315.516 238.203 317.418 232.345C320.25 223.618 311.963 229.397 311.963 229.397Z"
        fill="#00D29E" />
    <path
        d="M314.857 233.448C313.657 233.692 312.44 233.851 311.229 234.025C310.655 234.107 310.081 234.188 309.507 234.267C309.12 234.32 308.728 234.357 308.338 234.405C309.477 232.836 310.626 231.273 311.718 229.672C311.76 229.61 311.664 229.546 311.615 229.597C310.707 230.522 309.867 231.519 309.06 232.546C308.836 231.907 308.607 231.269 308.382 230.63C308.122 229.89 307.843 229.156 307.655 228.394C307.639 228.33 307.539 228.359 307.557 228.423C307.765 229.18 307.914 229.952 308.116 230.71C308.311 231.443 308.534 232.167 308.793 232.879C308.233 233.606 307.696 234.351 307.174 235.104C306.911 234.358 306.584 233.636 306.354 232.879C306.334 232.815 306.235 232.846 306.255 232.908C306.53 233.746 306.677 234.617 306.935 235.46C306.584 235.973 306.232 236.485 305.897 237.003C305.28 237.957 304.698 238.929 304.129 239.907C304.04 239.957 303.982 240.03 303.995 240.138C303.029 241.809 302.11 243.505 301.203 245.216C301.172 245.275 301.262 245.324 301.293 245.266C302.201 243.575 303.21 241.93 304.261 240.314C304.264 240.313 304.268 240.314 304.272 240.313C304.383 240.252 304.635 240.244 304.772 240.216C304.949 240.18 305.125 240.14 305.3 240.102C305.696 240.016 306.087 239.914 306.48 239.816C307.256 239.623 308.023 239.44 308.811 239.305C308.876 239.294 308.846 239.194 308.781 239.207C307.856 239.382 306.927 239.488 305.991 239.596C305.55 239.647 305.11 239.704 304.67 239.774C304.652 239.777 304.628 239.78 304.607 239.783C305.157 238.948 305.714 238.118 306.279 237.299C306.835 236.493 307.405 235.697 307.978 234.903C308.509 234.829 309.035 234.689 309.561 234.589C310.153 234.476 310.744 234.36 311.336 234.244C312.519 234.009 313.698 233.744 314.888 233.547C314.951 233.536 314.922 233.435 314.857 233.448Z"
        fill="#263238" />
    <path
        d="M305.667 234.262C305.596 234.044 305.53 233.824 305.46 233.605C305.315 233.149 305.204 232.69 305.11 232.221C305.097 232.156 304.998 232.186 305.011 232.251C305.111 232.717 305.22 233.181 305.327 233.646C305.432 234.101 305.548 234.584 305.726 235.018C305.77 235.126 305.935 235.081 305.903 234.965C305.837 234.727 305.743 234.496 305.667 234.262Z"
        fill="#263238" />
    <path
        d="M316.421 231.537C315.724 231.642 315.021 231.69 314.319 231.752C313.613 231.814 312.917 231.912 312.217 232.017C312.179 232.023 312.178 232.081 312.219 232.078C312.923 232.03 313.621 231.975 314.322 231.883C315.021 231.792 315.72 231.687 316.424 231.639C316.491 231.635 316.485 231.528 316.421 231.537Z"
        fill="#263238" />
    <path
        d="M333.674 243.62C333.403 237.542 333.017 231.475 332.406 225.422C332.102 222.407 331.762 219.395 331.338 216.394C330.922 213.455 330.414 210.515 329.597 207.657C328.971 205.47 328.15 203.273 326.688 201.497C325.246 199.744 323.12 198.647 320.812 198.932C318.151 199.261 316.01 200.936 314.158 202.757C312.079 204.8 310.176 207.03 308.251 209.215C307.764 209.768 307.282 210.324 306.803 210.883C306.76 210.933 306.833 211.004 306.877 210.954C308.758 208.792 310.714 206.692 312.76 204.683C314.65 202.827 316.598 200.798 319.217 200.032C320.43 199.676 321.746 199.578 322.969 199.943C323.958 200.239 324.821 200.827 325.532 201.567C327.006 203.1 327.834 205.177 328.422 207.187C330.057 212.773 330.642 218.631 331.249 224.4C331.865 230.261 332.281 236.138 332.576 242.023C332.872 247.94 333.104 253.864 333.674 259.763C333.744 260.492 333.839 261.217 333.931 261.943C333.993 262.431 334.751 262.432 334.711 261.924C334.228 255.827 333.947 249.727 333.674 243.62Z"
        fill="#263238" />
    <path
        d="M313.823 203.415C313.823 203.415 317.294 196.992 313.193 194.932C309.092 192.872 295.367 208.191 291.357 230.594C291.357 230.594 313.525 220.786 321.052 211.013C328.58 201.24 320.046 199.089 313.823 203.415Z"
        fill="#00D29E" />
    <path
        d="M317.082 208.638C314.591 208.644 312.106 208.45 309.614 208.468C310.08 207.932 310.546 207.396 311.018 206.864C311.67 206.129 312.413 205.415 312.965 204.601C313 204.549 312.925 204.476 312.875 204.515C312.184 205.057 311.592 205.767 310.99 206.406C310.366 207.069 309.745 207.734 309.127 208.403C308.175 209.433 307.242 210.48 306.311 211.53C306.309 211.427 306.307 211.326 306.307 211.228C306.31 210.791 306.306 210.356 306.309 209.919C306.315 209.074 306.328 208.229 306.336 207.384C306.352 205.671 306.348 203.949 306.467 202.241C306.472 202.175 306.369 202.178 306.365 202.243C306.245 203.961 306.068 205.672 305.984 207.393C305.942 208.238 305.921 209.082 305.911 209.929C305.906 210.365 305.899 210.801 305.902 211.238C305.904 211.475 305.895 211.726 305.914 211.971C305.769 212.136 305.618 212.295 305.473 212.46C303.485 214.732 301.595 217.082 299.754 219.473C299.752 219.341 299.734 219.206 299.721 219.077C299.696 218.813 299.665 218.55 299.635 218.286C299.57 217.714 299.492 217.145 299.406 216.576C299.327 216.042 299.242 215.508 299.152 214.976C299.051 214.378 298.904 213.77 298.859 213.164C298.853 213.091 298.743 213.106 298.758 213.18C298.885 213.774 298.909 214.401 298.967 215.005C299.018 215.552 299.07 216.101 299.119 216.649C299.168 217.198 299.218 217.747 299.274 218.295C299.301 218.559 299.325 218.822 299.353 219.086C299.367 219.218 299.383 219.349 299.401 219.481C299.425 219.655 299.452 219.677 299.508 219.794C299.192 220.206 298.874 220.617 298.561 221.032C297.304 222.696 296.071 224.378 294.835 226.058C294.797 226.11 294.869 226.182 294.91 226.129C296.079 224.605 297.281 223.109 298.5 221.625C299.412 221.664 300.343 221.597 301.254 221.582C302.216 221.566 303.177 221.561 304.139 221.558C304.205 221.558 304.203 221.455 304.136 221.456C303.175 221.472 302.214 221.487 301.252 221.491C300.376 221.494 299.482 221.451 298.605 221.498C299.677 220.196 300.76 218.902 301.846 217.61C302.242 217.139 302.64 216.67 303.037 216.199C303.397 216.274 303.785 216.237 304.15 216.236C304.587 216.236 305.024 216.236 305.461 216.235C306.28 216.232 307.099 216.213 307.917 216.2C309.61 216.174 311.302 216.118 312.994 216.114C313.06 216.114 313.058 216.012 312.992 216.011C311.297 215.991 309.603 215.917 307.91 215.875C307.09 215.854 306.271 215.827 305.451 215.816C305.014 215.81 304.577 215.806 304.14 215.801C303.891 215.798 303.635 215.781 303.382 215.79C304.313 214.687 305.242 213.582 306.175 212.481C306.197 212.468 306.215 212.447 306.226 212.42C307.135 211.348 308.044 210.277 308.962 209.215C309.087 209.069 309.216 208.926 309.341 208.781C311.924 208.861 314.503 208.691 317.086 208.741C317.15 208.743 317.148 208.638 317.082 208.638Z"
        fill="#263238" />
    <path
        d="M315.807 213.044C315.606 213.045 315.405 213.047 315.204 213.048C315.144 213.049 315.147 213.14 315.206 213.141C315.408 213.143 315.609 213.144 315.81 213.145C315.876 213.147 315.874 213.042 315.807 213.044Z"
        fill="#263238" />
    <path
        d="M314.466 213.051C313.668 213.04 312.87 213.023 312.072 213C311.672 212.989 311.273 212.976 310.874 212.963C310.518 212.95 310.11 212.895 309.761 212.976C309.721 212.984 309.729 213.04 309.762 213.05C310.108 213.154 310.52 213.122 310.878 213.129C311.277 213.137 311.676 213.142 312.075 213.146C312.873 213.154 313.671 213.157 314.468 213.154C314.535 213.153 314.532 213.051 314.466 213.051Z"
        fill="#263238" />
    <path
        d="M307.497 220.531C305.875 220.304 304.236 220.074 302.595 220.089C302.571 220.089 302.574 220.123 302.596 220.125C304.224 220.28 305.856 220.368 307.473 220.631C307.537 220.642 307.562 220.541 307.497 220.531Z"
        fill="#263238" />
    <path
        d="M300.833 213.4C300.817 213.257 300.801 213.115 300.783 212.973C300.74 212.652 300.69 212.332 300.64 212.013C300.544 211.404 300.437 210.797 300.322 210.191C300.311 210.135 300.214 210.15 300.221 210.207C300.298 210.833 300.365 211.461 300.424 212.089C300.452 212.398 300.475 212.707 300.503 213.015C300.529 213.294 300.504 213.639 300.628 213.894C300.675 213.99 300.818 213.951 300.843 213.86C300.885 213.707 300.851 213.555 300.833 213.4Z"
        fill="#263238" />
    <path
        d="M333.456 195.166C332.662 193.689 331.653 191.738 329.672 191.862C328.037 191.964 327.3 193.633 326.951 195.012C325.871 199.278 325.795 203.778 325.584 208.149C325.14 217.389 324.74 226.638 324.682 235.89C324.666 238.454 324.675 241.018 324.698 243.583C324.723 246.198 324.716 248.829 324.881 251.439C324.897 251.686 325.264 251.678 325.266 251.429C325.281 249.193 325.202 246.954 325.192 244.717C325.183 242.534 325.2 240.35 325.235 238.167C325.306 233.746 325.425 229.325 325.589 224.906C325.752 220.514 325.945 216.123 326.131 211.731C326.224 209.537 326.317 207.342 326.416 205.147C326.512 203.022 326.604 200.894 326.847 198.778C326.983 197.594 327.159 196.408 327.405 195.242C327.582 194.409 327.835 193.511 328.428 192.872C329.21 192.029 330.391 192.089 331.318 192.662C332.279 193.255 332.862 194.241 333.367 195.219C333.399 195.279 333.487 195.224 333.456 195.166Z"
        fill="#263238" />
    <path
        d="M332.919 194.461C332.919 194.461 331.291 188.711 334.891 191.586C340.883 196.372 341.096 206.783 341.096 206.783C341.096 206.783 330.444 200.596 329.119 196.515C327.147 190.436 332.919 194.461 332.919 194.461Z"
        fill="#00D29E" />
    <path
        d="M338.855 202.515C338.757 202.356 338.652 202.201 338.552 202.044C338.578 201.885 338.552 201.707 338.552 201.553C338.551 201.306 338.548 201.058 338.554 200.811C338.565 200.325 338.584 199.84 338.607 199.354C338.611 199.288 338.508 199.291 338.505 199.357C338.48 199.833 338.461 200.309 338.448 200.786C338.441 201.024 338.43 201.263 338.423 201.501C338.42 201.594 338.408 201.701 338.402 201.808C337.984 201.158 337.555 200.516 337.111 199.884C336.982 199.701 336.847 199.522 336.716 199.341C336.618 198.727 336.676 198.081 336.684 197.464C336.691 196.795 336.701 196.128 336.725 195.459C336.727 195.394 336.624 195.396 336.622 195.462C336.603 196.157 336.568 196.851 336.533 197.546C336.508 198.038 336.462 198.539 336.492 199.033C335.463 197.634 334.372 196.286 333.267 194.944C333.23 194.9 333.151 194.963 333.188 195.008C333.872 195.874 334.528 196.762 335.17 197.66C333.917 197.368 332.642 197.2 331.368 197.015C331.304 197.006 331.278 197.105 331.344 197.115C332.692 197.319 334.016 197.657 335.346 197.951C335.357 197.953 335.363 197.946 335.372 197.946C335.883 198.664 336.387 199.388 336.889 200.111C337.093 200.406 337.291 200.705 337.493 201.001C337.474 200.998 337.454 200.996 337.435 200.994C337.297 200.974 337.159 200.953 337.021 200.937C336.726 200.901 336.43 200.878 336.135 200.855C335.521 200.807 334.905 200.774 334.29 200.741C334.225 200.738 334.226 200.843 334.293 200.844C334.899 200.858 335.5 200.903 336.103 200.969C336.421 201.003 336.738 201.046 337.056 201.084C337.194 201.101 337.333 201.117 337.472 201.134C337.513 201.139 337.554 201.145 337.594 201.151C337.935 201.654 338.278 202.157 338.618 202.66C339.22 203.55 339.757 204.503 340.399 205.362C340.436 205.413 340.508 205.367 340.482 205.31C340.033 204.342 339.414 203.423 338.855 202.515Z"
        fill="#263238" />
    <path
        d="M336.202 196.02C336.202 195.796 336.207 195.572 336.207 195.349C336.205 194.881 336.199 194.404 336.263 193.94C336.273 193.866 336.163 193.855 336.162 193.929C336.161 194.394 336.111 194.859 336.089 195.324C336.077 195.557 336.077 195.79 336.076 196.023C336.076 196.131 336.076 196.238 336.078 196.346C336.079 196.455 336.063 196.577 336.102 196.68C336.118 196.723 336.176 196.721 336.191 196.677C336.223 196.58 336.207 196.47 336.205 196.369C336.203 196.253 336.202 196.136 336.202 196.02Z"
        fill="#263238" />
    <path
        d="M334.886 198.401C334.489 198.334 334.083 198.313 333.684 198.279C333.244 198.242 332.805 198.204 332.368 198.147C332.294 198.138 332.282 198.243 332.357 198.249C333.197 198.303 334.034 198.453 334.876 198.483C334.922 198.484 334.931 198.409 334.886 198.401Z"
        fill="#263238" />
    <path
        d="M338.232 198.436C338.263 198.48 338.243 198.606 338.243 198.658V198.843C338.243 198.977 338.242 199.111 338.24 199.245C338.239 199.379 338.238 199.513 338.238 199.647C338.237 199.754 338.208 199.901 338.257 199.998C338.265 200.014 338.29 200.012 338.297 199.997C338.323 199.945 338.318 199.888 338.317 199.83C338.317 199.769 338.316 199.706 338.316 199.645C338.314 199.511 338.313 199.377 338.313 199.243C338.312 199.109 338.31 198.975 338.31 198.841V198.655C338.31 198.598 338.289 198.48 338.322 198.433C338.386 198.342 338.164 198.34 338.232 198.436Z"
        fill="#263238" />
    <path
        d="M333.704 225.847C331.463 224.165 329.451 221.748 326.438 221.63C323.951 221.532 322.208 223.404 321.212 225.489C320.687 226.589 320.327 227.755 319.993 228.924C319.544 230.498 319.12 232.079 318.723 233.667C317.943 236.791 317.272 239.944 316.729 243.117C316.426 244.887 316.144 246.662 315.92 248.443C315.695 250.239 315.401 252.084 315.398 253.896C315.397 254.211 315.89 254.272 315.954 253.958C316.257 252.468 316.384 250.93 316.604 249.425C316.824 247.911 317.054 246.398 317.31 244.89C317.822 241.873 318.413 238.866 319.094 235.881C319.737 233.063 320.368 230.202 321.277 227.456C321.929 225.489 322.975 223.192 325.099 222.485C328.333 221.409 331.268 224.146 333.634 225.922C333.685 225.961 333.756 225.887 333.704 225.847Z"
        fill="#263238" />
    <path
        d="M331.384 224.238C331.384 224.238 329.32 218.342 332.307 217.186C336.783 215.453 348.499 228.648 346.205 248.866C346.205 248.866 337.153 243.879 330.469 238.27C323.785 232.66 322.074 225.333 325.019 223.439C327.963 221.544 331.384 224.238 331.384 224.238Z"
        fill="#00D29E" />
    <path
        d="M344.852 244.532C344.59 243.821 344.131 243.156 343.764 242.493C343.382 241.802 342.994 241.111 342.595 240.429C341.817 239.099 341.043 237.765 340.247 236.446C340.118 236.232 339.984 236.02 339.854 235.807C339.872 235.728 339.886 235.648 339.904 235.57C339.948 235.375 339.992 235.18 340.037 234.985C340.136 234.547 340.213 234.103 340.296 233.661C340.457 232.796 340.608 231.919 340.842 231.07C340.859 231.008 340.755 230.987 340.74 231.053C340.555 231.917 340.283 232.768 340.027 233.614C339.901 234.031 339.766 234.446 339.657 234.867C339.619 235.011 339.582 235.156 339.544 235.3C338.581 233.722 337.602 232.152 336.547 230.635C336.636 230.437 336.627 230.214 336.652 229.987C336.683 229.691 336.719 229.396 336.754 229.1C336.833 228.435 336.909 227.771 337.007 227.107C337.199 225.805 337.393 224.512 337.716 223.234C337.732 223.17 337.632 223.152 337.615 223.216C337.293 224.489 336.942 225.762 336.7 227.054C336.582 227.686 336.469 228.322 336.385 228.96C336.343 229.279 336.308 229.6 336.276 229.921C336.266 230.015 336.251 230.112 336.239 230.21C335.914 229.752 335.59 229.293 335.25 228.846C334.215 227.486 333.145 226.158 332.063 224.835C332.021 224.785 331.937 224.843 331.979 224.895C333.877 227.217 335.482 229.789 337.069 232.329C337.365 232.803 337.655 233.282 337.949 233.758C337.851 233.745 337.753 233.734 337.658 233.722C337.28 233.674 336.897 233.65 336.517 233.615C335.755 233.544 334.993 233.477 334.231 233.416C332.705 233.295 331.177 233.201 329.655 233.039C329.59 233.031 329.571 233.132 329.638 233.14C331.18 233.316 332.713 233.564 334.249 233.782C335.004 233.89 335.76 233.991 336.516 234.087C337.038 234.154 337.693 234.31 338.262 234.266C338.861 235.239 339.463 236.21 340.059 237.184C339.927 237.166 339.788 237.171 339.655 237.169C339.401 237.165 339.146 237.167 338.892 237.167C338.42 237.166 337.947 237.166 337.475 237.166C336.493 237.167 335.511 237.186 334.53 237.185C334.463 237.185 334.474 237.286 334.54 237.288C335.535 237.299 336.527 237.35 337.521 237.402C337.992 237.426 338.464 237.454 338.934 237.487C339.17 237.503 339.405 237.523 339.641 237.537C339.847 237.55 340.068 237.59 340.262 237.513C340.77 238.342 341.284 239.167 341.792 239.996C342.26 240.761 342.733 241.523 343.218 242.278C343.704 243.037 344.155 243.909 344.753 244.583C344.793 244.629 344.876 244.596 344.852 244.532Z"
        fill="#263238" />
    <path
        d="M340.539 228.191C340.467 228.838 340.294 229.484 340.135 230.113C339.968 230.768 339.778 231.417 339.565 232.059C339.536 232.146 339.658 232.186 339.686 232.097C339.887 231.46 340.067 230.817 340.224 230.169C340.381 229.519 340.482 228.857 340.641 228.209C340.656 228.145 340.547 228.125 340.539 228.191Z"
        fill="#263238" />
    <path
        d="M333.889 232.14C333.748 231.998 333.589 231.984 333.395 231.957C333.11 231.916 332.826 231.879 332.541 231.84C332.011 231.768 331.48 231.709 330.949 231.647C329.846 231.518 328.741 231.411 327.639 231.272C327.574 231.263 327.556 231.365 327.622 231.373C328.662 231.5 329.697 231.657 330.736 231.793C331.245 231.86 331.754 231.932 332.264 231.992C332.509 232.02 332.755 232.046 333 232.073C333.271 232.104 333.591 232.096 333.839 232.217C333.889 232.242 333.925 232.176 333.889 232.14Z"
        fill="#263238" />
    <path
        d="M340.524 241.031C340.004 240.987 339.478 240.97 338.956 240.954C338.693 240.946 338.429 240.938 338.166 240.93C338.039 240.926 337.913 240.922 337.786 240.918C337.627 240.914 337.448 240.929 337.293 240.889C337.22 240.871 337.213 241.003 337.289 240.991C337.436 240.968 337.603 240.996 337.751 241.005C337.888 241.014 338.025 241.022 338.162 241.03C338.425 241.046 338.688 241.062 338.951 241.078C339.472 241.109 339.997 241.14 340.518 241.143C340.582 241.144 340.587 241.037 340.524 241.031Z"
        fill="#263238" />
    <path
        d="M343.715 238.77C343.775 238.474 343.831 238.177 343.886 237.88C343.993 237.298 344.099 236.715 344.207 236.132C344.218 236.067 344.12 236.051 344.105 236.115C343.977 236.682 343.85 237.25 343.721 237.817C343.657 238.101 343.594 238.385 343.535 238.67C343.507 238.802 343.48 238.933 343.453 239.064C343.424 239.202 343.381 239.341 343.406 239.482C343.415 239.529 343.485 239.568 343.519 239.517C343.656 239.309 343.667 239.01 343.715 238.77Z"
        fill="#263238" />
    <path d="M313.066 251.634L313.697 258.801L315.839 283H334.79L337.466 258.801L338.257 251.634H313.066Z"
        fill="#455A64" />
    <path d="M313.066 251.634L313.697 258.801H337.466L338.257 251.634H313.066Z" fill="#263238" />
    <path d="M311.189 255.494H340.133V249.679H311.189V255.494Z" fill="#455A64" />
    <path
        d="M309.936 94.9535H348.058C349.658 94.9535 350.955 96.2503 350.955 97.8503V109.035C350.955 110.635 349.658 111.932 348.058 111.932H330.77L328.118 117.386V111.932H309.936C308.336 111.932 307.039 110.635 307.039 109.035V97.8503C307.039 96.2503 308.336 94.9535 309.936 94.9535Z"
        fill="#00D29E" />
    <path
        d="M316.696 101.059V105.165H316.109V103.335H313.752V105.165H313.165V101.059H313.752V102.825H316.109V101.059H316.696Z"
        fill="white" />
    <path
        d="M320.646 103.798H318.124C318.194 104.344 318.634 104.707 319.25 104.707C319.613 104.707 319.919 104.584 320.147 104.332L320.458 104.696C320.177 105.024 319.748 105.2 319.233 105.2C318.23 105.2 317.561 104.537 317.561 103.611C317.561 102.69 318.224 102.027 319.121 102.027C320.018 102.027 320.658 102.672 320.658 103.628C320.657 103.675 320.651 103.745 320.646 103.798ZM318.123 103.394H320.118C320.059 102.872 319.666 102.502 319.121 102.502C318.581 102.502 318.182 102.866 318.123 103.394Z"
        fill="white" />
    <path d="M321.439 100.814H322.002V105.165H321.439V100.814Z" fill="white" />
    <path d="M323.076 100.814H323.639V105.165H323.076V100.814Z" fill="white" />
    <path
        d="M324.426 103.611C324.426 102.684 325.112 102.028 326.045 102.028C326.977 102.028 327.657 102.684 327.657 103.611C327.657 104.538 326.977 105.2 326.045 105.2C325.112 105.2 324.426 104.538 324.426 103.611ZM327.088 103.611C327.088 102.948 326.642 102.52 326.044 102.52C325.446 102.52 324.994 102.948 324.994 103.611C324.994 104.274 325.446 104.708 326.044 104.708C326.643 104.707 327.088 104.274 327.088 103.611Z"
        fill="white" />
    <path
        d="M331.765 104.983C331.595 105.13 331.337 105.2 331.085 105.2C330.457 105.2 330.1 104.854 330.1 104.226V102.52H329.572V102.057H330.1V101.376H330.663V102.057H331.554V102.52H330.663V104.203C330.663 104.537 330.839 104.724 331.15 104.724C331.314 104.724 331.472 104.672 331.59 104.578L331.765 104.983Z"
        fill="white" />
    <path
        d="M335.397 103.376V105.165H334.834V103.441C334.834 102.831 334.529 102.532 333.996 102.532C333.397 102.532 333.01 102.89 333.01 103.564V105.165H332.447V100.814H333.01V102.497C333.245 102.197 333.632 102.027 334.107 102.027C334.863 102.027 335.397 102.461 335.397 103.376Z"
        fill="white" />
    <path
        d="M339.258 103.798H336.736C336.807 104.344 337.246 104.707 337.862 104.707C338.226 104.707 338.531 104.584 338.76 104.332L339.071 104.696C338.789 105.024 338.361 105.2 337.845 105.2C336.842 105.2 336.173 104.537 336.173 103.611C336.173 102.69 336.836 102.027 337.733 102.027C338.631 102.027 339.27 102.672 339.27 103.628C339.27 103.675 339.264 103.745 339.258 103.798ZM336.736 103.394H338.73C338.672 102.872 338.279 102.502 337.733 102.502C337.193 102.502 336.795 102.866 336.736 103.394Z"
        fill="white" />
    <path
        d="M341.723 102.027V102.572C341.676 102.567 341.635 102.567 341.594 102.567C340.99 102.567 340.614 102.936 340.614 103.616V105.165H340.052V102.057H340.591V102.578C340.79 102.215 341.177 102.027 341.723 102.027Z"
        fill="white" />
    <path
        d="M345.184 103.798H342.662C342.732 104.344 343.172 104.707 343.788 104.707C344.152 104.707 344.457 104.584 344.686 104.332L344.996 104.696C344.715 105.024 344.287 105.2 343.771 105.2C342.768 105.2 342.099 104.537 342.099 103.611C342.099 102.69 342.762 102.027 343.659 102.027C344.557 102.027 345.196 102.672 345.196 103.628C345.196 103.675 345.19 103.745 345.184 103.798ZM342.663 103.394H344.657C344.598 102.872 344.206 102.502 343.66 102.502C343.12 102.502 342.721 102.866 342.663 103.394Z"
        fill="white" />
    <path opacity="0.3"
        d="M86.6171 117.344L192.929 117.751L204.128 121.416V93.3027C204.128 89.5673 198.379 86.5394 191.287 86.5394L86.6148 86.1325C79.5225 86.1325 73.7736 89.1604 73.7736 92.8958V110.58C73.7759 114.316 79.5248 117.344 86.6171 117.344Z"
        fill="black" />
    <path d="M112.978 95.6604H185.763" stroke="white" stroke-miterlimit="10" stroke-linecap="round"
        stroke-linejoin="round" />
    <path d="M112.978 101.902H185.763" stroke="white" stroke-miterlimit="10" stroke-linecap="round"
        stroke-linejoin="round" />
    <path d="M112.978 108.143H157.473" stroke="white" stroke-miterlimit="10" stroke-linecap="round"
        stroke-linejoin="round" />
    <path
        d="M62.9924 96.1772C62.9924 101.944 65.3378 107.171 69.1371 110.944C69.2175 111.024 69.2979 111.104 69.3929 111.187C72.1279 113.842 75.618 115.741 79.4977 116.562C79.6463 116.589 79.7948 116.616 79.9434 116.643C80.6716 116.776 81.412 116.886 82.1524 116.94C82.7052 116.981 83.2581 117.008 83.8231 117.008C83.9839 117.008 84.1324 117.008 84.2956 116.996C84.6999 116.996 85.1042 116.969 85.5085 116.942C85.9274 116.915 86.3438 116.862 86.7627 116.794C87.2888 116.725 87.8124 116.633 88.3385 116.511C88.4067 116.511 88.4724 116.484 88.5406 116.47C91.4778 115.795 94.1861 114.49 96.5047 112.697C96.5583 112.67 96.5997 112.629 96.6532 112.59C96.8286 112.456 96.9893 112.32 97.1647 112.159C101.746 108.359 104.656 102.607 104.656 96.1796C104.656 84.6744 95.3332 75.3514 83.828 75.3514C72.3154 75.3465 62.9924 84.6695 62.9924 96.1772Z"
        fill="#C0C0C0" />
    <path
        d="M71.7842 92.0319C71.7842 92.0319 69.2293 101.679 72.4929 104.648C75.7564 107.616 94.064 107.553 96.6991 103.919C99.3368 100.286 93.3601 88.3956 93.3601 88.3956L71.7842 92.0319Z"
        fill="#263238" />
    <path
        d="M69.3926 111.185C72.1276 113.839 75.6177 115.739 79.4974 116.56C79.646 116.586 79.7945 116.613 79.9431 116.64C80.6713 116.774 81.4117 116.884 82.1521 116.937C82.7049 116.979 83.2578 117.005 83.8228 117.005C83.9836 117.005 84.1321 117.005 84.2953 116.993C84.6996 116.993 85.1039 116.966 85.5082 116.94C85.9271 116.913 86.3436 116.859 86.7625 116.791C87.2885 116.723 87.8122 116.63 88.3382 116.509V116.657C88.4064 116.604 88.4722 116.535 88.5403 116.47C91.4775 115.795 94.1858 114.49 96.5044 112.697C96.3972 112.346 96.2608 111.996 96.1269 111.659L96.0587 111.633L95.9637 111.606L95.803 111.552C95.3305 111.404 94.3612 111.094 93.0265 110.758L92.8926 110.732C92.1108 110.529 91.2096 110.313 90.1989 110.11C89.5803 109.989 88.9325 109.867 88.2456 109.76C88.1653 109.745 88.0703 109.718 87.9753 109.718C87.9632 109.718 87.9631 109.718 87.9631 109.718C87.3835 109.611 86.7771 109.531 86.1438 109.448C85.9149 109.421 85.686 109.394 85.457 109.38C84.4999 109.258 83.5159 109.178 82.493 109.124C82.1423 109.112 81.7916 109.097 81.4287 109.097C80.983 109.097 80.5252 109.112 80.0551 109.139C79.4755 109.151 78.8958 109.207 78.3162 109.273C77.8437 109.314 77.3859 109.38 76.928 109.448H76.9133C76.0512 109.57 75.2158 109.718 74.4073 109.879C72.5319 110.269 70.793 110.753 69.3926 111.185Z"
        fill="#C0C0C0" />
    <path opacity="0.6"
        d="M69.3926 111.185C72.1276 113.839 75.6177 115.739 79.4974 116.56C79.646 116.586 79.7945 116.613 79.9431 116.64C80.6713 116.774 81.4117 116.884 82.1521 116.937C82.7049 116.979 83.2578 117.005 83.8228 117.005C83.9836 117.005 84.1321 117.005 84.2953 116.993C84.6996 116.993 85.1039 116.966 85.5082 116.94C85.9271 116.913 86.3436 116.859 86.7625 116.791C87.2885 116.723 87.8122 116.63 88.3382 116.509V116.657C88.4064 116.604 88.4722 116.535 88.5403 116.47C91.4775 115.795 94.1858 114.49 96.5044 112.697C96.3972 112.346 96.2608 111.996 96.1269 111.659L96.0587 111.633L95.9637 111.606L95.803 111.552C95.3305 111.404 94.3612 111.094 93.0265 110.758L92.8926 110.732C92.1108 110.529 91.2096 110.313 90.1989 110.11C89.5803 109.989 88.9325 109.867 88.2456 109.76C88.1653 109.745 88.0703 109.718 87.9753 109.718C87.9632 109.718 87.9631 109.718 87.9631 109.718C87.3835 109.611 86.7771 109.531 86.1438 109.448C85.9149 109.421 85.686 109.394 85.457 109.38C84.4999 109.258 83.5159 109.178 82.493 109.124C82.1423 109.112 81.7916 109.097 81.4287 109.097C80.983 109.097 80.5252 109.112 80.0551 109.139C79.4755 109.151 78.8958 109.207 78.3162 109.273C77.8437 109.314 77.3859 109.38 76.928 109.448H76.9133C76.0512 109.57 75.2158 109.718 74.4073 109.879C72.5319 110.269 70.793 110.753 69.3926 111.185Z"
        fill="white" />
    <path
        d="M94.0108 91.3964C94.0108 91.3964 95.0921 75.6266 81.2074 79.275C63.7815 83.8537 73.8425 104.816 82.4203 102.154C90.9981 99.4943 94.0108 91.3964 94.0108 91.3964Z"
        fill="#263238" />
    <path opacity="0.2"
        d="M76.1831 110.052L79.2421 116.06L79.4978 116.56C79.6463 116.586 79.7949 116.613 79.9435 116.64C80.6717 116.774 81.4121 116.884 82.1524 116.937L83.8232 114.714C83.9986 115.415 84.1471 116.182 84.2957 116.991C84.7 116.991 85.1043 116.964 85.5086 116.937C85.3868 115.576 85.2942 114.714 85.2942 114.714L86.7628 116.789C87.2889 116.72 87.8125 116.628 88.3386 116.506L88.6211 109.999C88.4043 109.891 88.19 109.796 87.9733 109.716C87.9611 109.716 87.9611 109.716 87.9611 109.716C87.3133 109.446 86.6411 109.258 85.9664 109.124C85.8179 109.097 85.6693 109.071 85.5207 109.056C84.0789 108.827 82.625 108.839 81.3049 108.976C80.8738 109.017 80.4427 109.071 80.0531 109.136C79.2713 109.243 78.5699 109.392 77.9927 109.541H77.9805C77.0111 109.782 76.3633 109.984 76.2148 110.04L76.1831 110.052Z"
        fill="black" />
    <path
        d="M84.5396 111.652L77.7324 109.728C81.9263 106.84 79.8123 100.386 79.8123 100.386L86.5561 102.756C86.1957 103.876 85.9692 104.826 85.8328 105.637C85.129 109.843 87.0286 110.179 87.0286 110.179L84.5396 111.652Z"
        fill="#FBC1AE" />
    <path opacity="0.2"
        d="M86.5561 102.76C86.1957 103.881 85.9692 104.83 85.8328 105.641C82.6058 104.348 79.8123 100.391 79.8123 100.391L86.5561 102.76Z"
        fill="black" />
    <path
        d="M84.9995 83.206C91.1029 82.809 93.2802 85.9507 94.135 92.2124C95.2042 100.038 93.8233 105.734 86.0809 104.551C75.5694 102.943 74.8631 83.8635 84.9995 83.206Z"
        fill="#FBC1AE" />
    <path
        d="M78.9964 93.9268C78.9964 93.9268 81.5245 88.7271 80.8425 84.8814C80.8425 84.8814 92.6181 79.1556 94.0112 91.3939C94.0112 91.3939 94.4861 80.4147 83.977 80.8531C73.4849 81.2891 74.5078 96.64 80.2239 100.861C80.2239 100.861 77.4329 97.1758 78.9964 93.9268Z"
        fill="#263238" />
    <path
        d="M80.0778 95.1496C79.9731 94.1706 78.8503 92.5704 77.0359 92.8895C75.1581 93.2183 74.5079 97.1613 79.2741 97.7897C79.956 97.8798 80.2946 97.1954 80.0778 95.1496Z"
        fill="#FBC1AE" />
    <path
        d="M84.905 83.6735C84.905 83.6735 83.0979 93.8757 76.7656 94.1583C70.4333 94.4383 79.3691 81.0894 79.3691 81.0894C79.3691 81.0894 89.4374 76.5254 94.8856 81.6764C100.334 86.8274 94.0137 91.394 94.0137 91.394C94.0137 91.394 93.8968 83.5931 84.905 83.6735Z"
        fill="#263238" />
    <path d="M84.7973 82.9646C84.7973 82.9646 85.9882 89.7742 81.1392 92.5044" stroke="#263238" stroke-width="0.5"
        stroke-miterlimit="10" stroke-linecap="round" stroke-linejoin="round" />
    <path d="M79.559 107.264L83.8211 111.45L82.1162 116.582L76.1858 110.052L79.559 107.264Z" fill="#C0C0C0" />
    <path d="M85.7232 108.138L85.0339 111.363L87.243 115.919L88.619 109.999L85.7232 108.138Z" fill="#C0C0C0" />
    <path
        d="M88.5388 116.467C91.476 115.792 94.1842 114.487 96.5028 112.694C96.5564 112.668 96.5978 112.626 96.6514 112.587C96.8268 112.453 96.9875 112.317 97.1629 112.156C96.8925 112.008 96.5442 111.832 96.1253 111.657C93.0664 110.349 90.1706 109.933 90.1706 109.933C90.1706 109.933 90.1828 109.986 90.1974 110.108C90.3167 110.887 90.6796 114.217 88.5388 116.467Z"
        fill="#263238" />
    <path
        d="M69.137 110.943C69.2173 111.024 69.2977 111.104 69.3927 111.187C72.1277 113.842 75.6178 115.741 79.4975 116.562C79.6461 116.589 79.7946 116.616 79.9432 116.642C79.6996 116.467 79.4707 116.265 79.2418 116.063C78.9179 115.78 78.5939 115.483 78.2992 115.159C77.9096 114.77 77.5443 114.351 77.196 113.934C77.0742 113.8 76.9671 113.652 76.8599 113.518C76.6431 113.247 76.4288 112.965 76.2388 112.709C76.0367 112.439 75.8613 112.171 75.686 111.927C75.5106 111.672 75.3499 111.428 75.2159 111.214C74.853 110.649 74.5681 110.191 74.4074 109.879C74.2588 109.636 74.193 109.502 74.193 109.502C74.193 109.502 71.6699 110.093 69.137 110.943Z"
        fill="#263238" />
    <path opacity="0.1"
        d="M69.137 110.943C69.2173 111.024 69.2977 111.104 69.3927 111.187C72.1277 113.842 75.6178 115.741 79.4975 116.562C79.6461 116.589 79.7946 116.616 79.9432 116.642C79.6996 116.467 79.4707 116.265 79.2418 116.063C78.9179 115.78 78.5939 115.483 78.2992 115.159C77.9096 114.77 77.5443 114.351 77.196 113.934C77.0742 113.8 76.9671 113.652 76.8599 113.518C76.6431 113.247 76.4288 112.965 76.2388 112.709C76.0367 112.439 75.8613 112.171 75.686 111.927C75.5106 111.672 75.3499 111.428 75.2159 111.214C74.853 110.649 74.5681 110.191 74.4074 109.879C74.2588 109.636 74.193 109.502 74.193 109.502C74.193 109.502 71.6699 110.093 69.137 110.943Z"
        fill="white" />
    <path opacity="0.6" d="M79.559 107.264L83.8211 111.45L82.1162 116.582L76.1858 110.052L79.559 107.264Z"
        fill="white" />
    <path opacity="0.6" d="M85.7232 108.138L85.0339 111.363L87.243 115.919L88.619 109.999L85.7232 108.138Z"
        fill="white" />
    <g opacity="0.1">
        <path
            d="M88.5388 116.467C91.476 115.792 94.1842 114.487 96.5028 112.694C96.5564 112.668 96.5978 112.626 96.6514 112.587C96.8268 112.453 96.9875 112.317 97.1629 112.156C96.8925 112.008 96.5442 111.832 96.1253 111.657C93.0664 110.349 90.1706 109.933 90.1706 109.933C90.1706 109.933 90.1828 109.986 90.1974 110.108C90.3167 110.887 90.6796 114.217 88.5388 116.467Z"
            fill="white" />
        <path
            d="M69.137 110.943C69.2173 111.024 69.2977 111.104 69.3927 111.187C72.1277 113.842 75.6178 115.741 79.4975 116.562C79.6461 116.589 79.7946 116.616 79.9432 116.642C79.6996 116.467 79.4707 116.265 79.2418 116.063C78.9179 115.78 78.5939 115.483 78.2992 115.159C77.9096 114.77 77.5443 114.351 77.196 113.934C77.0742 113.8 76.9671 113.652 76.8599 113.518C76.6431 113.247 76.4288 112.965 76.2388 112.709C76.0367 112.439 75.8613 112.171 75.686 111.927C75.5106 111.672 75.3499 111.428 75.2159 111.214C74.853 110.649 74.5681 110.191 74.4074 109.879C74.2588 109.636 74.193 109.502 74.193 109.502C74.193 109.502 71.6699 110.093 69.137 110.943Z"
            fill="white" />
    </g>
    <path opacity="0.3"
        d="M86.6171 210.454L192.929 210.861L204.128 214.527V186.413C204.128 182.677 198.379 179.65 191.287 179.65L86.6148 179.243C79.5225 179.243 73.7736 182.271 73.7736 186.006V203.691C73.7759 207.426 79.5248 210.454 86.6171 210.454Z"
        fill="black" />
    <path d="M112.978 188.771H185.763" stroke="white" stroke-miterlimit="10" stroke-linecap="round"
        stroke-linejoin="round" />
    <path d="M112.978 195.012H185.763" stroke="white" stroke-miterlimit="10" stroke-linecap="round"
        stroke-linejoin="round" />
    <path d="M112.978 201.254H157.473" stroke="white" stroke-miterlimit="10" stroke-linecap="round"
        stroke-linejoin="round" />
    <path
        d="M62.9924 189.287C62.9924 195.055 65.3378 200.281 69.1371 204.054C69.2175 204.134 69.2979 204.214 69.3929 204.297C72.1279 206.952 75.618 208.852 79.4977 209.672C79.6463 209.699 79.7948 209.726 79.9434 209.753C80.6716 209.887 81.412 209.996 82.1524 210.05C82.7052 210.091 83.2581 210.118 83.8231 210.118C83.9839 210.118 84.1324 210.118 84.2956 210.106C84.6999 210.106 85.1042 210.079 85.5085 210.052C85.9274 210.025 86.3438 209.972 86.7627 209.904C87.2888 209.836 87.8124 209.743 88.3385 209.621C88.4067 209.621 88.4724 209.594 88.5406 209.58C91.4778 208.905 94.1861 207.6 96.5047 205.807C96.5583 205.78 96.5997 205.739 96.6532 205.7C96.8286 205.566 96.9893 205.43 97.1647 205.269C101.746 201.47 104.656 195.717 104.656 189.29C104.656 177.785 95.3332 168.462 83.828 168.462C72.3154 168.457 62.9924 177.78 62.9924 189.287Z"
        fill="#C0C0C0" />
    <path
        d="M71.7842 185.142C71.7842 185.142 69.2293 194.789 72.4929 197.758C75.7564 200.727 94.064 200.663 96.6991 197.03C99.3368 193.396 93.3601 181.506 93.3601 181.506L71.7842 185.142Z"
        fill="#263238" />
    <path
        d="M69.3926 204.295C72.1276 206.949 75.6177 208.849 79.4974 209.67C79.646 209.697 79.7945 209.723 79.9431 209.75C80.6713 209.884 81.4117 209.994 82.1521 210.047C82.7049 210.089 83.2578 210.116 83.8228 210.116C83.9836 210.116 84.1321 210.116 84.2953 210.103C84.6996 210.103 85.1039 210.077 85.5082 210.05C85.9271 210.023 86.3436 209.969 86.7625 209.901C87.2885 209.833 87.8122 209.74 88.3382 209.619V209.767C88.4064 209.714 88.4722 209.645 88.5403 209.58C91.4775 208.905 94.1858 207.6 96.5044 205.807C96.3972 205.456 96.2608 205.106 96.1269 204.77L96.0587 204.743L95.9637 204.716L95.803 204.662C95.3305 204.514 94.3612 204.205 93.0265 203.869L92.8926 203.842C92.1108 203.64 91.2096 203.423 90.1989 203.221C89.5803 203.099 88.9325 202.977 88.2456 202.87C88.1653 202.855 88.0703 202.829 87.9753 202.829C87.9632 202.829 87.9631 202.829 87.9631 202.829C87.3835 202.721 86.7771 202.641 86.1438 202.558C85.9149 202.531 85.686 202.505 85.457 202.49C84.4999 202.368 83.5159 202.288 82.493 202.234C82.1423 202.222 81.7916 202.208 81.4287 202.208C80.983 202.208 80.5252 202.222 80.0551 202.249C79.4755 202.261 78.8958 202.317 78.3162 202.383C77.8437 202.424 77.3859 202.49 76.928 202.558H76.9133C76.0512 202.68 75.2158 202.829 74.4073 202.989C72.5319 203.379 70.793 203.864 69.3926 204.295Z"
        fill="#C0C0C0" />
    <path opacity="0.6"
        d="M69.3926 204.295C72.1276 206.949 75.6177 208.849 79.4974 209.67C79.646 209.697 79.7945 209.723 79.9431 209.75C80.6713 209.884 81.4117 209.994 82.1521 210.047C82.7049 210.089 83.2578 210.116 83.8228 210.116C83.9836 210.116 84.1321 210.116 84.2953 210.103C84.6996 210.103 85.1039 210.077 85.5082 210.05C85.9271 210.023 86.3436 209.969 86.7625 209.901C87.2885 209.833 87.8122 209.74 88.3382 209.619V209.767C88.4064 209.714 88.4722 209.645 88.5403 209.58C91.4775 208.905 94.1858 207.6 96.5044 205.807C96.3972 205.456 96.2608 205.106 96.1269 204.77L96.0587 204.743L95.9637 204.716L95.803 204.662C95.3305 204.514 94.3612 204.205 93.0265 203.869L92.8926 203.842C92.1108 203.64 91.2096 203.423 90.1989 203.221C89.5803 203.099 88.9325 202.977 88.2456 202.87C88.1653 202.855 88.0703 202.829 87.9753 202.829C87.9632 202.829 87.9631 202.829 87.9631 202.829C87.3835 202.721 86.7771 202.641 86.1438 202.558C85.9149 202.531 85.686 202.505 85.457 202.49C84.4999 202.368 83.5159 202.288 82.493 202.234C82.1423 202.222 81.7916 202.208 81.4287 202.208C80.983 202.208 80.5252 202.222 80.0551 202.249C79.4755 202.261 78.8958 202.317 78.3162 202.383C77.8437 202.424 77.3859 202.49 76.928 202.558H76.9133C76.0512 202.68 75.2158 202.829 74.4073 202.989C72.5319 203.379 70.793 203.864 69.3926 204.295Z"
        fill="white" />
    <path
        d="M94.0108 184.507C94.0108 184.507 95.0921 168.737 81.2074 172.385C63.7815 176.964 73.8425 197.926 82.4203 195.264C90.9981 192.605 94.0108 184.507 94.0108 184.507Z"
        fill="#263238" />
    <path opacity="0.2"
        d="M76.1831 203.162L79.2421 209.171L79.4978 209.67C79.6463 209.697 79.7949 209.723 79.9435 209.75C80.6717 209.884 81.4121 209.994 82.1524 210.047L83.8232 207.824C83.9986 208.525 84.1471 209.292 84.2957 210.101C84.7 210.101 85.1043 210.074 85.5086 210.047C85.3868 208.686 85.2942 207.824 85.2942 207.824L86.7628 209.899C87.2889 209.831 87.8125 209.738 88.3386 209.616L88.6211 203.109C88.4043 203.002 88.19 202.907 87.9733 202.826C87.9611 202.826 87.9611 202.826 87.9611 202.826C87.3133 202.556 86.6411 202.368 85.9664 202.234C85.8179 202.208 85.6693 202.181 85.5207 202.166C84.0789 201.937 82.625 201.949 81.3049 202.086C80.8738 202.127 80.4427 202.181 80.0531 202.247C79.2713 202.354 78.5699 202.502 77.9927 202.651H77.9805C77.0111 202.892 76.3633 203.094 76.2148 203.15L76.1831 203.162Z"
        fill="black" />
    <path
        d="M84.5396 204.763L77.7324 202.839C81.9263 199.95 79.8123 193.496 79.8123 193.496L86.5561 195.866C86.1957 196.986 85.9692 197.936 85.8328 198.747C85.129 202.953 87.0286 203.289 87.0286 203.289L84.5396 204.763Z"
        fill="#FBC1AE" />
    <path opacity="0.2"
        d="M86.5561 195.87C86.1957 196.991 85.9692 197.941 85.8328 198.752C82.6058 197.458 79.8123 193.501 79.8123 193.501L86.5561 195.87Z"
        fill="black" />
    <path
        d="M84.9995 176.316C91.1029 175.919 93.2802 179.061 94.135 185.323C95.2042 193.148 93.8233 198.844 86.0809 197.661C75.5694 196.053 74.8631 176.974 84.9995 176.316Z"
        fill="#FBC1AE" />
    <path
        d="M78.9964 187.037C78.9964 187.037 81.5245 181.837 80.8425 177.992C80.8425 177.992 92.6181 172.266 94.0112 184.504C94.0112 184.504 94.4861 173.525 83.977 173.963C73.4849 174.399 74.5078 189.75 80.2239 193.971C80.2239 193.971 77.4329 190.286 78.9964 187.037Z"
        fill="#263238" />
    <path
        d="M80.0778 188.26C79.9731 187.281 78.8503 185.681 77.0359 186C75.1581 186.328 74.5079 190.272 79.2741 190.9C79.956 190.99 80.2946 190.306 80.0778 188.26Z"
        fill="#FBC1AE" />
    <path
        d="M84.905 176.784C84.905 176.784 83.0979 186.986 76.7656 187.268C70.4333 187.549 79.3691 174.2 79.3691 174.2C79.3691 174.2 89.4374 169.636 94.8856 174.787C100.334 179.938 94.0137 184.504 94.0137 184.504C94.0137 184.504 93.8968 176.703 84.905 176.784Z"
        fill="#263238" />
    <path d="M84.7973 176.075C84.7973 176.075 85.9882 182.884 81.1392 185.615" stroke="#263238" stroke-width="0.5"
        stroke-miterlimit="10" stroke-linecap="round" stroke-linejoin="round" />
    <path d="M79.559 200.374L83.8211 204.56L82.1162 209.692L76.1858 203.162L79.559 200.374Z" fill="#C0C0C0" />
    <path d="M85.7232 201.248L85.0339 204.473L87.243 209.03L88.619 203.109L85.7232 201.248Z" fill="#C0C0C0" />
    <path
        d="M88.5388 209.577C91.476 208.903 94.1842 207.597 96.5028 205.805C96.5564 205.778 96.5978 205.736 96.6514 205.697C96.8268 205.564 96.9875 205.427 97.1629 205.266C96.8925 205.118 96.5442 204.942 96.1253 204.767C93.0664 203.459 90.1706 203.043 90.1706 203.043C90.1706 203.043 90.1828 203.096 90.1974 203.218C90.3167 203.998 90.6796 207.327 88.5388 209.577Z"
        fill="#263238" />
    <path
        d="M69.137 204.054C69.2173 204.134 69.2977 204.214 69.3927 204.297C72.1277 206.952 75.6178 208.851 79.4975 209.672C79.6461 209.699 79.7946 209.726 79.9432 209.753C79.6996 209.577 79.4707 209.375 79.2418 209.173C78.9179 208.89 78.5939 208.593 78.2992 208.269C77.9096 207.88 77.5443 207.461 77.196 207.044C77.0742 206.91 76.9671 206.762 76.8599 206.628C76.6431 206.358 76.4288 206.075 76.2388 205.819C76.0367 205.549 75.8613 205.281 75.686 205.037C75.5106 204.782 75.3499 204.538 75.2159 204.324C74.853 203.759 74.5681 203.301 74.4074 202.989C74.2588 202.746 74.193 202.612 74.193 202.612C74.193 202.612 71.6699 203.204 69.137 204.054Z"
        fill="#263238" />
    <path opacity="0.1"
        d="M69.137 204.054C69.2173 204.134 69.2977 204.214 69.3927 204.297C72.1277 206.952 75.6178 208.851 79.4975 209.672C79.6461 209.699 79.7946 209.726 79.9432 209.753C79.6996 209.577 79.4707 209.375 79.2418 209.173C78.9179 208.89 78.5939 208.593 78.2992 208.269C77.9096 207.88 77.5443 207.461 77.196 207.044C77.0742 206.91 76.9671 206.762 76.8599 206.628C76.6431 206.358 76.4288 206.075 76.2388 205.819C76.0367 205.549 75.8613 205.281 75.686 205.037C75.5106 204.782 75.3499 204.538 75.2159 204.324C74.853 203.759 74.5681 203.301 74.4074 202.989C74.2588 202.746 74.193 202.612 74.193 202.612C74.193 202.612 71.6699 203.204 69.137 204.054Z"
        fill="white" />
    <path opacity="0.6" d="M79.559 200.374L83.8211 204.56L82.1162 209.692L76.1858 203.162L79.559 200.374Z"
        fill="white" />
    <path opacity="0.6" d="M85.7232 201.248L85.0339 204.473L87.243 209.03L88.619 203.109L85.7232 201.248Z"
        fill="white" />
    <g opacity="0.1">
        <path
            d="M88.5388 209.577C91.476 208.903 94.1842 207.597 96.5028 205.805C96.5564 205.778 96.5978 205.736 96.6514 205.697C96.8268 205.564 96.9875 205.427 97.1629 205.266C96.8925 205.118 96.5442 204.942 96.1253 204.767C93.0664 203.459 90.1706 203.043 90.1706 203.043C90.1706 203.043 90.1828 203.096 90.1974 203.218C90.3167 203.998 90.6796 207.327 88.5388 209.577Z"
            fill="white" />
        <path
            d="M69.137 204.054C69.2173 204.134 69.2977 204.214 69.3927 204.297C72.1277 206.952 75.6178 208.851 79.4975 209.672C79.6461 209.699 79.7946 209.726 79.9432 209.753C79.6996 209.577 79.4707 209.375 79.2418 209.173C78.9179 208.89 78.5939 208.593 78.2992 208.269C77.9096 207.88 77.5443 207.461 77.196 207.044C77.0742 206.91 76.9671 206.762 76.8599 206.628C76.6431 206.358 76.4288 206.075 76.2388 205.819C76.0367 205.549 75.8613 205.281 75.686 205.037C75.5106 204.782 75.3499 204.538 75.2159 204.324C74.853 203.759 74.5681 203.301 74.4074 202.989C74.2588 202.746 74.193 202.612 74.193 202.612C74.193 202.612 71.6699 203.204 69.137 204.054Z"
            fill="white" />
    </g>
    <path
        d="M324.579 163.409L218.267 163.816L207.068 167.481V139.368C207.068 135.632 212.817 132.604 219.909 132.604L324.581 132.198C331.673 132.198 337.422 135.225 337.422 138.961V156.646C337.42 160.381 331.671 163.409 324.579 163.409Z"
        fill="#00D29E" />
    <path d="M220.79 141.725H300.178" stroke="white" stroke-miterlimit="10" stroke-linecap="round"
        stroke-linejoin="round" />
    <path d="M220.79 147.967H300.178" stroke="white" stroke-miterlimit="10" stroke-linecap="round"
        stroke-linejoin="round" />
    <path d="M220.79 154.208H269.322" stroke="white" stroke-miterlimit="10" stroke-linecap="round"
        stroke-linejoin="round" />
    <path
        d="M348.643 142.709C348.643 149.283 345.68 155.16 340.998 159.045L340.475 159.493C340.425 159.518 340.375 159.568 340.326 159.593C340.251 159.643 340.201 159.693 340.126 159.742C337.81 161.51 335.096 162.78 332.182 163.453C332.108 163.453 332.033 163.503 331.958 163.503C331.435 163.627 330.887 163.702 330.364 163.777C329.941 163.851 329.493 163.901 329.069 163.926C328.671 163.951 328.248 163.976 327.849 163.976C327.675 164.001 327.525 164.001 327.351 164.001C326.778 164.001 326.206 163.976 325.658 163.926C324.886 163.876 324.139 163.777 323.392 163.627L322.943 163.552C319.606 162.855 316.568 161.361 314.028 159.294C313.53 158.92 313.057 158.497 312.608 158.049C312.509 157.974 312.434 157.875 312.335 157.8C308.45 153.94 306.059 148.611 306.059 142.709C306.059 130.929 315.597 121.416 327.351 121.416C339.13 121.416 348.643 130.929 348.643 142.709Z"
        fill="white" />
    <path d="M333.139 152.219H321.265V158.784H333.139V152.219Z" fill="#263238" />
    <path opacity="0.3" d="M333.139 152.219H321.265V158.784H333.139V152.219Z" fill="white" />
    <path opacity="0.2" d="M333.139 154.488H321.265V154.814H333.139V154.488Z" fill="black" />
    <path opacity="0.2" d="M333.139 155.922H321.265V156.248H333.139V155.922Z" fill="black" />
    <path opacity="0.2" d="M333.139 157.352H321.265V157.678H333.139V157.352Z" fill="black" />
    <path opacity="0.2" d="M333.139 152.219V153.885C330.116 154.968 325.118 156.5 321.265 156.363V152.219H333.139Z"
        fill="black" />
    <path
        d="M338.052 133.515H329.884H320.956H317.28C314.773 133.515 312.741 135.547 312.741 138.054V149.689C312.741 152.197 314.773 154.229 317.28 154.229H320.956H329.884H338.052C340.56 154.229 342.592 152.197 342.592 149.689V138.054C342.594 135.547 340.56 133.515 338.052 133.515Z"
        fill="#00D29E" />
    <path opacity="0.2"
        d="M338.052 133.517H329.884C332.392 133.517 334.426 135.546 334.426 138.054V149.691C334.426 152.199 332.392 154.229 329.884 154.229H338.052C340.56 154.229 342.595 152.199 342.595 149.691V138.054C342.595 135.546 340.56 133.517 338.052 133.517Z"
        fill="black" />
    <path
        d="M329.637 135.519H317.285C315.751 135.519 314.509 136.762 314.509 138.296V149.445C314.509 150.979 315.751 152.222 317.285 152.222H329.637C331.171 152.222 332.414 150.979 332.414 149.445V138.296C332.414 136.765 331.171 135.519 329.637 135.519Z"
        fill="#263238" />
    <path
        d="M339.943 141.606C339.771 141.606 339.631 141.466 339.631 141.294V127.767C339.631 127.595 339.771 127.456 339.943 127.456C340.114 127.456 340.254 127.595 340.254 127.767V141.294C340.254 141.466 340.114 141.606 339.943 141.606Z"
        fill="#263238" />
    <path
        d="M343.645 143.872C343.645 144.619 343.491 145.319 343.217 145.934C343.013 146.407 342.734 146.828 342.405 147.179C341.753 147.881 340.889 148.302 339.942 148.302C337.9 148.302 336.242 146.322 336.242 143.869C336.242 141.424 337.9 139.439 339.942 139.439C340.894 139.439 341.755 139.867 342.418 140.57C342.744 140.921 343.018 141.342 343.222 141.815C343.488 142.43 343.645 143.132 343.645 143.872Z"
        fill="#00D29E" />
    <g opacity="0.4">
        <path
            d="M341.223 147.052C339.773 147.052 338.595 145.627 338.595 143.869C338.595 142.116 339.771 140.692 341.223 140.692C342.022 140.692 342.742 141.13 343.22 141.815C343.016 141.342 342.742 140.921 342.415 140.57C342.047 140.385 341.648 140.283 341.223 140.283C339.549 140.283 338.187 141.892 338.187 143.869C338.187 145.852 339.547 147.46 341.223 147.46C341.643 147.46 342.039 147.363 342.403 147.179C342.734 146.828 343.011 146.407 343.215 145.934C342.737 146.619 342.022 147.052 341.223 147.052Z"
            fill="black" />
    </g>
    <path
        d="M327.667 141.302C327.667 142.019 327.346 142.602 326.95 142.602C326.554 142.602 326.233 142.019 326.233 141.302C326.233 140.584 326.554 140.002 326.95 140.002C327.346 140.002 327.667 140.584 327.667 141.302Z"
        fill="white" />
    <path
        d="M319.206 142.594C319.602 142.594 319.923 142.012 319.923 141.294C319.923 140.576 319.602 139.994 319.206 139.994C318.809 139.994 318.488 140.576 318.488 141.294C318.488 142.012 318.809 142.594 319.206 142.594Z"
        fill="white" />
    <path opacity="0.4"
        d="M323.038 147.328C323.86 148.123 325.003 149.761 325.003 149.761C325.17 149.684 325.337 149.607 325.501 149.522C327.742 148.422 328.42 147.169 328.489 146.118C328.524 145.543 328.372 145.02 328.196 144.621C327.996 144.158 327.747 143.872 327.747 143.872C326.908 145.167 324.896 146.352 323.795 146.942C323.337 147.191 323.038 147.328 323.038 147.328Z"
        fill="white" />
    <path
        d="M323.797 146.94L324.395 147.642C326.504 146.601 327.849 145.583 328.198 144.619C327.999 144.156 327.75 143.869 327.75 143.869C326.908 145.164 324.898 146.352 323.797 146.94Z"
        fill="white" />
    <path
        d="M325.501 149.522C327.742 148.422 328.42 147.169 328.49 146.118C327.74 146.522 326.881 147.094 326.241 147.834C325.753 148.397 325.561 148.987 325.501 149.522Z"
        fill="#00D29E" />
    <path
        d="M340.126 159.742C337.81 161.51 335.096 162.78 332.182 163.453C332.107 163.453 332.033 163.503 331.958 163.503C331.435 163.627 330.887 163.702 330.364 163.777C329.941 163.851 329.493 163.901 329.069 163.926C328.671 163.951 328.247 163.976 327.849 163.976C327.675 164.001 327.525 164.001 327.351 164.001C326.778 164.001 326.205 163.976 325.657 163.926C324.885 163.876 324.138 163.777 323.391 163.627L322.943 163.552C319.606 162.855 316.568 161.361 314.028 159.294C314.999 158.547 316.219 158.099 317.539 158.099H336.142C337.686 158.099 339.08 158.721 340.126 159.742Z"
        fill="#00D29E" />
    <g clip-path="url(#clip0_0_1)">
        <path
            d="M91.7773 136.118H50.451C48.7165 136.118 47.3107 137.529 47.3107 139.271V151.444C47.3107 153.185 48.7165 154.596 50.451 154.596H69.1925L72.0666 160.532V154.596H91.7773C93.5117 154.596 94.9175 153.185 94.9175 151.444V139.271C94.9175 137.529 93.5117 136.118 91.7773 136.118Z"
            fill="#B3B3B3" />
        <path
            d="M57.5322 142.801V147.974H56.9283L54.1202 143.912H54.0698V147.974H53.4458V142.801H54.0497L56.8679 146.873H56.9182V142.801H57.5322ZM60.3207 148.055C59.9483 148.055 59.6271 147.972 59.3571 147.807C59.0887 147.641 58.8815 147.408 58.7356 147.11C58.5913 146.81 58.5191 146.462 58.5191 146.064C58.5191 145.667 58.5913 145.317 58.7356 145.014C58.8815 144.709 59.0844 144.471 59.3445 144.301C59.6062 144.129 59.9115 144.043 60.2603 144.043C60.4617 144.043 60.6604 144.077 60.8567 144.144C61.053 144.212 61.2316 144.321 61.3927 144.473C61.5537 144.623 61.682 144.822 61.7776 145.069C61.8733 145.317 61.9211 145.621 61.9211 145.983V146.236H58.9418V145.721H61.3172C61.3172 145.502 61.2736 145.307 61.1864 145.135C61.1008 144.963 60.9784 144.827 60.819 144.728C60.6613 144.629 60.4751 144.579 60.2603 144.579C60.0238 144.579 59.8192 144.638 59.6464 144.756C59.4753 144.872 59.3436 145.024 59.2513 145.211C59.1591 145.397 59.113 145.598 59.113 145.812V146.155C59.113 146.448 59.1633 146.697 59.2639 146.901C59.3663 147.103 59.508 147.257 59.6892 147.363C59.8704 147.467 60.0809 147.519 60.3207 147.519C60.4768 147.519 60.6177 147.498 60.7435 147.454C60.871 147.408 60.9809 147.341 61.0731 147.252C61.1653 147.161 61.2367 147.048 61.287 146.913L61.8607 147.075C61.8003 147.27 61.6988 147.442 61.5562 147.59C61.4137 147.737 61.2375 147.851 61.0278 147.934C60.8181 148.015 60.5824 148.055 60.3207 148.055ZM64.4448 148.055C64.0724 148.055 63.7512 147.972 63.4812 147.807C63.2127 147.641 63.0056 147.408 62.8596 147.11C62.7154 146.81 62.6433 146.462 62.6433 146.064C62.6433 145.667 62.7154 145.317 62.8596 145.014C63.0056 144.709 63.2085 144.471 63.4686 144.301C63.7303 144.129 64.0355 144.043 64.3844 144.043C64.5858 144.043 64.7846 144.077 64.9808 144.144C65.1771 144.212 65.3557 144.321 65.5167 144.473C65.6778 144.623 65.8062 144.822 65.9017 145.069C65.9974 145.317 66.0452 145.621 66.0452 145.983V146.236H63.066V145.721H65.4413C65.4413 145.502 65.3977 145.307 65.3105 145.135C65.2249 144.963 65.1025 144.827 64.943 144.728C64.7854 144.629 64.5992 144.579 64.3844 144.579C64.1479 144.579 63.9433 144.638 63.7705 144.756C63.5994 144.872 63.4677 145.024 63.3754 145.211C63.2832 145.397 63.237 145.598 63.237 145.812V146.155C63.237 146.448 63.2874 146.697 63.388 146.901C63.4904 147.103 63.6321 147.257 63.8133 147.363C63.9944 147.467 64.2049 147.519 64.4448 147.519C64.6009 147.519 64.7418 147.498 64.8676 147.454C64.9951 147.408 65.105 147.341 65.1972 147.252C65.2894 147.161 65.3608 147.048 65.4111 146.913L65.9848 147.075C65.9244 147.27 65.8229 147.442 65.6803 147.59C65.5378 147.737 65.3616 147.851 65.1519 147.934C64.9422 148.015 64.7065 148.055 64.4448 148.055ZM68.4079 148.055C68.0859 148.055 67.8015 147.973 67.5549 147.81C67.3083 147.645 67.1154 147.412 66.9762 147.113C66.837 146.811 66.7674 146.455 66.7674 146.044C66.7674 145.637 66.837 145.283 66.9762 144.983C67.1154 144.683 67.3092 144.452 67.5574 144.288C67.8057 144.125 68.0925 144.043 68.4179 144.043C68.6696 144.043 68.8684 144.086 69.0143 144.17C69.1619 144.252 69.2744 144.347 69.3515 144.453C69.4303 144.557 69.4916 144.643 69.5352 144.71H69.5855V142.801H70.1794V147.974H69.6057V147.378H69.5352C69.4916 147.449 69.4295 147.538 69.349 147.646C69.2685 147.752 69.1536 147.847 69.0042 147.931C68.855 148.014 68.6562 148.055 68.4079 148.055ZM68.4884 147.519C68.7266 147.519 68.928 147.457 69.0923 147.332C69.2567 147.206 69.3817 147.032 69.4673 146.81C69.5528 146.586 69.5956 146.327 69.5956 146.034C69.5956 145.744 69.5536 145.491 69.4698 145.274C69.3859 145.055 69.2618 144.885 69.0974 144.763C68.933 144.64 68.73 144.579 68.4884 144.579C68.2368 144.579 68.0271 144.644 67.8594 144.773C67.6933 144.901 67.5684 145.076 67.4844 145.296C67.4022 145.515 67.3611 145.761 67.3611 146.034C67.3611 146.31 67.4031 146.561 67.487 146.787C67.5725 147.011 67.6983 147.189 67.8644 147.322C68.0322 147.454 68.2402 147.519 68.4884 147.519ZM73.4227 147.974V142.801H74.0468V145.104H76.7945V142.801H77.4185V147.974H76.7945V145.66H74.0468V147.974H73.4227ZM80.2077 148.055C79.8353 148.055 79.5141 147.972 79.244 147.807C78.9756 147.641 78.7685 147.408 78.6225 147.11C78.4783 146.81 78.4062 146.462 78.4062 146.064C78.4062 145.667 78.4783 145.317 78.6225 145.014C78.7685 144.709 78.9714 144.471 79.2315 144.301C79.4931 144.129 79.7984 144.043 80.1474 144.043C80.3487 144.043 80.5475 144.077 80.7437 144.144C80.94 144.212 81.1186 144.321 81.2796 144.473C81.4407 144.623 81.5691 144.822 81.6646 145.069C81.7603 145.317 81.8081 145.621 81.8081 145.983V146.236H78.8289V145.721H81.2041C81.2041 145.502 81.1605 145.307 81.0733 145.135C80.9878 144.963 80.8653 144.827 80.7059 144.728C80.5482 144.629 80.3621 144.579 80.1474 144.579C79.9109 144.579 79.7062 144.638 79.5334 144.756C79.3623 144.872 79.2306 145.024 79.1384 145.211C79.0461 145.397 78.9999 145.598 78.9999 145.812V146.155C78.9999 146.448 79.0503 146.697 79.151 146.901C79.2533 147.103 79.395 147.257 79.5762 147.363C79.7573 147.467 79.9679 147.519 80.2077 147.519C80.3638 147.519 80.5046 147.498 80.6304 147.454C80.758 147.408 80.8678 147.341 80.9601 147.252C81.0524 147.161 81.1237 147.048 81.174 146.913L81.7477 147.075C81.6873 147.27 81.5858 147.442 81.4433 147.59C81.3007 147.737 81.1245 147.851 80.9148 147.934C80.7052 148.015 80.4694 148.055 80.2077 148.055ZM83.3052 142.801V147.974H82.7114V142.801H83.3052ZM84.3929 149.429V144.094H84.9666V144.71H85.037C85.0807 144.643 85.141 144.557 85.2182 144.453C85.297 144.347 85.4094 144.252 85.5554 144.17C85.703 144.086 85.9026 144.043 86.1542 144.043C86.4797 144.043 86.7665 144.125 87.0148 144.288C87.263 144.452 87.4568 144.683 87.596 144.983C87.7353 145.283 87.8049 145.637 87.8049 146.044C87.8049 146.455 87.7353 146.811 87.596 147.113C87.4568 147.412 87.2639 147.645 87.0173 147.81C86.7707 147.973 86.4864 148.055 86.1643 148.055C85.9161 148.055 85.7173 148.014 85.5679 147.931C85.4186 147.847 85.3038 147.752 85.2232 147.646C85.1427 147.538 85.0807 147.449 85.037 147.378H84.9867V149.429H84.3929ZM84.9766 146.034C84.9766 146.327 85.0194 146.586 85.105 146.81C85.1905 147.032 85.3155 147.206 85.4799 147.332C85.6443 147.457 85.8456 147.519 86.0837 147.519C86.3321 147.519 86.5392 147.454 86.7052 147.322C86.873 147.189 86.9988 147.011 87.0827 146.787C87.1683 146.561 87.211 146.31 87.211 146.034C87.211 145.761 87.1691 145.515 87.0852 145.296C87.003 145.076 86.8781 144.901 86.7103 144.773C86.5442 144.644 86.3354 144.579 86.0837 144.579C85.8422 144.579 85.6392 144.64 85.4749 144.763C85.3105 144.885 85.1863 145.055 85.1025 145.274C85.0185 145.491 84.9766 145.744 84.9766 146.034Z"
            fill="white" />
    </g>
    <path
        d="M34.9543 99.0505C33.2505 93.3382 27.2389 90.0886 21.527 91.7922C15.8152 93.4959 12.566 99.5078 14.2699 105.22C15.115 108.054 17.0203 110.28 19.4228 111.598L19.4225 111.598C19.4225 111.598 23.5508 114.012 25.696 117.346C25.696 117.346 27.6861 117.42 29.0601 117.048C30.4137 116.607 32.0377 115.454 32.0377 115.454C32.0064 111.49 34.1378 107.209 34.1378 107.209L34.1374 107.209C35.4255 104.791 35.7994 101.884 34.9543 99.0505Z"
        fill="#00D29E" fill-opacity="0.4" />
    <path
        d="M30.6771 122.478C29.7892 122.743 28.8549 122.238 28.59 121.35L31.8051 120.391C32.0699 121.279 31.5649 122.213 30.6771 122.478Z"
        fill="#4E4D4D" />
    <path
        d="M30.3292 121.311C28.4251 121.878 26.4211 120.795 25.8532 118.891L25.1709 116.604L32.0663 114.547L32.7485 116.834C33.3165 118.739 32.2333 120.743 30.3292 121.311Z"
        fill="#4E4D4D" />
    <g opacity="0.3">
        <path
            d="M34.9544 99.0505C34.3232 96.9342 33.1006 95.1561 31.5213 93.8425C30.7196 102.198 27.3908 108.651 21.0218 112.668C22.2394 113.555 23.915 114.938 25.1756 116.603L32.0662 114.547L32.0663 114.548C32.3179 110.865 34.1379 107.209 34.1379 107.209L34.1374 107.209C35.4256 104.791 35.7996 101.884 34.9544 99.0505Z"
            fill="#00D29E" fill-opacity="0.4" />
    </g>
    <path
        d="M30.3228 115.111L30.0026 115.119C30.0017 115.081 29.9084 111.246 29.4938 107.414C28.7745 100.765 27.7083 99.6271 27.1368 99.5407C26.5525 99.4525 26.1625 99.6158 25.9774 100.027C25.964 100.056 25.9517 100.087 25.9406 100.119C26.7906 100.33 27.161 100.933 27.2817 101.185C27.6146 101.883 27.5052 102.711 27.0378 103.031C26.9246 103.109 26.6899 103.201 26.3877 102.948C25.9077 102.547 25.4315 101.327 25.5531 100.383C25.1542 100.344 24.6981 100.395 24.2025 100.543L23.904 100.632C23.4084 100.78 22.9984 100.987 22.6862 101.238C23.3052 101.961 23.5748 103.243 23.3934 103.841C23.2791 104.218 23.0323 104.27 22.8949 104.267C22.3284 104.255 21.7832 103.622 21.6796 102.856C21.6421 102.579 21.6218 101.871 22.2174 101.23C22.1908 101.209 22.1636 101.19 22.1359 101.172C21.7562 100.93 21.3401 101.007 20.8999 101.401C20.4691 101.786 20.2004 103.322 23.2411 109.279C24.9936 112.712 27.016 115.971 27.0362 116.004L26.7643 116.173C26.744 116.14 24.7154 112.871 22.9568 109.426C20.5291 104.671 19.7864 101.967 20.6865 101.162C21.3849 100.538 21.9538 100.676 22.3082 100.902C22.3579 100.934 22.4061 100.969 22.4529 101.008C22.7687 100.746 23.2068 100.506 23.8124 100.325L24.1109 100.236C24.7165 100.056 25.2145 100.016 25.6221 100.062C25.6401 100.005 25.6612 99.9488 25.6855 99.8949C25.858 99.5116 26.2582 99.0841 27.1846 99.2241C28.3786 99.4045 29.2382 102.073 29.8123 107.381C30.2283 111.227 30.3219 115.073 30.3228 115.111ZM22.4508 101.456C22.0906 101.84 21.9283 102.306 21.9969 102.813C22.0873 103.482 22.5377 103.939 22.9016 103.947C22.9355 103.948 23.0258 103.95 23.0868 103.749C23.2423 103.236 22.9797 102.082 22.4508 101.456ZM25.8691 100.436C25.7701 101.25 26.1823 102.359 26.5931 102.703C26.7545 102.838 26.8287 102.786 26.8567 102.767C27.157 102.561 27.2832 101.932 26.9926 101.323C26.772 100.861 26.3813 100.561 25.8691 100.436Z"
        fill="#00D29E" />
    <path
        d="M25.1422 116.691C24.9894 116.48 24.9265 116.405 24.7886 116.24L24.7134 116.15C22.5225 113.519 19.4131 111.686 19.382 111.668L19.3723 111.662C16.8538 110.277 15.0148 107.998 14.1932 105.243C12.4794 99.4975 15.7591 93.4291 21.5041 91.7155C25.0313 90.6634 28.8184 91.455 31.6346 93.833L31.5313 93.9554C28.7566 91.6123 25.0252 90.8324 21.5499 91.869C15.8895 93.5573 12.6581 99.5364 14.3466 105.197C15.1574 107.916 16.9738 110.164 19.4612 111.528L19.5914 111.599L19.5847 111.603C20.1852 111.972 22.8754 113.693 24.8364 116.048L24.9114 116.137C25.0517 116.305 25.1158 116.382 25.2719 116.598L25.1422 116.691Z"
        fill="#21111D" />
    <path
        d="M15.9651 99.5146L15.8051 99.5158C15.8048 99.4879 15.8101 96.7141 18.0974 94.9895L18.1938 95.1174C15.9724 96.7922 15.9649 99.4875 15.9651 99.5146Z"
        fill="#21111D" />
    <path
        d="M16.7137 100.294L16.5536 100.295C16.5534 100.267 16.5586 97.4931 18.846 95.7685L18.9424 95.8963C16.7209 97.5713 16.7134 100.267 16.7137 100.294Z"
        fill="#21111D" />
    <path
        d="M30.7277 121.275L29.976 121.499C28.2399 122.017 26.4061 121.026 25.8882 119.29L25.0711 116.55L32.0432 114.471L32.089 114.624L25.2703 116.658L26.0416 119.244C26.5343 120.896 28.2787 121.839 29.9302 121.346L30.6819 121.122C31.4727 120.886 32.1275 120.358 32.5257 119.635L32.6659 119.713C32.2473 120.472 31.559 121.027 30.7277 121.275Z"
        fill="#21111D" />
    <path
        d="M30.7448 122.542C29.2504 122.988 28.6023 121.602 28.5957 121.588L28.7415 121.522C28.7659 121.575 29.3555 122.824 30.7487 122.373L30.7979 122.526C30.7801 122.531 30.7623 122.537 30.7448 122.542Z"
        fill="#21111D" />
    <path
        d="M33.4309 105.81L33.3028 105.714C34.3657 104.294 34.0761 102.539 34.0731 102.522L34.2309 102.494C34.234 102.512 34.5363 104.333 33.4309 105.81Z"
        fill="#21111D" />
    <path
        d="M32.9094 105.163L32.7812 105.067C33.5558 104.032 33.3451 102.752 33.3429 102.739L33.5007 102.712C33.5103 102.767 33.7265 104.072 32.9094 105.163Z"
        fill="#21111D" />
    <path
        d="M25.2654 118.077L25.2178 117.924C25.2761 117.906 31.0676 116.097 32.7041 114.861L32.8007 114.989C31.1419 116.241 25.5046 118.003 25.2654 118.077Z"
        fill="#21111D" />
    <path
        d="M25.6525 119.373L25.6039 119.22C25.6671 119.2 31.9391 117.193 32.93 116.209L33.0429 116.323C32.0248 117.334 25.9122 119.29 25.6525 119.373Z"
        fill="#21111D" />
    <path
        d="M26.3656 120.608L26.3185 120.455C26.3753 120.438 32.0192 118.689 33.3019 117.453L33.413 117.569C32.103 118.831 26.5992 120.536 26.3656 120.608Z"
        fill="#21111D" />
    <path
        d="M11.1476 104.378C11.1411 104.38 11.1345 104.382 11.1277 104.383L7.37493 105.164C7.24502 105.191 7.11781 105.107 7.09088 104.977C7.06379 104.848 7.14742 104.721 7.27712 104.693L11.0299 103.913C11.1599 103.886 11.287 103.97 11.314 104.099C11.3394 104.222 11.2659 104.343 11.1476 104.378Z"
        fill="#00D29E" />
    <path
        d="M11.3015 97.9826C11.2567 97.9959 11.2076 97.9964 11.1597 97.981L7.50954 96.8108C7.38319 96.7703 7.31368 96.635 7.35413 96.5088C7.39458 96.3825 7.52967 96.3129 7.65617 96.3534L11.3063 97.5236C11.4325 97.5641 11.5021 97.6993 11.4616 97.8257C11.4366 97.9041 11.3749 97.9606 11.3015 97.9826Z"
        fill="#00D29E" />
    <path
        d="M15.5324 92.1655C15.4416 92.1926 15.3393 92.164 15.2763 92.0855L12.8787 89.0945C12.7957 88.9911 12.8124 88.8399 12.9159 88.7569C13.0192 88.6739 13.1705 88.6905 13.2535 88.7941L15.6511 91.7851C15.7341 91.8885 15.7174 92.0397 15.6139 92.1227C15.589 92.1426 15.5613 92.1568 15.5324 92.1655Z"
        fill="#00D29E" />
    <path
        d="M37.1192 97.354C36.999 97.3899 36.87 97.3267 36.8256 97.2074C36.7794 97.0831 36.8428 96.9448 36.9671 96.8986L40.5601 95.5633C40.6834 95.5175 40.8226 95.5805 40.8688 95.7048C40.9151 95.8291 40.8517 95.9674 40.7273 96.0136L37.1344 97.3489C37.1294 97.3507 37.1243 97.3524 37.1192 97.354Z"
        fill="#00D29E" />
    <path
        d="M33.5874 92.0195C33.5124 92.0419 33.428 92.0272 33.3638 91.9731C33.2624 91.8877 33.2493 91.7361 33.3348 91.6347L35.8035 88.7023C35.8888 88.6009 36.0406 88.5879 36.1418 88.6732C36.2433 88.7586 36.2563 88.9102 36.1708 89.0117L33.7022 91.9441C33.671 91.9813 33.6307 92.0067 33.5874 92.0195Z"
        fill="#00D29E" />
    <path
        d="M27.4585 88.5936C27.4282 88.6027 27.3957 88.6058 27.3624 88.6019C27.2306 88.5867 27.1361 88.4676 27.1513 88.3358L27.5909 84.5278C27.6062 84.396 27.7255 84.3017 27.857 84.3167C27.9888 84.332 28.0833 84.4511 28.0681 84.5829L27.6285 88.3909C27.6172 88.4893 27.5478 88.567 27.4585 88.5936Z"
        fill="#00D29E" />
    <path
        d="M21.0253 88.5659C21.0241 88.5663 21.0229 88.5666 21.0217 88.567C20.894 88.6029 20.7613 88.5285 20.7253 88.4009L19.6863 84.711C19.6507 84.5845 19.7234 84.4532 19.8488 84.4157C19.85 84.4153 19.8512 84.415 19.8524 84.4147C19.9801 84.3788 20.1128 84.4531 20.1488 84.5808L21.1878 88.2707C21.2234 88.3972 21.1507 88.5285 21.0253 88.5659Z"
        fill="#00D29E" />
    <g opacity="0.5">
        <path opacity="0.5"
            d="M30.0664 95.0771C29.872 95.747 28.5773 95.9599 27.1747 95.5526C25.772 95.1454 24.7926 94.2721 24.9872 93.6022C25.1816 92.9324 26.4763 92.7194 27.8789 93.1268C29.2814 93.534 30.2608 94.4073 30.0664 95.0771Z"
            fill="#F3FFFE" />
    </g>
    <defs>
        <linearGradient id="paint0_linear_0_1" x1="26.655" y1="241.969" x2="402.798" y2="241.969"
            gradientUnits="userSpaceOnUse">
            <stop stop-color="#2C2C32" />
            <stop offset="1" stop-color="#525255" />
        </linearGradient>
        <clipPath id="clip0_0_1">
            <rect width="48.0252" height="24.5027" fill="white" transform="translate(47.3108 136.118)" />
        </clipPath>
    </defs>
</svg>