<svg width="16" height="11" viewBox="0 0 16 11" fill="none" xmlns="http://www.w3.org/2000/svg">
<path fill-rule="evenodd" clip-rule="evenodd" d="M5.707 10.2072C5.51947 10.3946 5.26516 10.4999 5 10.4999C4.73484 10.4999 4.48053 10.3946 4.293 10.2072L0.293 6.20716C0.105529 6.01964 0.000213623 5.76533 0.000213623 5.50016C0.000213623 5.235 0.105529 4.98069 0.293 4.79316L4.293 0.793163C4.4816 0.611005 4.7342 0.510211 4.9964 0.512489C5.2586 0.514767 5.50941 0.619937 5.69482 0.805345C5.88023 0.990753 5.9854 1.24157 5.98767 1.50376C5.98995 1.76596 5.88916 2.01856 5.707 2.20716L3.414 4.50016H15C15.2652 4.50016 15.5196 4.60552 15.7071 4.79306C15.8946 4.98059 16 5.23495 16 5.50016C16 5.76538 15.8946 6.01973 15.7071 6.20727C15.5196 6.39481 15.2652 6.50016 15 6.50016H3.414L5.707 8.79316C5.89447 8.98069 5.99979 9.235 5.99979 9.50016C5.99979 9.76533 5.89447 10.0196 5.707 10.2072Z" fill="#00D29E"/>
</svg>
