<svg width="18" height="18" viewBox="0 0 18 18" fill="none" xmlns="http://www.w3.org/2000/svg">
<path fill-rule="evenodd" clip-rule="evenodd" d="M5.40005 1.7998C5.16135 1.7998 4.93244 1.89463 4.76365 2.06341C4.59487 2.23219 4.50005 2.46111 4.50005 2.6998V3.5998H3.60005C3.12266 3.5998 2.66482 3.78945 2.32726 4.12701C1.98969 4.46458 1.80005 4.92242 1.80005 5.3998V14.3998C1.80005 14.8772 1.98969 15.335 2.32726 15.6726C2.66482 16.0102 3.12266 16.1998 3.60005 16.1998H14.4C14.8774 16.1998 15.3353 16.0102 15.6728 15.6726C16.0104 15.335 16.2 14.8772 16.2 14.3998V5.3998C16.2 4.92242 16.0104 4.46458 15.6728 4.12701C15.3353 3.78945 14.8774 3.5998 14.4 3.5998H13.5V2.6998C13.5 2.46111 13.4052 2.23219 13.2364 2.06341C13.0677 1.89463 12.8387 1.7998 12.6 1.7998C12.3614 1.7998 12.1324 1.89463 11.9637 2.06341C11.7949 2.23219 11.7 2.46111 11.7 2.6998V3.5998H6.30005V2.6998C6.30005 2.46111 6.20523 2.23219 6.03645 2.06341C5.86766 1.89463 5.63874 1.7998 5.40005 1.7998ZM5.40005 6.2998C5.16135 6.2998 4.93244 6.39463 4.76365 6.56341C4.59487 6.73219 4.50005 6.96111 4.50005 7.1998C4.50005 7.4385 4.59487 7.66742 4.76365 7.8362C4.93244 8.00498 5.16135 8.0998 5.40005 8.0998H12.6C12.8387 8.0998 13.0677 8.00498 13.2364 7.8362C13.4052 7.66742 13.5 7.4385 13.5 7.1998C13.5 6.96111 13.4052 6.73219 13.2364 6.56341C13.0677 6.39463 12.8387 6.2998 12.6 6.2998H5.40005Z" fill="#00CC99"/>
</svg>
