<svg width="20" height="21" viewBox="0 0 20 21" fill="none" xmlns="http://www.w3.org/2000/svg">
<path d="M2 3.50006C2 3.23484 2.10536 2.98049 2.29289 2.79295C2.48043 2.60542 2.73478 2.50006 3 2.50006H5.153C5.38971 2.50017 5.6187 2.58424 5.79924 2.73732C5.97979 2.8904 6.10018 3.10256 6.139 3.33606L6.879 7.77106C6.91436 7.98228 6.88097 8.19927 6.78376 8.39009C6.68655 8.58091 6.53065 8.73549 6.339 8.83106L4.791 9.60406C5.34611 10.9797 6.17283 12.2293 7.22178 13.2783C8.27072 14.3272 9.52035 15.154 10.896 15.7091L11.67 14.1611C11.7655 13.9696 11.9199 13.8138 12.1106 13.7166C12.3012 13.6194 12.5179 13.5859 12.729 13.6211L17.164 14.3611C17.3975 14.3999 17.6097 14.5203 17.7627 14.7008C17.9158 14.8814 17.9999 15.1104 18 15.3471V17.5001C18 17.7653 17.8946 18.0196 17.7071 18.2072C17.5196 18.3947 17.2652 18.5001 17 18.5001H15C7.82 18.5001 2 12.6801 2 5.50006V3.50006Z" fill="white"/>
<path d="M16.707 3.79306C16.8945 3.98059 16.9998 4.2349 16.9998 4.50006C16.9998 4.76523 16.8945 5.01953 16.707 5.20706L15.414 6.50006L16.707 7.79306C16.8892 7.98166 16.99 8.23427 16.9877 8.49646C16.9854 8.75866 16.8802 9.00947 16.6948 9.19488C16.5094 9.38029 16.2586 9.48546 15.9964 9.48773C15.7342 9.49001 15.4816 9.38922 15.293 9.20706L14 7.91406L12.707 9.20706C12.6148 9.30257 12.5044 9.37875 12.3824 9.43116C12.2604 9.48357 12.1292 9.51116 11.9964 9.51231C11.8636 9.51347 11.7319 9.48816 11.6091 9.43788C11.4862 9.3876 11.3745 9.31335 11.2806 9.21946C11.1867 9.12556 11.1125 9.01391 11.0622 8.89102C11.0119 8.76812 10.9866 8.63644 10.9878 8.50366C10.9889 8.37088 11.0165 8.23966 11.0689 8.11766C11.1213 7.99565 11.1975 7.88531 11.293 7.79306L12.586 6.50006L11.293 5.20706C11.1108 5.01846 11.0101 4.76586 11.0123 4.50366C11.0146 4.24146 11.1198 3.99065 11.3052 3.80524C11.4906 3.61983 11.7414 3.51467 12.0036 3.51239C12.2658 3.51011 12.5184 3.6109 12.707 3.79306L14 5.08606L15.293 3.79306C15.4805 3.60559 15.7348 3.50027 16 3.50027C16.2652 3.50027 16.5195 3.60559 16.707 3.79306Z" fill="white"/>
</svg>
