<svg width="35" height="35" viewBox="0 0 35 35" fill="none" xmlns="http://www.w3.org/2000/svg">
<rect y="0.00012207" width="35" height="35" rx="6" fill="#FF244B" fill-opacity="0.2"/>
<path d="M14.3333 9.58338H27M14.3333 24.7834H27M8 17.8167H20.6667M11.4833 12.75C9.90932 12.75 8.63333 11.4741 8.63333 9.90005C8.63333 8.32604 9.90932 7.05005 11.4833 7.05005C13.0573 7.05005 14.3333 8.32604 14.3333 9.90005C14.3333 11.4741 13.0573 12.75 11.4833 12.75ZM11.4833 27.95C9.90932 27.95 8.63333 26.6741 8.63333 25.1C8.63333 23.526 9.90932 22.25 11.4833 22.25C13.0573 22.25 14.3333 23.526 14.3333 25.1C14.3333 26.6741 13.0573 27.95 11.4833 27.95ZM24.15 20.35C22.576 20.35 21.3 19.0741 21.3 17.5C21.3 15.926 22.576 14.65 24.15 14.65C25.724 14.65 27 15.926 27 17.5C27 19.0741 25.724 20.35 24.15 20.35Z" stroke="#F0483C" stroke-width="1.5" stroke-linecap="round"/>
</svg>
