<svg width="15" height="14" viewBox="0 0 15 14" fill="none" xmlns="http://www.w3.org/2000/svg">
<path d="M10.7454 13.3054L10.7455 13.3053C10.8623 13.2657 10.9719 13.2002 11.0663 13.1113L11.0666 13.111C11.1567 13.0264 11.2338 12.9022 11.5157 12.3923C11.5158 12.3923 11.5158 12.3923 11.5158 12.3922L13.9556 7.97877L13.9556 7.97872C14.2363 7.47111 14.3028 7.33622 14.3292 7.20638L14.3292 7.20635C14.3569 7.0704 14.3569 6.92957 14.3292 6.79361L14.3292 6.79358C14.3028 6.66375 14.2363 6.52886 13.9556 6.02124L13.9556 6.0212L11.5157 1.60774L11.5157 1.60772C11.2338 1.09775 11.1567 0.973555 11.0665 0.888838L11.0664 0.888658C10.9719 0.799837 10.8624 0.734314 10.7455 0.69466L10.7454 0.694634C10.638 0.658168 10.5062 0.65 9.93985 0.65H5.06014C4.49374 0.65 4.362 0.658163 4.25448 0.694649L4.25448 0.69465C4.13765 0.734296 4.02804 0.79983 3.93349 0.888744L3.93348 0.888753C3.84333 0.973524 3.76607 1.09785 3.48419 1.60774L10.7454 13.3054ZM10.7454 13.3054C10.638 13.3418 10.5062 13.35 9.93985 13.35H5.06014C4.49374 13.35 4.36201 13.3418 4.2545 13.3053L4.25446 13.3053C4.13769 13.2657 4.02811 13.2002 3.93356 13.1113L3.93341 13.1111C3.84331 13.0264 3.7661 12.9021 3.48419 12.3923C3.48418 12.3923 3.48418 12.3922 3.48417 12.3922L1.04435 7.97877C0.763656 7.47102 0.69718 7.33625 0.67077 7.20646L0.670762 7.20642C0.643079 7.07042 0.643079 6.92954 0.670762 6.79355L0.67077 6.79351C0.69718 6.66372 0.763656 6.52895 1.04434 6.0212C1.04435 6.0212 1.04435 6.0212 1.04435 6.02119L3.48419 1.60774L10.7454 13.3054ZM10.9543 13.9209C11.1607 13.8509 11.3506 13.7363 11.5117 13.5847L2.91576 12.7075C3.17593 13.1781 3.30611 13.4135 3.4882 13.5847C3.6494 13.7363 3.83931 13.8509 4.04561 13.9209C4.27878 14 4.53923 14 5.06014 14H9.93985C10.4607 14 10.7212 14 10.9543 13.9209ZM14.9662 7.33607C15.0113 7.11452 15.0113 6.88545 14.9662 6.6639L14.5245 8.29324C14.785 7.82209 14.9152 7.58656 14.9662 7.33607ZM0.0339193 7.33605L0.0338953 7.33606L0.0339193 7.33605Z" stroke="#BDFF4B" stroke-width="1.3" stroke-linecap="round" stroke-linejoin="round"/>
<path d="M7.73121 8.23334C7.59342 8.23334 7.47721 8.18341 7.38259 8.08356C7.28774 7.98372 7.24606 7.86625 7.25754 7.73116C7.27477 7.48448 7.33218 7.2701 7.42979 7.08803C7.52739 6.90595 7.68241 6.718 7.89484 6.52418C8.13024 6.31274 8.3096 6.12914 8.43292 5.97338C8.55648 5.81785 8.61825 5.64024 8.61825 5.44054C8.61825 5.19973 8.53937 5.00004 8.38159 4.84146C8.22359 4.68288 8.00393 4.60359 7.7226 4.60359C7.53887 4.60359 7.38248 4.64317 7.25341 4.72235C7.12412 4.80175 7.01928 4.90019 6.9389 5.01766C6.85852 5.13513 6.75954 5.21442 6.64195 5.25553C6.52414 5.29665 6.41069 5.29371 6.3016 5.24672C6.16955 5.18799 6.07918 5.09108 6.0305 4.95599C5.98158 4.8209 5.99157 4.69462 6.06047 4.57716C6.22697 4.31285 6.45088 4.0926 6.73221 3.9164C7.01354 3.7402 7.34367 3.6521 7.7226 3.6521C8.32544 3.6521 8.78912 3.82395 9.11362 4.16766C9.43789 4.51114 9.60003 4.92369 9.60003 5.4053C9.60003 5.69897 9.53837 5.95012 9.41504 6.15874C9.29149 6.36713 9.09766 6.60347 8.83356 6.86777C8.63835 7.05572 8.50056 7.20843 8.42018 7.3259C8.3398 7.44337 8.28525 7.57845 8.25655 7.73116C8.23358 7.878 8.1733 7.9984 8.07569 8.09237C7.97809 8.18635 7.86326 8.23334 7.73121 8.23334ZM7.7226 10.3478C7.53313 10.3478 7.37099 10.2788 7.23619 10.1409C7.10115 10.0027 7.03363 9.83677 7.03363 9.64295C7.03363 9.44912 7.10115 9.28314 7.23619 9.145C7.37099 9.00709 7.53313 8.93814 7.7226 8.93814C7.91206 8.93814 8.07431 9.00709 8.20935 9.145C8.34416 9.28314 8.41156 9.44912 8.41156 9.64295C8.41156 9.83677 8.34416 10.0027 8.20935 10.1409C8.07431 10.2788 7.91206 10.3478 7.7226 10.3478Z" fill="#BDFF4B"/>
</svg>
