<svg width="664" height="786" viewBox="0 0 664 786" fill="none" xmlns="http://www.w3.org/2000/svg">
<mask id="mask0_1_539" style="mask-type:alpha" maskUnits="userSpaceOnUse" x="0" y="0" width="664" height="786">
<rect width="664" height="786" fill="#030417"/>
</mask>
<g mask="url(#mask0_1_539)">
<rect width="664" height="786" fill="#030417"/>
<g opacity="0.5" filter="url(#filter0_f_1_539)">
<circle cx="155.5" cy="143.5" r="84.5" fill="#00D29E"/>
</g>
<g filter="url(#filter1_f_1_539)">
<circle cx="497" cy="421" r="95" fill="#00CC99"/>
</g>
<g opacity="0.5" filter="url(#filter2_f_1_539)">
<circle cx="162.5" cy="739.5" r="82.5" fill="#00D29E"/>
</g>
</g>
<path d="M257.567 289.423H173.998V232.25H257.567L257.567 289.423ZM174.657 288.763H256.907V232.91H174.657V288.763Z" fill="#4E4D4D"/>
<path d="M180.532 235.934C180.532 236.852 179.787 237.597 178.869 237.597C177.95 237.597 177.205 236.853 177.205 235.934C177.205 235.015 177.95 234.27 178.869 234.27C179.787 234.27 180.532 235.015 180.532 235.934Z" fill="#4F4F4F"/>
<path d="M187.324 235.934C187.324 236.852 186.58 237.597 185.66 237.597C184.741 237.597 183.997 236.853 183.997 235.934C183.997 235.015 184.742 234.27 185.66 234.27C186.579 234.27 187.324 235.015 187.324 235.934Z" fill="#4E4D4D"/>
<path d="M194.116 235.934C194.116 236.852 193.372 237.597 192.453 237.597C191.534 237.597 190.789 236.853 190.789 235.934C190.789 235.015 191.533 234.27 192.453 234.27C193.371 234.27 194.116 235.015 194.116 235.934Z" fill="#00D29E"/>
<path d="M257.237 238.862H174.328V239.521H257.237V238.862Z" fill="#4E4D4D"/>
<path d="M503.25 425.963H502.59V342.93L520.229 318.856V273.869H520.889V319.072L503.25 343.146V425.963Z" fill="#4E4D4D"/>
<path d="M520.559 274.226C519.513 274.226 518.662 273.375 518.662 272.329C518.662 271.283 519.513 270.432 520.559 270.432C521.605 270.432 522.456 271.283 522.456 272.329C522.456 273.375 521.605 274.226 520.559 274.226ZM520.559 271.092C519.877 271.092 519.322 271.647 519.322 272.329C519.322 273.011 519.877 273.566 520.559 273.566C521.241 273.566 521.796 273.011 521.796 272.329C521.796 271.647 521.241 271.092 520.559 271.092Z" fill="#4E4D4D"/>
<path d="M507.793 425.963H507.133V345.838L524.773 321.765V290.365H525.432V321.98L507.793 346.055V425.963Z" fill="#4E4D4D"/>
<path d="M525.102 290.722C524.056 290.722 523.205 289.87 523.205 288.824C523.205 287.778 524.056 286.927 525.102 286.927C526.148 286.927 527 287.778 527 288.824C527 289.87 526.148 290.722 525.102 290.722ZM525.102 287.587C524.42 287.587 523.865 288.142 523.865 288.824C523.865 289.507 524.42 290.062 525.102 290.062C525.785 290.062 526.34 289.507 526.34 288.824C526.34 288.142 525.785 287.587 525.102 287.587Z" fill="#4E4D4D"/>
<path d="M498.873 316.149H498.213V425.963H498.873V316.149Z" fill="#4E4D4D"/>
<path d="M498.543 316.479C497.497 316.479 496.646 315.628 496.646 314.582C496.646 313.536 497.497 312.684 498.543 312.684C499.589 312.684 500.44 313.536 500.44 314.582C500.44 315.628 499.589 316.479 498.543 316.479ZM498.543 313.344C497.86 313.344 497.305 313.899 497.305 314.582C497.305 315.264 497.86 315.819 498.543 315.819C499.225 315.819 499.78 315.264 499.78 314.582C499.78 313.899 499.225 313.344 498.543 313.344Z" fill="#4E4D4D"/>
<path d="M494.659 425.963H493.999V370.234L482.024 347.646V307.07H482.683V347.482L494.659 370.071V425.963Z" fill="#4E4D4D"/>
<path d="M482.353 307.4C481.307 307.4 480.456 306.549 480.456 305.503C480.456 304.457 481.307 303.606 482.353 303.606C483.399 303.606 484.251 304.457 484.251 305.503C484.251 306.549 483.399 307.4 482.353 307.4ZM482.353 304.265C481.671 304.265 481.116 304.82 481.116 305.503C481.116 306.185 481.671 306.74 482.353 306.74C483.036 306.74 483.591 306.185 483.591 305.503C483.591 304.821 483.036 304.265 482.353 304.265Z" fill="#4E4D4D"/>
<path d="M490.47 425.963H489.81V372.653L475.691 347.681V320.924H476.351V347.507L490.47 372.479V425.963Z" fill="#4E4D4D"/>
<path d="M476.021 321.254C474.975 321.254 474.124 320.403 474.124 319.357C474.124 318.311 474.975 317.46 476.021 317.46C477.067 317.46 477.918 318.311 477.918 319.357C477.918 320.403 477.067 321.254 476.021 321.254ZM476.021 318.119C475.339 318.119 474.784 318.674 474.784 319.357C474.784 320.039 475.339 320.594 476.021 320.594C476.703 320.594 477.258 320.039 477.258 319.357C477.258 318.675 476.703 318.119 476.021 318.119Z" fill="#4E4D4D"/>
<path d="M165.297 425.963H164.637V382.74L146.998 358.666V333.26H147.657V358.45L165.297 382.525V425.963Z" fill="#4E4D4D"/>
<path d="M147.327 333.617C146.281 333.617 145.43 332.766 145.43 331.72C145.43 330.674 146.281 329.823 147.327 329.823C148.373 329.823 149.225 330.674 149.225 331.72C149.225 332.766 148.374 333.617 147.327 333.617ZM147.327 330.483C146.645 330.483 146.09 331.038 146.09 331.72C146.09 332.402 146.645 332.957 147.327 332.957C148.01 332.957 148.565 332.402 148.565 331.72C148.565 331.038 148.01 330.483 147.327 330.483Z" fill="#4E4D4D"/>
<path d="M160.754 425.963H160.094V385.648L142.455 361.574V349.756H143.115V361.359L160.754 385.432V425.963Z" fill="#4E4D4D"/>
<path d="M142.785 350.113C141.739 350.113 140.887 349.261 140.887 348.215C140.887 347.169 141.739 346.318 142.785 346.318C143.831 346.318 144.682 347.169 144.682 348.215C144.682 349.261 143.831 350.113 142.785 350.113ZM142.785 346.978C142.102 346.978 141.547 347.533 141.547 348.215C141.547 348.898 142.102 349.453 142.785 349.453C143.467 349.453 144.022 348.898 144.022 348.215C144.022 347.533 143.467 346.978 142.785 346.978Z" fill="#4E4D4D"/>
<path d="M169.674 355.743H169.014V425.963H169.674V355.743Z" fill="#4E4D4D"/>
<path d="M169.344 356.073C168.298 356.073 167.447 355.222 167.447 354.176C167.447 353.13 168.298 352.278 169.344 352.278C170.39 352.278 171.241 353.13 171.241 354.176C171.241 355.222 170.39 356.073 169.344 356.073ZM169.344 352.938C168.662 352.938 168.107 353.493 168.107 354.176C168.107 354.858 168.662 355.413 169.344 355.413C170.027 355.413 170.582 354.858 170.582 354.176C170.582 353.493 170.027 352.938 169.344 352.938Z" fill="#4E4D4D"/>
<path d="M173.888 425.963H173.228V389.868L173.266 389.794L185.204 367.279V326.867H185.864V367.443L185.825 367.516L173.888 390.031V425.963Z" fill="#4E4D4D"/>
<path d="M185.534 327.197C184.487 327.197 183.636 326.346 183.636 325.3C183.636 324.254 184.487 323.403 185.534 323.403C186.58 323.403 187.431 324.254 187.431 325.3C187.431 326.346 186.58 327.197 185.534 327.197ZM185.534 324.062C184.851 324.062 184.296 324.617 184.296 325.3C184.296 325.982 184.851 326.537 185.534 326.537C186.216 326.537 186.771 325.982 186.771 325.3C186.771 324.618 186.216 324.062 185.534 324.062Z" fill="#4E4D4D"/>
<path d="M178.077 425.963H177.417V392.276L177.46 392.2L191.536 367.304V340.721H192.196V367.478L192.153 367.553L178.077 392.45V425.963Z" fill="#4E4D4D"/>
<path d="M191.866 341.051C190.82 341.051 189.969 340.2 189.969 339.154C189.969 338.108 190.82 337.257 191.866 337.257C192.912 337.257 193.763 338.108 193.763 339.154C193.763 340.2 192.912 341.051 191.866 341.051ZM191.866 337.916C191.183 337.916 190.628 338.471 190.628 339.154C190.628 339.836 191.183 340.391 191.866 340.391C192.548 340.391 193.103 339.836 193.103 339.154C193.103 338.472 192.548 337.916 191.866 337.916Z" fill="#4E4D4D"/>
<path d="M122.266 425.667L174.805 425.506L227.346 425.448L332.427 425.338L437.508 425.448L490.048 425.506L542.588 425.667L490.048 425.828L437.508 425.886L332.427 425.996L227.346 425.886L174.805 425.828L122.266 425.667Z" fill="#263238"/>
<path d="M477.527 233.266H186.217V428.131H477.527V233.266Z" fill="#161E22"/>
<path d="M475.411 235.643H188.335V425.754H475.411V235.643Z" fill="#263238"/>
<path d="M148.878 432.268C148.766 432.593 148.655 432.853 148.655 433.178C148.655 437.403 155.784 440.847 164.583 440.847H508.87C517.669 440.847 524.798 437.403 524.798 433.178C524.798 432.853 524.686 432.593 524.575 432.268H148.878Z" fill="#3F3F40"/>
<path d="M524.798 425.01H148.655V432.928H524.798V425.01Z" fill="url(#paint0_linear_1_539)"/>
<path d="M459.187 250.087H204.558V411.31H459.187V250.087Z" fill="white"/>
<path d="M459.187 250.087H204.343V256.29H459.187V250.087Z" fill="#455A64"/>
<path d="M209.274 253.189C209.274 254.039 208.585 254.728 207.735 254.728C206.885 254.728 206.197 254.039 206.197 253.189C206.197 252.339 206.885 251.651 207.735 251.651C208.585 251.65 209.274 252.339 209.274 253.189Z" fill="white"/>
<path d="M215.557 253.189C215.557 254.039 214.868 254.728 214.018 254.728C213.168 254.728 212.479 254.039 212.479 253.189C212.479 252.339 213.168 251.651 214.018 251.651C214.868 251.65 215.557 252.339 215.557 253.189Z" fill="#00D29E"/>
<path d="M221.839 253.189C221.839 254.039 221.151 254.728 220.301 254.728C219.451 254.728 218.762 254.039 218.762 253.189C218.762 252.339 219.451 251.651 220.301 251.651C221.151 251.65 221.839 252.339 221.839 253.189Z" fill="#BDFF4B"/>
<path d="M459.187 256.29H454.666V411.31H459.187V256.29Z" fill="#DBDBDB"/>
<path d="M456.924 310.034C456.279 310.034 455.756 309.511 455.756 308.867V258.366C455.756 257.721 456.279 257.198 456.924 257.198C457.569 257.198 458.091 257.721 458.091 258.366V308.867C458.092 309.511 457.569 310.034 456.924 310.034Z" fill="#A6A6A6"/>
<g opacity="0.4">
<path d="M462.205 218.072C464.392 214.72 463.447 210.226 460.095 208.038C456.741 205.85 452.248 206.796 450.061 210.148C447.872 213.503 448.817 217.994 452.171 220.182C455.523 222.37 460.016 221.427 462.205 218.072ZM458.969 215.961C457.947 217.527 455.848 217.969 454.282 216.947C452.716 215.925 452.275 213.826 453.296 212.26C454.319 210.693 456.416 210.254 457.983 211.276C459.55 212.297 459.992 214.394 458.969 215.961Z" fill="#A6A6A6"/>
<path d="M453.503 220.693L451.167 219.169L450.219 220.906L452.295 222.26L453.503 220.693Z" fill="#A6A6A6"/>
<path d="M449.572 217.005L448.998 214.277L447.098 214.834L447.608 217.261L449.572 217.005Z" fill="#A6A6A6"/>
<path d="M449.398 211.619L450.922 209.284L449.185 208.335L447.83 210.411L449.398 211.619Z" fill="#A6A6A6"/>
<path d="M453.086 207.688L455.814 207.114L455.257 205.214L452.83 205.724L453.086 207.688Z" fill="#A6A6A6"/>
<path d="M458.472 207.515L460.807 209.039L461.756 207.301L459.68 205.947L458.472 207.515Z" fill="#A6A6A6"/>
<path d="M462.404 211.201L462.977 213.93L464.877 213.373L464.366 210.947L462.404 211.201Z" fill="#A6A6A6"/>
<path d="M462.576 216.588L461.052 218.924L462.789 219.872L464.144 217.796L462.576 216.588Z" fill="#A6A6A6"/>
<path d="M458.89 220.52L456.161 221.093L456.718 222.993L459.144 222.483L458.89 220.52Z" fill="#A6A6A6"/>
<path d="M453.868 214.586L455.413 216.31L457.678 215.833L458.397 213.634L456.853 211.911L454.587 212.387L453.868 214.586ZM456.534 213.496C456.874 213.718 456.969 214.171 456.747 214.511C456.526 214.85 456.072 214.946 455.732 214.725C455.393 214.503 455.297 214.048 455.518 213.709C455.741 213.369 456.195 213.275 456.534 213.496Z" fill="#A6A6A6"/>
<path d="M485.353 220.317C487.526 216.986 486.585 212.511 483.257 210.339C479.925 208.166 475.449 209.106 473.276 212.437C471.103 215.767 472.043 220.245 475.375 222.419C478.703 224.589 483.18 223.647 485.353 220.317ZM484.067 219.478C482.353 222.105 478.837 222.845 476.213 221.133C473.583 219.417 472.845 215.901 474.559 213.274C476.272 210.648 479.788 209.908 482.418 211.623C485.043 213.336 485.781 216.852 484.067 219.478ZM485.353 220.317C487.526 216.986 486.585 212.511 483.257 210.339C479.925 208.166 475.449 209.106 473.276 212.437C471.103 215.767 472.043 220.245 475.375 222.419C478.703 224.589 483.18 223.647 485.353 220.317ZM484.067 219.478C482.353 222.105 478.837 222.845 476.213 221.133C473.583 219.417 472.845 215.901 474.559 213.274C476.272 210.648 479.788 209.908 482.418 211.623C485.043 213.336 485.781 216.852 484.067 219.478ZM489.494 223.019C493.162 217.397 491.577 209.865 485.958 206.198C480.333 202.528 472.802 204.112 469.133 209.734C465.464 215.357 467.047 222.89 472.672 226.56C478.292 230.227 485.825 228.642 489.494 223.019ZM485.932 220.695C483.551 224.344 478.645 225.377 474.997 222.998C471.347 220.616 470.315 215.706 472.695 212.058C475.077 208.408 479.985 207.378 483.635 209.76C487.282 212.139 488.314 217.044 485.932 220.695ZM485.353 220.317C487.526 216.986 486.585 212.511 483.257 210.339C479.925 208.166 475.449 209.106 473.276 212.437C471.103 215.767 472.043 220.245 475.375 222.419C478.703 224.589 483.18 223.647 485.353 220.317ZM484.067 219.478C482.353 222.105 478.837 222.845 476.213 221.133C473.583 219.417 472.845 215.901 474.559 213.274C476.272 210.648 479.788 209.908 482.418 211.623C485.043 213.336 485.781 216.852 484.067 219.478Z" fill="#A6A6A6"/>
<path d="M473.986 227.154L471.655 225.633L470.369 228.111L472.236 229.329L473.986 227.154Z" fill="#A6A6A6"/>
<path d="M469.312 223.047L468.053 220.563L465.7 222.067L466.709 224.055L469.312 223.047Z" fill="#A6A6A6"/>
<path d="M467.317 217.151L467.469 214.372L464.679 214.497L464.558 216.724L467.317 217.151Z" fill="#A6A6A6"/>
<path d="M468.537 211.049L470.058 208.719L467.58 207.432L466.361 209.299L468.537 211.049Z" fill="#A6A6A6"/>
<path d="M472.644 206.375L475.127 205.117L473.624 202.763L471.636 203.771L472.644 206.375Z" fill="#A6A6A6"/>
<path d="M478.538 204.38L481.318 204.531L481.192 201.743L478.966 201.621L478.538 204.38Z" fill="#A6A6A6"/>
<path d="M484.641 205.6L486.972 207.121L488.259 204.642L486.392 203.424L484.641 205.6Z" fill="#A6A6A6"/>
<path d="M489.315 209.707L490.574 212.19L492.926 210.687L491.919 208.698L489.315 209.707Z" fill="#A6A6A6"/>
<path d="M491.31 215.601L491.158 218.382L493.948 218.256L494.069 216.03L491.31 215.601Z" fill="#A6A6A6"/>
<path d="M490.091 221.703L488.569 224.035L491.048 225.321L492.266 223.454L490.091 221.703Z" fill="#A6A6A6"/>
<path d="M485.983 226.379L483.5 227.637L485.004 229.99L486.992 228.982L485.983 226.379Z" fill="#A6A6A6"/>
<path d="M480.089 228.374L477.31 228.222L477.435 231.011L479.661 231.132L480.089 228.374Z" fill="#A6A6A6"/>
<path d="M497.361 229.398C495.929 228.262 493.848 228.503 492.712 229.933C491.575 231.366 491.816 233.445 493.248 234.582C494.678 235.717 496.757 235.478 497.893 234.045C499.03 232.614 498.792 230.533 497.361 229.398ZM497.579 233.795C496.581 235.053 494.754 235.263 493.498 234.266C492.242 233.268 492.032 231.442 493.029 230.184C494.027 228.927 495.853 228.717 497.111 229.715C498.366 230.712 498.577 232.538 497.579 233.795ZM497.361 229.398C495.929 228.262 493.848 228.503 492.712 229.933C491.575 231.366 491.816 233.445 493.248 234.582C494.678 235.717 496.757 235.478 497.893 234.045C499.03 232.614 498.792 230.533 497.361 229.398ZM497.579 233.795C496.581 235.053 494.754 235.263 493.498 234.266C492.242 233.268 492.032 231.442 493.029 230.184C494.027 228.927 495.853 228.717 497.111 229.715C498.366 230.712 498.577 232.538 497.579 233.795ZM497.361 229.398C495.929 228.262 493.848 228.503 492.712 229.933C491.575 231.366 491.816 233.445 493.248 234.582C494.678 235.717 496.757 235.478 497.893 234.045C499.03 232.614 498.792 230.533 497.361 229.398ZM497.579 233.795C496.581 235.053 494.754 235.263 493.498 234.266C492.242 233.268 492.032 231.442 493.029 230.184C494.027 228.927 495.853 228.717 497.111 229.715C498.366 230.712 498.577 232.538 497.579 233.795ZM499.64 226.528C496.62 224.132 492.235 224.641 489.841 227.656C487.447 230.672 487.951 235.059 490.969 237.454C493.984 239.846 498.372 239.341 500.765 236.324C503.158 233.309 502.655 228.919 499.64 226.528ZM498.298 234.365C496.987 236.017 494.579 236.295 492.928 234.985C491.277 233.674 490.999 231.266 492.31 229.613C493.622 227.961 496.031 227.685 497.682 228.996C499.33 230.306 499.609 232.714 498.298 234.365ZM497.894 234.046C499.029 232.615 498.791 230.534 497.361 229.398C495.929 228.262 493.848 228.503 492.712 229.933C491.575 231.366 491.816 233.445 493.248 234.582C494.679 235.718 496.757 235.478 497.894 234.046ZM497.579 233.795C496.581 235.053 494.754 235.263 493.498 234.266C492.242 233.268 492.032 231.442 493.029 230.184C494.027 228.927 495.853 228.717 497.111 229.715C498.366 230.712 498.577 232.538 497.579 233.795ZM497.361 229.398C495.929 228.262 493.848 228.503 492.712 229.933C491.575 231.366 491.816 233.445 493.248 234.582C494.678 235.717 496.757 235.478 497.893 234.045C499.03 232.614 498.792 230.533 497.361 229.398ZM497.579 233.795C496.581 235.053 494.754 235.263 493.498 234.266C492.242 233.268 492.032 231.442 493.029 230.184C494.027 228.927 495.853 228.717 497.111 229.715C498.366 230.712 498.577 232.538 497.579 233.795ZM497.361 229.398C495.929 228.262 493.848 228.503 492.712 229.933C491.575 231.366 491.816 233.445 493.248 234.582C494.678 235.717 496.757 235.478 497.893 234.045C499.03 232.614 498.792 230.533 497.361 229.398ZM497.579 233.795C496.581 235.053 494.754 235.263 493.498 234.266C492.242 233.268 492.032 231.442 493.029 230.184C494.027 228.927 495.853 228.717 497.111 229.715C498.366 230.712 498.577 232.538 497.579 233.795Z" fill="#A6A6A6"/>
<path d="M492.199 238.058L490.099 236.391L489.035 237.97L490.903 239.453L492.199 238.058Z" fill="#A6A6A6"/>
<path d="M488.762 234.178L488.456 231.515L486.588 231.878L486.86 234.248L488.762 234.178Z" fill="#A6A6A6"/>
<path d="M489.076 229.005L490.743 226.904L489.164 225.841L487.682 227.709L489.076 229.005Z" fill="#A6A6A6"/>
<path d="M492.957 225.569L495.62 225.262L495.256 223.393L492.887 223.667L492.957 225.569Z" fill="#A6A6A6"/>
<path d="M498.13 225.882L500.23 227.549L501.294 225.97L499.426 224.488L498.13 225.882Z" fill="#A6A6A6"/>
<path d="M501.566 229.763L501.872 232.426L503.741 232.062L503.468 229.693L501.566 229.763Z" fill="#A6A6A6"/>
<path d="M501.252 234.936L499.586 237.036L501.164 238.1L502.647 236.231L501.252 234.936Z" fill="#A6A6A6"/>
<path d="M497.373 238.372L494.709 238.679L495.073 240.547L497.442 240.275L497.373 238.372Z" fill="#A6A6A6"/>
</g>
<path d="M469.55 399.018C467.108 396.624 463.951 393.733 460.217 394.765C456.704 395.736 455.36 399.57 454.731 402.764C453.92 406.882 453.289 411.04 452.635 415.185C451.975 419.372 451.355 423.564 450.753 427.759C450.412 430.126 450.075 432.494 449.745 434.862C449.58 436.046 449.415 437.231 449.251 438.415C449.09 439.577 448.896 440.737 448.832 441.909C448.812 442.282 449.397 442.337 449.479 441.981C449.932 440.006 450.118 437.952 450.409 435.947C450.7 433.931 450.992 431.915 451.287 429.898C451.872 425.893 452.478 421.891 453.081 417.889C453.685 413.885 454.309 409.885 454.948 405.886C455.49 402.496 455.746 398.282 458.752 396.046C460.401 394.819 462.505 394.805 464.373 395.519C466.352 396.273 467.932 397.69 469.479 399.091C469.529 399.136 469.598 399.064 469.55 399.018Z" fill="#263238"/>
<path d="M466.208 396.572C466.208 396.572 461.215 394.775 458.752 398.418C456.289 402.062 459.233 411.329 481.965 416.558C481.965 416.558 481.369 406.636 476.496 396.01C471.623 385.382 462.939 389.407 466.208 396.572Z" fill="#00D29E"/>
<path d="M480.658 415.041C480.346 414.397 479.904 413.798 479.515 413.197C479.135 412.611 478.751 412.028 478.362 411.448C478.07 411.011 477.772 410.578 477.473 410.146C477.494 410.041 477.501 409.931 477.515 409.821C477.541 409.625 477.567 409.427 477.592 409.231C477.648 408.805 477.71 408.379 477.773 407.955C477.836 407.53 477.906 407.108 477.987 406.687C478.07 406.256 478.113 405.749 478.285 405.347C478.314 405.281 478.194 405.248 478.186 405.326C478.158 405.579 478.051 405.834 477.983 406.079C477.929 406.27 477.88 406.462 477.83 406.653C477.719 407.084 477.614 407.517 477.517 407.951C477.428 408.352 477.352 408.754 477.283 409.158C477.251 409.352 477.222 409.546 477.195 409.741C476.79 409.163 476.377 408.591 475.95 408.029C474.744 406.438 473.467 404.909 472.146 403.416C472.151 403.401 472.165 403.392 472.166 403.375C472.284 400.986 472.227 398.623 472.756 396.273C472.771 396.209 472.674 396.174 472.659 396.238C472.163 398.442 471.667 400.756 471.81 403.033C471.337 402.503 470.857 401.978 470.373 401.457C469.266 400.267 468.138 399.095 466.986 397.948C466.939 397.901 466.866 397.969 466.911 398.017C468.826 400.079 470.645 402.227 472.417 404.413C471.037 404.368 469.634 404.466 468.262 404.567C466.721 404.682 465.189 404.879 463.658 405.09C463.593 405.099 463.613 405.2 463.678 405.191C465.2 404.963 466.737 404.843 468.274 404.779C469.758 404.718 471.232 404.785 472.714 404.78C473.671 405.967 474.619 407.162 475.551 408.369C475.485 408.366 475.415 408.366 475.341 408.365C474.992 408.358 474.644 408.352 474.295 408.358C473.605 408.37 472.913 408.418 472.225 408.477C470.813 408.598 469.409 408.795 468.027 409.105C467.962 409.12 467.982 409.214 468.046 409.206C469.443 409.048 470.843 408.917 472.248 408.868C472.918 408.844 473.589 408.844 474.259 408.844C474.608 408.844 474.956 408.841 475.304 408.847C475.513 408.849 475.702 408.873 475.878 408.794C476.489 409.588 477.101 410.381 477.707 411.179C478.189 411.814 478.665 412.454 479.132 413.101C479.61 413.761 480.042 414.482 480.573 415.1C480.614 415.146 480.683 415.093 480.658 415.041Z" fill="#263238"/>
<path d="M468.382 401.735C467.585 401.605 466.757 401.618 465.951 401.618C465.14 401.617 464.328 401.641 463.517 401.67C463.443 401.672 463.449 401.776 463.523 401.771C464.346 401.712 465.167 401.698 465.992 401.71C466.787 401.722 467.585 401.798 468.379 401.777C468.406 401.776 468.409 401.74 468.382 401.735Z" fill="#263238"/>
<path d="M475.517 403.567C475.61 402.791 475.707 402.011 475.873 401.247C475.888 401.175 475.785 401.152 475.773 401.226C475.657 401.99 475.508 402.748 475.395 403.513C475.338 403.896 475.287 404.279 475.239 404.663C475.196 405.013 475.115 405.394 475.146 405.747C475.152 405.814 475.262 405.821 475.279 405.757C475.372 405.414 475.363 405.029 475.397 404.675C475.433 404.305 475.472 403.936 475.517 403.567Z" fill="#263238"/>
<path d="M474.022 394.965C473.823 395.721 473.626 396.486 473.487 397.255C473.416 397.645 473.356 398.037 473.303 398.43C473.252 398.806 473.184 399.2 473.227 399.579C473.23 399.609 473.277 399.611 473.286 399.583C473.396 399.233 473.417 398.851 473.466 398.488C473.516 398.11 473.574 397.733 473.639 397.358C473.777 396.565 473.918 395.781 474.118 395.001C474.135 394.937 474.038 394.901 474.022 394.965Z" fill="#263238"/>
<path d="M444.421 441.07C444.296 439.639 444.156 438.209 444.006 436.78C443.707 433.948 443.361 431.122 442.981 428.3C442.602 425.486 442.241 422.666 441.789 419.863C441.581 418.579 441.367 417.262 440.922 416.034C440.539 414.977 439.906 414.022 438.8 413.64C436.126 412.716 434.321 415.489 433.242 417.452C433.209 417.511 433.295 417.555 433.332 417.501C433.978 416.572 435.765 413.963 437.794 414.084C439.159 414.166 440.251 415.133 440.906 418.537C442.539 427.019 444.011 444.231 444.183 445.357C444.274 445.954 444.696 445.928 444.7 445.288C444.707 443.88 444.544 442.471 444.421 441.07Z" fill="#263238"/>
<path d="M433.963 416.397C433.963 416.397 436.3 408.142 431.132 412.27C422.53 419.14 422.225 434.085 422.225 434.085C422.225 434.085 437.517 425.203 439.418 419.345C442.25 410.618 433.963 416.397 433.963 416.397Z" fill="#00D29E"/>
<path d="M436.857 420.448C435.657 420.692 434.44 420.851 433.229 421.025C432.655 421.107 432.081 421.189 431.507 421.267C431.12 421.32 430.728 421.357 430.338 421.405C431.477 419.836 432.626 418.273 433.718 416.672C433.76 416.61 433.664 416.546 433.615 416.597C432.708 417.522 431.867 418.519 431.06 419.546C430.836 418.907 430.607 418.269 430.382 417.63C430.122 416.89 429.843 416.156 429.655 415.394C429.639 415.33 429.539 415.359 429.557 415.423C429.765 416.18 429.914 416.952 430.116 417.711C430.311 418.443 430.534 419.167 430.793 419.879C430.233 420.607 429.696 421.351 429.174 422.104C428.911 421.358 428.584 420.636 428.354 419.879C428.334 419.815 428.235 419.846 428.255 419.908C428.53 420.746 428.677 421.617 428.935 422.46C428.584 422.973 428.232 423.485 427.897 424.003C427.28 424.957 426.698 425.929 426.129 426.907C426.04 426.957 425.982 427.03 425.995 427.138C425.029 428.809 424.11 430.505 423.203 432.216C423.172 432.275 423.262 432.324 423.293 432.266C424.201 430.575 425.21 428.93 426.261 427.314C426.264 427.313 426.268 427.314 426.272 427.313C426.383 427.252 426.635 427.244 426.772 427.216C426.949 427.18 427.125 427.14 427.3 427.102C427.696 427.016 428.087 426.914 428.48 426.816C429.256 426.623 430.024 426.441 430.811 426.305C430.876 426.294 430.846 426.194 430.781 426.207C429.856 426.383 428.928 426.488 427.991 426.596C427.55 426.647 427.11 426.704 426.67 426.774C426.652 426.777 426.628 426.78 426.607 426.783C427.157 425.949 427.714 425.118 428.279 424.299C428.835 423.493 429.405 422.697 429.979 421.903C430.509 421.829 431.035 421.689 431.561 421.589C432.153 421.476 432.744 421.36 433.336 421.244C434.519 421.009 435.698 420.744 436.888 420.547C436.951 420.536 436.922 420.435 436.857 420.448Z" fill="#263238"/>
<path d="M427.667 421.262C427.596 421.044 427.53 420.824 427.46 420.605C427.315 420.149 427.204 419.69 427.11 419.221C427.097 419.156 426.998 419.186 427.011 419.251C427.111 419.717 427.22 420.181 427.327 420.646C427.432 421.102 427.548 421.584 427.726 422.018C427.77 422.126 427.934 422.081 427.903 421.965C427.837 421.727 427.743 421.496 427.667 421.262Z" fill="#263238"/>
<path d="M438.421 418.537C437.724 418.642 437.021 418.69 436.319 418.752C435.613 418.814 434.917 418.912 434.217 419.017C434.179 419.023 434.178 419.081 434.219 419.078C434.923 419.03 435.621 418.975 436.322 418.883C437.021 418.792 437.72 418.687 438.424 418.64C438.491 418.635 438.485 418.528 438.421 418.537Z" fill="#263238"/>
<path d="M455.674 430.62C455.403 424.542 455.017 418.475 454.406 412.422C454.102 409.407 453.762 406.395 453.338 403.394C452.922 400.455 452.414 397.515 451.597 394.657C450.971 392.47 450.15 390.273 448.688 388.497C447.246 386.744 445.12 385.647 442.812 385.932C440.151 386.261 438.01 387.936 436.158 389.757C434.079 391.8 432.176 394.03 430.251 396.215C429.764 396.768 429.282 397.324 428.802 397.883C428.76 397.933 428.833 398.004 428.877 397.954C430.758 395.792 432.714 393.692 434.76 391.683C436.65 389.827 438.598 387.798 441.217 387.032C442.43 386.676 443.746 386.578 444.969 386.943C445.958 387.239 446.821 387.827 447.532 388.567C449.006 390.1 449.834 392.177 450.422 394.187C452.057 399.773 452.642 405.631 453.249 411.4C453.865 417.261 454.281 423.138 454.576 429.023C454.872 434.94 455.104 440.864 455.674 446.763C455.744 447.492 455.839 448.217 455.931 448.943C455.993 449.431 456.751 449.432 456.711 448.924C456.228 442.827 455.947 436.727 455.674 430.62Z" fill="#263238"/>
<path d="M435.823 390.415C435.823 390.415 439.294 383.992 435.193 381.932C431.092 379.872 417.367 395.191 413.357 417.594C413.357 417.594 435.525 407.786 443.052 398.013C450.58 388.24 442.046 386.089 435.823 390.415Z" fill="#00D29E"/>
<path d="M439.082 395.638C436.591 395.644 434.106 395.45 431.614 395.468C432.08 394.932 432.546 394.396 433.018 393.864C433.67 393.129 434.413 392.415 434.965 391.601C435 391.549 434.925 391.476 434.875 391.515C434.184 392.057 433.592 392.767 432.99 393.406C432.366 394.069 431.745 394.734 431.127 395.403C430.175 396.433 429.242 397.481 428.311 398.53C428.309 398.427 428.307 398.326 428.308 398.228C428.31 397.791 428.306 397.356 428.309 396.919C428.315 396.074 428.328 395.229 428.336 394.384C428.352 392.671 428.348 390.95 428.467 389.241C428.472 389.175 428.369 389.178 428.365 389.243C428.245 390.961 428.068 392.672 427.984 394.393C427.942 395.238 427.921 396.083 427.911 396.929C427.906 397.365 427.899 397.801 427.902 398.238C427.904 398.475 427.895 398.726 427.914 398.971C427.769 399.136 427.618 399.295 427.473 399.461C425.485 401.732 423.595 404.082 421.754 406.473C421.752 406.341 421.734 406.206 421.721 406.077C421.696 405.813 421.665 405.55 421.635 405.286C421.571 404.714 421.492 404.145 421.407 403.576C421.327 403.042 421.242 402.508 421.152 401.976C421.051 401.378 420.904 400.77 420.859 400.165C420.853 400.091 420.743 400.107 420.758 400.181C420.885 400.774 420.909 401.401 420.967 402.005C421.018 402.552 421.07 403.101 421.119 403.649C421.168 404.198 421.218 404.747 421.274 405.295C421.301 405.559 421.325 405.822 421.353 406.086C421.367 406.218 421.383 406.349 421.401 406.481C421.425 406.655 421.452 406.677 421.508 406.794C421.192 407.206 420.874 407.617 420.561 408.032C419.304 409.696 418.071 411.378 416.835 413.058C416.797 413.11 416.869 413.182 416.91 413.129C418.079 411.605 419.281 410.109 420.5 408.625C421.412 408.664 422.343 408.597 423.254 408.582C424.216 408.566 425.177 408.561 426.139 408.558C426.205 408.558 426.203 408.455 426.136 408.456C425.175 408.472 424.214 408.487 423.252 408.491C422.376 408.494 421.482 408.451 420.605 408.498C421.677 407.196 422.76 405.902 423.846 404.61C424.242 404.139 424.64 403.67 425.037 403.199C425.397 403.274 425.785 403.237 426.15 403.236C426.587 403.236 427.024 403.236 427.461 403.235C428.28 403.232 429.099 403.213 429.917 403.2C431.61 403.174 433.302 403.118 434.994 403.114C435.061 403.114 435.058 403.012 434.992 403.011C433.297 402.991 431.603 402.917 429.91 402.875C429.09 402.854 428.271 402.827 427.451 402.816C427.014 402.81 426.577 402.806 426.14 402.801C425.891 402.798 425.635 402.781 425.382 402.791C426.313 401.687 427.242 400.582 428.175 399.481C428.197 399.468 428.215 399.447 428.226 399.42C429.135 398.349 430.044 397.277 430.962 396.215C431.087 396.069 431.216 395.926 431.341 395.781C433.924 395.861 436.503 395.691 439.086 395.741C439.15 395.743 439.148 395.638 439.082 395.638Z" fill="#263238"/>
<path d="M437.807 400.044C437.606 400.045 437.405 400.047 437.204 400.048C437.144 400.049 437.147 400.14 437.206 400.141C437.408 400.143 437.609 400.144 437.81 400.146C437.876 400.147 437.874 400.043 437.807 400.044Z" fill="#263238"/>
<path d="M436.466 400.051C435.668 400.04 434.87 400.023 434.072 400.001C433.672 399.989 433.273 399.976 432.874 399.963C432.518 399.95 432.11 399.895 431.761 399.976C431.721 399.985 431.729 400.04 431.762 400.05C432.108 400.154 432.52 400.122 432.878 400.129C433.277 400.137 433.676 400.142 434.075 400.146C434.873 400.154 435.671 400.157 436.468 400.154C436.535 400.153 436.532 400.051 436.466 400.051Z" fill="#263238"/>
<path d="M429.497 407.532C427.875 407.304 426.236 407.074 424.595 407.089C424.571 407.089 424.574 407.123 424.596 407.125C426.224 407.28 427.856 407.368 429.473 407.631C429.537 407.642 429.562 407.541 429.497 407.532Z" fill="#263238"/>
<path d="M422.833 400.4C422.817 400.257 422.801 400.115 422.783 399.973C422.74 399.652 422.69 399.332 422.64 399.013C422.544 398.404 422.437 397.797 422.322 397.192C422.311 397.135 422.214 397.15 422.221 397.208C422.298 397.833 422.365 398.461 422.424 399.089C422.452 399.398 422.475 399.707 422.503 400.015C422.529 400.294 422.504 400.639 422.628 400.894C422.675 400.99 422.818 400.951 422.843 400.86C422.885 400.707 422.851 400.555 422.833 400.4Z" fill="#263238"/>
<path d="M455.456 382.166C454.662 380.69 453.653 378.739 451.672 378.862C450.037 378.964 449.3 380.633 448.951 382.012C447.871 386.278 447.795 390.778 447.584 395.149C447.14 404.389 446.74 413.639 446.682 422.89C446.666 425.454 446.675 428.018 446.698 430.583C446.723 433.198 446.716 435.829 446.881 438.439C446.897 438.686 447.264 438.678 447.266 438.429C447.281 436.193 447.202 433.954 447.192 431.717C447.183 429.534 447.201 427.351 447.235 425.167C447.307 420.746 447.426 416.325 447.59 411.906C447.752 407.514 447.945 403.123 448.131 398.731C448.224 396.537 448.317 394.342 448.416 392.147C448.512 390.022 448.604 387.894 448.847 385.778C448.983 384.594 449.159 383.408 449.406 382.242C449.582 381.41 449.835 380.511 450.428 379.872C451.21 379.029 452.392 379.089 453.318 379.662C454.279 380.256 454.862 381.241 455.367 382.219C455.399 382.279 455.487 382.224 455.456 382.166Z" fill="#263238"/>
<path d="M454.919 381.461C454.919 381.461 453.291 375.711 456.891 378.586C462.883 383.372 463.096 393.783 463.096 393.783C463.096 393.783 452.444 387.596 451.119 383.515C449.147 377.436 454.919 381.461 454.919 381.461Z" fill="#00D29E"/>
<path d="M460.855 389.515C460.757 389.356 460.653 389.201 460.553 389.044C460.578 388.885 460.553 388.707 460.552 388.553C460.551 388.306 460.548 388.058 460.554 387.811C460.566 387.325 460.584 386.84 460.608 386.354C460.611 386.288 460.508 386.291 460.505 386.357C460.48 386.833 460.461 387.309 460.448 387.786C460.441 388.025 460.43 388.263 460.423 388.501C460.42 388.594 460.408 388.701 460.402 388.808C459.984 388.158 459.555 387.516 459.111 386.884C458.982 386.701 458.847 386.522 458.716 386.341C458.618 385.727 458.676 385.081 458.684 384.464C458.692 383.795 458.701 383.128 458.725 382.459C458.727 382.394 458.624 382.396 458.622 382.462C458.603 383.157 458.568 383.851 458.533 384.546C458.508 385.038 458.462 385.539 458.492 386.033C457.463 384.634 456.372 383.286 455.267 381.944C455.23 381.9 455.151 381.963 455.188 382.008C455.873 382.874 456.528 383.762 457.171 384.66C455.917 384.368 454.642 384.2 453.369 384.015C453.304 384.006 453.279 384.105 453.344 384.115C454.692 384.319 456.016 384.657 457.346 384.951C457.357 384.953 457.363 384.946 457.372 384.946C457.883 385.664 458.387 386.388 458.889 387.111C459.093 387.406 459.291 387.705 459.493 388.001C459.474 387.999 459.454 387.996 459.435 387.994C459.297 387.974 459.159 387.954 459.021 387.937C458.727 387.901 458.43 387.878 458.135 387.855C457.521 387.807 456.905 387.774 456.291 387.742C456.225 387.738 456.227 387.843 456.293 387.844C456.899 387.858 457.5 387.903 458.103 387.969C458.421 388.003 458.738 388.046 459.056 388.084C459.194 388.101 459.333 388.117 459.472 388.134C459.513 388.139 459.554 388.145 459.594 388.151C459.935 388.655 460.278 389.157 460.618 389.661C461.22 390.55 461.757 391.503 462.399 392.362C462.437 392.413 462.508 392.367 462.482 392.31C462.033 391.342 461.414 390.423 460.855 389.515Z" fill="#263238"/>
<path d="M458.203 383.02C458.202 382.796 458.207 382.572 458.207 382.349C458.206 381.881 458.2 381.404 458.264 380.94C458.274 380.866 458.163 380.855 458.162 380.929C458.161 381.394 458.111 381.86 458.089 382.324C458.078 382.557 458.077 382.79 458.076 383.023C458.076 383.131 458.077 383.238 458.078 383.346C458.079 383.455 458.063 383.577 458.102 383.68C458.119 383.723 458.177 383.721 458.191 383.677C458.223 383.58 458.207 383.47 458.206 383.369C458.203 383.253 458.203 383.136 458.203 383.02Z" fill="#263238"/>
<path d="M456.886 385.401C456.49 385.334 456.083 385.313 455.684 385.28C455.244 385.242 454.806 385.204 454.368 385.147C454.295 385.138 454.282 385.243 454.357 385.249C455.198 385.303 456.034 385.453 456.876 385.483C456.922 385.484 456.931 385.409 456.886 385.401Z" fill="#263238"/>
<path d="M460.232 385.436C460.263 385.48 460.243 385.606 460.243 385.658V385.843C460.243 385.977 460.242 386.111 460.241 386.245C460.239 386.379 460.238 386.514 460.238 386.647C460.237 386.754 460.209 386.901 460.257 386.998C460.265 387.014 460.29 387.012 460.297 386.997C460.323 386.945 460.318 386.888 460.317 386.83C460.317 386.769 460.316 386.707 460.316 386.645C460.315 386.511 460.313 386.377 460.313 386.243C460.312 386.109 460.31 385.975 460.31 385.841V385.655C460.31 385.598 460.289 385.48 460.322 385.433C460.386 385.342 460.164 385.34 460.232 385.436Z" fill="#263238"/>
<path d="M455.704 412.847C453.463 411.165 451.451 408.748 448.438 408.63C445.951 408.532 444.208 410.404 443.212 412.489C442.687 413.589 442.327 414.755 441.993 415.924C441.544 417.498 441.12 419.079 440.723 420.667C439.943 423.791 439.272 426.944 438.729 430.118C438.426 431.887 438.144 433.662 437.92 435.444C437.695 437.239 437.401 439.084 437.398 440.896C437.397 441.211 437.89 441.272 437.954 440.958C438.257 439.468 438.384 437.93 438.604 436.425C438.824 434.911 439.054 433.398 439.31 431.89C439.822 428.873 440.413 425.866 441.094 422.881C441.737 420.064 442.368 417.202 443.277 414.456C443.929 412.489 444.975 410.192 447.099 409.486C450.333 408.409 453.268 411.146 455.634 412.922C455.685 412.961 455.756 412.887 455.704 412.847Z" fill="#263238"/>
<path d="M453.385 411.238C453.385 411.238 451.32 405.342 454.307 404.186C458.783 402.453 470.499 415.648 468.206 435.866C468.206 435.866 459.153 430.88 452.469 425.27C445.785 419.66 444.074 412.333 447.019 410.439C449.963 408.544 453.385 411.238 453.385 411.238Z" fill="#00D29E"/>
<path d="M466.853 431.532C466.59 430.821 466.131 430.156 465.764 429.493C465.382 428.802 464.995 428.111 464.595 427.429C463.817 426.099 463.044 424.765 462.247 423.446C462.118 423.232 461.984 423.02 461.855 422.807C461.872 422.729 461.886 422.648 461.904 422.57C461.948 422.375 461.993 422.18 462.037 421.985C462.136 421.547 462.213 421.103 462.296 420.662C462.457 419.796 462.608 418.92 462.842 418.07C462.859 418.008 462.755 417.988 462.74 418.053C462.555 418.917 462.283 419.768 462.027 420.614C461.901 421.031 461.766 421.446 461.657 421.867C461.619 422.012 461.582 422.156 461.544 422.3C460.581 420.722 459.602 419.152 458.547 417.635C458.636 417.437 458.628 417.214 458.652 416.987C458.683 416.691 458.719 416.396 458.754 416.101C458.833 415.435 458.909 414.771 459.007 414.107C459.199 412.805 459.393 411.512 459.716 410.234C459.732 410.17 459.632 410.152 459.615 410.216C459.293 411.489 458.942 412.762 458.7 414.054C458.582 414.686 458.469 415.322 458.385 415.96C458.343 416.279 458.308 416.6 458.276 416.921C458.266 417.015 458.251 417.112 458.239 417.21C457.914 416.752 457.59 416.294 457.25 415.846C456.215 414.486 455.145 413.158 454.063 411.836C454.022 411.785 453.937 411.843 453.979 411.895C455.877 414.217 457.482 416.789 459.069 419.329C459.365 419.804 459.656 420.282 459.949 420.758C459.851 420.745 459.753 420.734 459.658 420.722C459.28 420.674 458.897 420.65 458.517 420.615C457.755 420.544 456.993 420.477 456.231 420.416C454.705 420.295 453.177 420.201 451.656 420.039C451.59 420.032 451.571 420.132 451.638 420.14C453.18 420.316 454.713 420.564 456.249 420.782C457.004 420.89 457.76 420.991 458.516 421.087C459.039 421.154 459.693 421.31 460.262 421.266C460.861 422.239 461.463 423.211 462.059 424.185C461.927 424.166 461.788 424.172 461.655 424.169C461.401 424.165 461.146 424.167 460.892 424.167C460.42 424.166 459.947 424.166 459.475 424.166C458.493 424.167 457.511 424.186 456.53 424.185C456.463 424.185 456.474 424.286 456.54 424.288C457.535 424.299 458.527 424.35 459.521 424.402C459.992 424.426 460.464 424.455 460.934 424.487C461.17 424.503 461.405 424.523 461.641 424.537C461.847 424.55 462.068 424.59 462.263 424.513C462.771 425.342 463.285 426.167 463.792 426.996C464.26 427.761 464.733 428.524 465.218 429.278C465.704 430.037 466.155 430.909 466.753 431.583C466.793 431.629 466.876 431.597 466.853 431.532Z" fill="#263238"/>
<path d="M462.539 415.191C462.467 415.838 462.295 416.484 462.135 417.113C461.968 417.768 461.778 418.417 461.565 419.059C461.536 419.146 461.658 419.187 461.686 419.097C461.887 418.46 462.067 417.817 462.224 417.169C462.382 416.519 462.482 415.857 462.641 415.209C462.656 415.145 462.547 415.125 462.539 415.191Z" fill="#263238"/>
<path d="M455.889 419.14C455.748 418.998 455.589 418.984 455.395 418.957C455.11 418.917 454.826 418.879 454.541 418.84C454.012 418.768 453.48 418.709 452.949 418.647C451.846 418.518 450.741 418.411 449.639 418.272C449.574 418.263 449.556 418.365 449.622 418.373C450.662 418.5 451.697 418.657 452.736 418.793C453.245 418.86 453.754 418.933 454.264 418.992C454.51 419.02 454.755 419.046 455 419.073C455.271 419.104 455.591 419.097 455.839 419.217C455.889 419.242 455.925 419.176 455.889 419.14Z" fill="#263238"/>
<path d="M462.524 428.031C462.004 427.987 461.478 427.97 460.956 427.954C460.693 427.946 460.429 427.938 460.166 427.93C460.039 427.926 459.913 427.922 459.786 427.918C459.627 427.914 459.448 427.929 459.293 427.889C459.22 427.871 459.213 428.003 459.289 427.991C459.436 427.968 459.603 427.997 459.751 428.005C459.888 428.014 460.025 428.022 460.162 428.03C460.425 428.046 460.688 428.062 460.951 428.078C461.472 428.109 461.997 428.14 462.518 428.143C462.582 428.144 462.587 428.037 462.524 428.031Z" fill="#263238"/>
<path d="M465.715 425.77C465.775 425.474 465.831 425.178 465.886 424.88C465.993 424.298 466.1 423.715 466.207 423.132C466.219 423.067 466.12 423.051 466.105 423.115C465.978 423.682 465.85 424.25 465.721 424.818C465.657 425.101 465.594 425.385 465.535 425.67C465.507 425.802 465.48 425.933 465.453 426.065C465.425 426.202 465.381 426.341 465.406 426.482C465.415 426.529 465.486 426.568 465.519 426.517C465.656 426.309 465.667 426.01 465.715 425.77Z" fill="#263238"/>
<path d="M435.066 438.634L435.697 445.801L437.839 470H456.79L459.466 445.801L460.257 438.634H435.066Z" fill="#455A64"/>
<path d="M435.066 438.634L435.697 445.801H459.466L460.257 438.634H435.066Z" fill="#263238"/>
<path d="M433.189 442.494H462.133V436.679H433.189V442.494Z" fill="#455A64"/>
<path d="M431.936 281.954H470.058C471.658 281.954 472.955 283.25 472.955 284.85V296.035C472.955 297.635 471.658 298.932 470.058 298.932H452.77L450.118 304.386V298.932H431.936C430.336 298.932 429.039 297.635 429.039 296.035V284.85C429.039 283.25 430.336 281.954 431.936 281.954Z" fill="#00D29E"/>
<path d="M438.696 288.06V292.165H438.109V290.335H435.751V292.165H435.165V288.06H435.751V289.825H438.109V288.06H438.696Z" fill="white"/>
<path d="M442.646 290.798H440.124C440.194 291.344 440.634 291.707 441.25 291.707C441.613 291.707 441.918 291.584 442.147 291.332L442.458 291.696C442.177 292.024 441.748 292.2 441.232 292.2C440.23 292.2 439.561 291.537 439.561 290.611C439.561 289.69 440.224 289.027 441.121 289.027C442.018 289.027 442.658 289.672 442.658 290.628C442.657 290.675 442.651 290.746 442.646 290.798ZM440.123 290.394H442.117C442.059 289.872 441.666 289.503 441.12 289.503C440.581 289.503 440.182 289.866 440.123 290.394Z" fill="white"/>
<path d="M443.439 287.814H444.002V292.165H443.439V287.814Z" fill="white"/>
<path d="M445.076 287.814H445.639V292.165H445.076V287.814Z" fill="white"/>
<path d="M446.426 290.611C446.426 289.684 447.112 289.028 448.045 289.028C448.977 289.028 449.657 289.684 449.657 290.611C449.657 291.538 448.977 292.2 448.045 292.2C447.112 292.2 446.426 291.538 446.426 290.611ZM449.088 290.611C449.088 289.949 448.642 289.52 448.044 289.52C447.446 289.52 446.994 289.949 446.994 290.611C446.994 291.274 447.446 291.708 448.044 291.708C448.643 291.707 449.088 291.274 449.088 290.611Z" fill="white"/>
<path d="M453.765 291.983C453.595 292.13 453.337 292.2 453.085 292.2C452.457 292.2 452.1 291.854 452.1 291.226V289.52H451.572V289.057H452.1V288.376H452.662V289.057H453.554V289.52H452.662V291.203C452.662 291.537 452.839 291.724 453.15 291.724C453.314 291.724 453.472 291.672 453.59 291.578L453.765 291.983Z" fill="white"/>
<path d="M457.397 290.376V292.165H456.834V290.441C456.834 289.831 456.529 289.532 455.995 289.532C455.397 289.532 455.01 289.89 455.01 290.564V292.165H454.447V287.814H455.01V289.497C455.245 289.197 455.632 289.027 456.107 289.027C456.863 289.027 457.397 289.461 457.397 290.376Z" fill="white"/>
<path d="M461.258 290.798H458.736C458.807 291.344 459.246 291.707 459.862 291.707C460.226 291.707 460.531 291.584 460.76 291.332L461.071 291.696C460.789 292.024 460.361 292.2 459.845 292.2C458.842 292.2 458.173 291.537 458.173 290.611C458.173 289.69 458.836 289.027 459.733 289.027C460.631 289.027 461.27 289.672 461.27 290.628C461.27 290.675 461.264 290.746 461.258 290.798ZM458.736 290.394H460.73C460.672 289.872 460.279 289.503 459.733 289.503C459.193 289.503 458.795 289.866 458.736 290.394Z" fill="white"/>
<path d="M463.723 289.027V289.572C463.676 289.567 463.635 289.567 463.594 289.567C462.99 289.567 462.614 289.936 462.614 290.616V292.165H462.051V289.057H462.591V289.578C462.79 289.215 463.177 289.027 463.723 289.027Z" fill="white"/>
<path d="M467.184 290.798H464.662C464.732 291.344 465.172 291.707 465.788 291.707C466.152 291.707 466.457 291.584 466.686 291.332L466.996 291.696C466.715 292.024 466.287 292.2 465.771 292.2C464.768 292.2 464.099 291.537 464.099 290.611C464.099 289.69 464.762 289.027 465.659 289.027C466.557 289.027 467.196 289.672 467.196 290.628C467.196 290.675 467.19 290.746 467.184 290.798ZM464.663 290.394H466.657C466.598 289.872 466.205 289.503 465.66 289.503C465.12 289.503 464.721 289.866 464.663 290.394Z" fill="white"/>
<path opacity="0.3" d="M208.617 304.344L314.929 304.751L326.128 308.416V280.303C326.128 276.567 320.379 273.539 313.287 273.539L208.615 273.133C201.523 273.133 195.774 276.16 195.774 279.896V297.581C195.776 301.316 201.525 304.344 208.617 304.344Z" fill="black"/>
<path d="M234.978 282.66H307.763" stroke="white" stroke-miterlimit="10" stroke-linecap="round" stroke-linejoin="round"/>
<path d="M234.978 288.902H307.763" stroke="white" stroke-miterlimit="10" stroke-linecap="round" stroke-linejoin="round"/>
<path d="M234.978 295.143H279.473" stroke="white" stroke-miterlimit="10" stroke-linecap="round" stroke-linejoin="round"/>
<path d="M184.992 283.177C184.992 288.944 187.338 294.171 191.137 297.944C191.218 298.024 191.298 298.104 191.393 298.187C194.128 300.842 197.618 302.741 201.498 303.562C201.646 303.589 201.795 303.616 201.943 303.643C202.672 303.777 203.412 303.886 204.152 303.94C204.705 303.981 205.258 304.008 205.823 304.008C205.984 304.008 206.132 304.008 206.296 303.996C206.7 303.996 207.104 303.969 207.509 303.942C207.927 303.915 208.344 303.862 208.763 303.794C209.289 303.725 209.812 303.633 210.339 303.511C210.407 303.511 210.472 303.484 210.541 303.47C213.478 302.795 216.186 301.49 218.505 299.697C218.558 299.67 218.6 299.629 218.653 299.59C218.829 299.456 218.989 299.32 219.165 299.159C223.746 295.36 226.656 289.607 226.656 283.18C226.656 271.674 217.333 262.351 205.828 262.351C194.315 262.347 184.992 271.67 184.992 283.177Z" fill="#C0C0C0"/>
<path d="M193.784 279.032C193.784 279.032 191.229 288.679 194.493 291.648C197.757 294.617 216.064 294.553 218.699 290.919C221.337 287.286 215.36 275.396 215.36 275.396L193.784 279.032Z" fill="#263238"/>
<path d="M191.393 298.185C194.128 300.839 197.618 302.739 201.497 303.56C201.646 303.587 201.795 303.613 201.943 303.64C202.671 303.774 203.412 303.884 204.152 303.937C204.705 303.979 205.258 304.005 205.823 304.005C205.984 304.005 206.132 304.005 206.295 303.993C206.7 303.993 207.104 303.966 207.508 303.94C207.927 303.913 208.344 303.859 208.763 303.791C209.289 303.723 209.812 303.63 210.338 303.509V303.657C210.406 303.604 210.472 303.535 210.54 303.47C213.478 302.795 216.186 301.49 218.504 299.697C218.397 299.346 218.261 298.996 218.127 298.66L218.059 298.633L217.964 298.606L217.803 298.552C217.331 298.404 216.361 298.095 215.027 297.758L214.893 297.732C214.111 297.529 213.21 297.313 212.199 297.111C211.58 296.989 210.933 296.867 210.246 296.76C210.165 296.745 210.07 296.718 209.975 296.718C209.963 296.718 209.963 296.718 209.963 296.718C209.384 296.611 208.777 296.531 208.144 296.448C207.915 296.421 207.686 296.395 207.457 296.38C206.5 296.258 205.516 296.178 204.493 296.124C204.142 296.112 203.792 296.097 203.429 296.097C202.983 296.097 202.525 296.112 202.055 296.139C201.476 296.151 200.896 296.207 200.316 296.273C199.844 296.314 199.386 296.38 198.928 296.448H198.913C198.051 296.57 197.216 296.718 196.407 296.879C194.532 297.269 192.793 297.754 191.393 298.185Z" fill="#C0C0C0"/>
<path opacity="0.6" d="M191.393 298.185C194.128 300.839 197.618 302.739 201.497 303.56C201.646 303.587 201.795 303.613 201.943 303.64C202.671 303.774 203.412 303.884 204.152 303.937C204.705 303.979 205.258 304.005 205.823 304.005C205.984 304.005 206.132 304.005 206.295 303.993C206.7 303.993 207.104 303.966 207.508 303.94C207.927 303.913 208.344 303.859 208.763 303.791C209.289 303.723 209.812 303.63 210.338 303.509V303.657C210.406 303.604 210.472 303.535 210.54 303.47C213.478 302.795 216.186 301.49 218.504 299.697C218.397 299.346 218.261 298.996 218.127 298.66L218.059 298.633L217.964 298.606L217.803 298.552C217.331 298.404 216.361 298.095 215.027 297.758L214.893 297.732C214.111 297.529 213.21 297.313 212.199 297.111C211.58 296.989 210.933 296.867 210.246 296.76C210.165 296.745 210.07 296.718 209.975 296.718C209.963 296.718 209.963 296.718 209.963 296.718C209.384 296.611 208.777 296.531 208.144 296.448C207.915 296.421 207.686 296.395 207.457 296.38C206.5 296.258 205.516 296.178 204.493 296.124C204.142 296.112 203.792 296.097 203.429 296.097C202.983 296.097 202.525 296.112 202.055 296.139C201.476 296.151 200.896 296.207 200.316 296.273C199.844 296.314 199.386 296.38 198.928 296.448H198.913C198.051 296.57 197.216 296.718 196.407 296.879C194.532 297.269 192.793 297.754 191.393 298.185Z" fill="white"/>
<path d="M216.011 278.396C216.011 278.396 217.092 262.627 203.208 266.275C185.782 270.854 195.843 291.816 204.42 289.154C212.998 286.494 216.011 278.396 216.011 278.396Z" fill="#263238"/>
<path opacity="0.2" d="M198.183 297.052L201.242 303.06L201.498 303.56C201.647 303.587 201.795 303.613 201.944 303.64C202.672 303.774 203.412 303.884 204.153 303.937L205.823 301.714C205.999 302.415 206.147 303.182 206.296 303.991C206.7 303.991 207.104 303.964 207.509 303.937C207.387 302.576 207.294 301.714 207.294 301.714L208.763 303.789C209.289 303.72 209.813 303.628 210.339 303.506L210.621 296.999C210.405 296.891 210.19 296.796 209.973 296.716C209.961 296.716 209.961 296.716 209.961 296.716C209.313 296.446 208.641 296.258 207.967 296.124C207.818 296.097 207.669 296.071 207.521 296.056C206.079 295.827 204.625 295.839 203.305 295.976C202.874 296.017 202.443 296.071 202.053 296.136C201.271 296.244 200.57 296.392 199.993 296.541H199.981C199.011 296.782 198.364 296.984 198.215 297.04L198.183 297.052Z" fill="black"/>
<path d="M206.54 298.652L199.732 296.728C203.926 293.84 201.812 287.386 201.812 287.386L208.556 289.756C208.196 290.876 207.969 291.826 207.833 292.637C207.129 296.843 209.029 297.179 209.029 297.179L206.54 298.652Z" fill="#FBC1AE"/>
<path opacity="0.2" d="M208.556 289.76C208.196 290.881 207.969 291.831 207.833 292.642C204.606 291.348 201.812 287.391 201.812 287.391L208.556 289.76Z" fill="black"/>
<path d="M207 270.206C213.103 269.809 215.28 272.951 216.135 279.212C217.204 287.038 215.823 292.734 208.081 291.551C197.569 289.943 196.863 270.864 207 270.206Z" fill="#FBC1AE"/>
<path d="M200.996 280.927C200.996 280.927 203.525 275.727 202.843 271.882C202.843 271.882 214.618 266.156 216.011 278.394C216.011 278.394 216.486 267.415 205.977 267.853C195.485 268.289 196.508 283.64 202.224 287.861C202.224 287.861 199.433 284.176 200.996 280.927Z" fill="#263238"/>
<path d="M202.078 282.15C201.973 281.171 200.85 279.571 199.036 279.89C197.158 280.218 196.508 284.161 201.274 284.79C201.956 284.88 202.294 284.196 202.078 282.15Z" fill="#FBC1AE"/>
<path d="M206.905 270.674C206.905 270.674 205.098 280.876 198.766 281.158C192.433 281.438 201.369 268.089 201.369 268.089C201.369 268.089 211.437 263.525 216.886 268.676C222.334 273.828 216.014 278.394 216.014 278.394C216.014 278.394 215.897 270.593 206.905 270.674Z" fill="#263238"/>
<path d="M206.797 269.965C206.797 269.965 207.988 276.774 203.139 279.504" stroke="#263238" stroke-width="0.5" stroke-miterlimit="10" stroke-linecap="round" stroke-linejoin="round"/>
<path d="M201.559 294.264L205.821 298.45L204.116 303.582L198.186 297.052L201.559 294.264Z" fill="#C0C0C0"/>
<path d="M207.723 295.138L207.034 298.363L209.243 302.919L210.619 296.999L207.723 295.138Z" fill="#C0C0C0"/>
<path d="M210.539 303.467C213.476 302.792 216.184 301.487 218.503 299.695C218.557 299.668 218.598 299.626 218.652 299.587C218.827 299.453 218.988 299.317 219.163 299.156C218.893 299.008 218.544 298.832 218.125 298.657C215.067 297.349 212.171 296.933 212.171 296.933C212.171 296.933 212.183 296.986 212.198 297.108C212.317 297.887 212.68 301.217 210.539 303.467Z" fill="#263238"/>
<path d="M191.137 297.943C191.217 298.024 191.298 298.104 191.393 298.187C194.128 300.842 197.618 302.741 201.498 303.562C201.646 303.589 201.795 303.616 201.943 303.642C201.7 303.467 201.471 303.265 201.242 303.063C200.918 302.78 200.594 302.483 200.299 302.159C199.91 301.77 199.544 301.351 199.196 300.934C199.074 300.8 198.967 300.652 198.86 300.518C198.643 300.247 198.429 299.965 198.239 299.709C198.037 299.439 197.861 299.171 197.686 298.927C197.511 298.672 197.35 298.428 197.216 298.214C196.853 297.649 196.568 297.191 196.407 296.879C196.259 296.636 196.193 296.502 196.193 296.502C196.193 296.502 193.67 297.093 191.137 297.943Z" fill="#263238"/>
<path opacity="0.1" d="M191.137 297.943C191.217 298.024 191.298 298.104 191.393 298.187C194.128 300.842 197.618 302.741 201.498 303.562C201.646 303.589 201.795 303.616 201.943 303.642C201.7 303.467 201.471 303.265 201.242 303.063C200.918 302.78 200.594 302.483 200.299 302.159C199.91 301.77 199.544 301.351 199.196 300.934C199.074 300.8 198.967 300.652 198.86 300.518C198.643 300.247 198.429 299.965 198.239 299.709C198.037 299.439 197.861 299.171 197.686 298.927C197.511 298.672 197.35 298.428 197.216 298.214C196.853 297.649 196.568 297.191 196.407 296.879C196.259 296.636 196.193 296.502 196.193 296.502C196.193 296.502 193.67 297.093 191.137 297.943Z" fill="white"/>
<path opacity="0.6" d="M201.559 294.264L205.821 298.45L204.116 303.582L198.186 297.052L201.559 294.264Z" fill="white"/>
<path opacity="0.6" d="M207.723 295.138L207.034 298.363L209.243 302.919L210.619 296.999L207.723 295.138Z" fill="white"/>
<g opacity="0.1">
<path d="M210.539 303.467C213.476 302.792 216.184 301.487 218.503 299.695C218.557 299.668 218.598 299.626 218.652 299.587C218.827 299.453 218.988 299.317 219.163 299.156C218.893 299.008 218.544 298.832 218.125 298.657C215.067 297.349 212.171 296.933 212.171 296.933C212.171 296.933 212.183 296.986 212.198 297.108C212.317 297.887 212.68 301.217 210.539 303.467Z" fill="white"/>
<path d="M191.137 297.943C191.217 298.024 191.298 298.104 191.393 298.187C194.128 300.842 197.618 302.741 201.498 303.562C201.646 303.589 201.795 303.616 201.943 303.642C201.7 303.467 201.471 303.265 201.242 303.063C200.918 302.78 200.594 302.483 200.299 302.159C199.91 301.77 199.544 301.351 199.196 300.934C199.074 300.8 198.967 300.652 198.86 300.518C198.643 300.247 198.429 299.965 198.239 299.709C198.037 299.439 197.861 299.171 197.686 298.927C197.511 298.672 197.35 298.428 197.216 298.214C196.853 297.649 196.568 297.191 196.407 296.879C196.259 296.636 196.193 296.502 196.193 296.502C196.193 296.502 193.67 297.093 191.137 297.943Z" fill="white"/>
</g>
<path opacity="0.3" d="M208.617 397.454L314.929 397.861L326.128 401.527V373.413C326.128 369.678 320.379 366.65 313.287 366.65L208.615 366.243C201.523 366.243 195.774 369.271 195.774 373.006V390.691C195.776 394.426 201.525 397.454 208.617 397.454Z" fill="black"/>
<path d="M234.978 375.771H307.763" stroke="white" stroke-miterlimit="10" stroke-linecap="round" stroke-linejoin="round"/>
<path d="M234.978 382.012H307.763" stroke="white" stroke-miterlimit="10" stroke-linecap="round" stroke-linejoin="round"/>
<path d="M234.978 388.254H279.473" stroke="white" stroke-miterlimit="10" stroke-linecap="round" stroke-linejoin="round"/>
<path d="M184.992 376.287C184.992 382.055 187.338 387.281 191.137 391.054C191.218 391.134 191.298 391.214 191.393 391.297C194.128 393.952 197.618 395.852 201.498 396.672C201.646 396.699 201.795 396.726 201.943 396.753C202.672 396.887 203.412 396.996 204.152 397.05C204.705 397.091 205.258 397.118 205.823 397.118C205.984 397.118 206.132 397.118 206.296 397.106C206.7 397.106 207.104 397.079 207.509 397.052C207.927 397.026 208.344 396.972 208.763 396.904C209.289 396.836 209.812 396.743 210.339 396.621C210.407 396.621 210.472 396.594 210.541 396.58C213.478 395.905 216.186 394.6 218.505 392.807C218.558 392.781 218.6 392.739 218.653 392.7C218.829 392.566 218.989 392.43 219.165 392.269C223.746 388.47 226.656 382.717 226.656 376.29C226.656 364.785 217.333 355.462 205.828 355.462C194.315 355.457 184.992 364.78 184.992 376.287Z" fill="#C0C0C0"/>
<path d="M193.784 372.142C193.784 372.142 191.229 381.789 194.493 384.758C197.757 387.727 216.064 387.663 218.699 384.03C221.337 380.396 215.36 368.506 215.36 368.506L193.784 372.142Z" fill="#263238"/>
<path d="M191.393 391.295C194.128 393.949 197.618 395.849 201.497 396.67C201.646 396.697 201.795 396.723 201.943 396.75C202.671 396.884 203.412 396.994 204.152 397.047C204.705 397.089 205.258 397.116 205.823 397.116C205.984 397.116 206.132 397.116 206.295 397.103C206.7 397.103 207.104 397.077 207.508 397.05C207.927 397.023 208.344 396.969 208.763 396.901C209.289 396.833 209.812 396.741 210.338 396.619V396.767C210.406 396.714 210.472 396.646 210.54 396.58C213.478 395.905 216.186 394.6 218.504 392.807C218.397 392.457 218.261 392.106 218.127 391.77L218.059 391.743L217.964 391.716L217.803 391.663C217.331 391.514 216.361 391.205 215.027 390.869L214.893 390.842C214.111 390.64 213.21 390.423 212.199 390.221C211.58 390.099 210.933 389.977 210.246 389.87C210.165 389.855 210.07 389.829 209.975 389.829C209.963 389.829 209.963 389.829 209.963 389.829C209.384 389.721 208.777 389.641 208.144 389.558C207.915 389.532 207.686 389.505 207.457 389.49C206.5 389.368 205.516 389.288 204.493 389.234C204.142 389.222 203.792 389.208 203.429 389.208C202.983 389.208 202.525 389.222 202.055 389.249C201.476 389.261 200.896 389.317 200.316 389.383C199.844 389.424 199.386 389.49 198.928 389.558H198.913C198.051 389.68 197.216 389.829 196.407 389.989C194.532 390.379 192.793 390.864 191.393 391.295Z" fill="#C0C0C0"/>
<path opacity="0.6" d="M191.393 391.295C194.128 393.949 197.618 395.849 201.497 396.67C201.646 396.697 201.795 396.723 201.943 396.75C202.671 396.884 203.412 396.994 204.152 397.047C204.705 397.089 205.258 397.116 205.823 397.116C205.984 397.116 206.132 397.116 206.295 397.103C206.7 397.103 207.104 397.077 207.508 397.05C207.927 397.023 208.344 396.969 208.763 396.901C209.289 396.833 209.812 396.741 210.338 396.619V396.767C210.406 396.714 210.472 396.646 210.54 396.58C213.478 395.905 216.186 394.6 218.504 392.807C218.397 392.457 218.261 392.106 218.127 391.77L218.059 391.743L217.964 391.716L217.803 391.663C217.331 391.514 216.361 391.205 215.027 390.869L214.893 390.842C214.111 390.64 213.21 390.423 212.199 390.221C211.58 390.099 210.933 389.977 210.246 389.87C210.165 389.855 210.07 389.829 209.975 389.829C209.963 389.829 209.963 389.829 209.963 389.829C209.384 389.721 208.777 389.641 208.144 389.558C207.915 389.532 207.686 389.505 207.457 389.49C206.5 389.368 205.516 389.288 204.493 389.234C204.142 389.222 203.792 389.208 203.429 389.208C202.983 389.208 202.525 389.222 202.055 389.249C201.476 389.261 200.896 389.317 200.316 389.383C199.844 389.424 199.386 389.49 198.928 389.558H198.913C198.051 389.68 197.216 389.829 196.407 389.989C194.532 390.379 192.793 390.864 191.393 391.295Z" fill="white"/>
<path d="M216.011 371.507C216.011 371.507 217.092 355.737 203.208 359.385C185.782 363.964 195.843 384.926 204.42 382.264C212.998 379.605 216.011 371.507 216.011 371.507Z" fill="#263238"/>
<path opacity="0.2" d="M198.183 390.162L201.242 396.171L201.498 396.67C201.647 396.697 201.795 396.723 201.944 396.75C202.672 396.884 203.412 396.994 204.153 397.047L205.823 394.824C205.999 395.525 206.147 396.292 206.296 397.101C206.7 397.101 207.104 397.074 207.509 397.047C207.387 395.686 207.294 394.824 207.294 394.824L208.763 396.899C209.289 396.831 209.813 396.738 210.339 396.616L210.621 390.109C210.405 390.002 210.19 389.907 209.973 389.826C209.961 389.826 209.961 389.826 209.961 389.826C209.313 389.556 208.641 389.368 207.967 389.234C207.818 389.208 207.669 389.181 207.521 389.166C206.079 388.937 204.625 388.949 203.305 389.086C202.874 389.127 202.443 389.181 202.053 389.247C201.271 389.354 200.57 389.502 199.993 389.651H199.981C199.011 389.892 198.364 390.094 198.215 390.15L198.183 390.162Z" fill="black"/>
<path d="M206.54 391.763L199.732 389.839C203.926 386.95 201.812 380.496 201.812 380.496L208.556 382.866C208.196 383.986 207.969 384.936 207.833 385.747C207.129 389.953 209.029 390.289 209.029 390.289L206.54 391.763Z" fill="#FBC1AE"/>
<path opacity="0.2" d="M208.556 382.871C208.196 383.991 207.969 384.941 207.833 385.752C204.606 384.458 201.812 380.501 201.812 380.501L208.556 382.871Z" fill="black"/>
<path d="M207 363.316C213.103 362.919 215.28 366.061 216.135 372.323C217.204 380.148 215.823 385.844 208.081 384.661C197.569 383.053 196.863 363.974 207 363.316Z" fill="#FBC1AE"/>
<path d="M200.996 374.037C200.996 374.037 203.525 368.837 202.843 364.992C202.843 364.992 214.618 359.266 216.011 371.504C216.011 371.504 216.486 360.525 205.977 360.963C195.485 361.399 196.508 376.75 202.224 380.971C202.224 380.971 199.433 377.286 200.996 374.037Z" fill="#263238"/>
<path d="M202.078 375.26C201.973 374.281 200.85 372.681 199.036 373C197.158 373.329 196.508 377.272 201.274 377.9C201.956 377.99 202.294 377.306 202.078 375.26Z" fill="#FBC1AE"/>
<path d="M206.905 363.784C206.905 363.784 205.098 373.986 198.766 374.269C192.433 374.549 201.369 361.2 201.369 361.2C201.369 361.2 211.437 356.636 216.886 361.787C222.334 366.938 216.014 371.504 216.014 371.504C216.014 371.504 215.897 363.703 206.905 363.784Z" fill="#263238"/>
<path d="M206.797 363.075C206.797 363.075 207.988 369.884 203.139 372.615" stroke="#263238" stroke-width="0.5" stroke-miterlimit="10" stroke-linecap="round" stroke-linejoin="round"/>
<path d="M201.559 387.374L205.821 391.56L204.116 396.692L198.186 390.162L201.559 387.374Z" fill="#C0C0C0"/>
<path d="M207.723 388.248L207.034 391.473L209.243 396.03L210.619 390.109L207.723 388.248Z" fill="#C0C0C0"/>
<path d="M210.539 396.577C213.476 395.903 216.184 394.597 218.503 392.805C218.557 392.778 218.598 392.736 218.652 392.698C218.827 392.564 218.988 392.427 219.163 392.266C218.893 392.118 218.544 391.943 218.125 391.767C215.067 390.459 212.171 390.043 212.171 390.043C212.171 390.043 212.183 390.096 212.198 390.218C212.317 390.998 212.68 394.327 210.539 396.577Z" fill="#263238"/>
<path d="M191.137 391.054C191.217 391.134 191.298 391.214 191.393 391.297C194.128 393.952 197.618 395.852 201.498 396.672C201.646 396.699 201.795 396.726 201.943 396.753C201.7 396.577 201.471 396.375 201.242 396.173C200.918 395.89 200.594 395.593 200.299 395.269C199.91 394.88 199.544 394.461 199.196 394.044C199.074 393.91 198.967 393.762 198.86 393.628C198.643 393.358 198.429 393.075 198.239 392.819C198.037 392.549 197.861 392.281 197.686 392.038C197.511 391.782 197.35 391.538 197.216 391.324C196.853 390.759 196.568 390.301 196.407 389.989C196.259 389.746 196.193 389.612 196.193 389.612C196.193 389.612 193.67 390.204 191.137 391.054Z" fill="#263238"/>
<path opacity="0.1" d="M191.137 391.054C191.217 391.134 191.298 391.214 191.393 391.297C194.128 393.952 197.618 395.852 201.498 396.672C201.646 396.699 201.795 396.726 201.943 396.753C201.7 396.577 201.471 396.375 201.242 396.173C200.918 395.89 200.594 395.593 200.299 395.269C199.91 394.88 199.544 394.461 199.196 394.044C199.074 393.91 198.967 393.762 198.86 393.628C198.643 393.358 198.429 393.075 198.239 392.819C198.037 392.549 197.861 392.281 197.686 392.038C197.511 391.782 197.35 391.538 197.216 391.324C196.853 390.759 196.568 390.301 196.407 389.989C196.259 389.746 196.193 389.612 196.193 389.612C196.193 389.612 193.67 390.204 191.137 391.054Z" fill="white"/>
<path opacity="0.6" d="M201.559 387.374L205.821 391.56L204.116 396.692L198.186 390.162L201.559 387.374Z" fill="white"/>
<path opacity="0.6" d="M207.723 388.248L207.034 391.473L209.243 396.03L210.619 390.109L207.723 388.248Z" fill="white"/>
<g opacity="0.1">
<path d="M210.539 396.577C213.476 395.903 216.184 394.597 218.503 392.805C218.557 392.778 218.598 392.736 218.652 392.698C218.827 392.564 218.988 392.427 219.163 392.266C218.893 392.118 218.544 391.943 218.125 391.767C215.067 390.459 212.171 390.043 212.171 390.043C212.171 390.043 212.183 390.096 212.198 390.218C212.317 390.998 212.68 394.327 210.539 396.577Z" fill="white"/>
<path d="M191.137 391.054C191.217 391.134 191.298 391.214 191.393 391.297C194.128 393.952 197.618 395.852 201.498 396.672C201.646 396.699 201.795 396.726 201.943 396.753C201.7 396.577 201.471 396.375 201.242 396.173C200.918 395.89 200.594 395.593 200.299 395.269C199.91 394.88 199.544 394.461 199.196 394.044C199.074 393.91 198.967 393.762 198.86 393.628C198.643 393.358 198.429 393.075 198.239 392.819C198.037 392.549 197.861 392.281 197.686 392.038C197.511 391.782 197.35 391.538 197.216 391.324C196.853 390.759 196.568 390.301 196.407 389.989C196.259 389.746 196.193 389.612 196.193 389.612C196.193 389.612 193.67 390.204 191.137 391.054Z" fill="white"/>
</g>
<path d="M446.579 350.409L340.267 350.816L329.068 354.481V326.368C329.068 322.632 334.817 319.605 341.909 319.605L446.581 319.198C453.674 319.198 459.422 322.226 459.422 325.961V343.646C459.42 347.381 453.671 350.409 446.579 350.409Z" fill="#00D29E"/>
<path d="M342.79 328.726H422.178" stroke="white" stroke-miterlimit="10" stroke-linecap="round" stroke-linejoin="round"/>
<path d="M342.79 334.967H422.178" stroke="white" stroke-miterlimit="10" stroke-linecap="round" stroke-linejoin="round"/>
<path d="M342.79 341.208H391.322" stroke="white" stroke-miterlimit="10" stroke-linecap="round" stroke-linejoin="round"/>
<path d="M470.643 329.709C470.643 336.283 467.68 342.16 462.998 346.045L462.475 346.493C462.425 346.518 462.375 346.568 462.326 346.593C462.251 346.643 462.201 346.693 462.126 346.742C459.811 348.511 457.096 349.781 454.182 350.453C454.108 350.453 454.033 350.503 453.958 350.503C453.435 350.627 452.887 350.702 452.364 350.777C451.941 350.851 451.493 350.901 451.07 350.926C450.671 350.951 450.248 350.976 449.849 350.976C449.675 351.001 449.526 351.001 449.351 351.001C448.778 351.001 448.206 350.976 447.658 350.926C446.886 350.876 446.139 350.777 445.392 350.627L444.943 350.553C441.606 349.855 438.568 348.361 436.028 346.294C435.53 345.921 435.057 345.497 434.609 345.049C434.509 344.974 434.434 344.875 434.335 344.8C430.45 340.94 428.059 335.611 428.059 329.709C428.059 317.929 437.597 308.416 449.351 308.416C461.13 308.416 470.643 317.929 470.643 329.709Z" fill="white"/>
<path d="M455.139 339.219H443.265V345.784H455.139V339.219Z" fill="#263238"/>
<path opacity="0.3" d="M455.139 339.219H443.265V345.784H455.139V339.219Z" fill="white"/>
<path opacity="0.2" d="M455.139 341.488H443.265V341.814H455.139V341.488Z" fill="black"/>
<path opacity="0.2" d="M455.139 342.922H443.265V343.248H455.139V342.922Z" fill="black"/>
<path opacity="0.2" d="M455.139 344.352H443.265V344.678H455.139V344.352Z" fill="black"/>
<path opacity="0.2" d="M455.139 339.219V340.885C452.116 341.969 447.118 343.5 443.265 343.363V339.219H455.139Z" fill="black"/>
<path d="M460.052 320.515H451.884H442.956H439.281C436.773 320.515 434.741 322.547 434.741 325.054V336.689C434.741 339.197 436.773 341.229 439.281 341.229H442.956H451.884H460.052C462.56 341.229 464.592 339.197 464.592 336.689V325.054C464.595 322.547 462.56 320.515 460.052 320.515Z" fill="#00D29E"/>
<path opacity="0.2" d="M460.052 320.517H451.884C454.392 320.517 456.427 322.547 456.427 325.054V336.691C456.427 339.199 454.392 341.229 451.884 341.229H460.052C462.56 341.229 464.595 339.199 464.595 336.691V325.054C464.595 322.547 462.56 320.517 460.052 320.517Z" fill="black"/>
<path d="M451.637 322.519H439.285C437.751 322.519 436.509 323.762 436.509 325.296V336.445C436.509 337.979 437.751 339.222 439.285 339.222H451.637C453.171 339.222 454.414 337.979 454.414 336.445V325.296C454.414 323.765 453.171 322.519 451.637 322.519Z" fill="#263238"/>
<path d="M461.943 328.606C461.771 328.606 461.631 328.466 461.631 328.294V314.767C461.631 314.595 461.771 314.456 461.943 314.456C462.115 314.456 462.254 314.595 462.254 314.767V328.294C462.254 328.466 462.115 328.606 461.943 328.606Z" fill="#263238"/>
<path d="M465.645 330.872C465.645 331.619 465.491 332.319 465.217 332.934C465.013 333.407 464.734 333.828 464.405 334.179C463.753 334.881 462.889 335.302 461.942 335.302C459.9 335.302 458.242 333.322 458.242 330.869C458.242 328.424 459.9 326.439 461.942 326.439C462.894 326.439 463.755 326.867 464.418 327.57C464.744 327.921 465.018 328.342 465.222 328.815C465.489 329.43 465.645 330.132 465.645 330.872Z" fill="#00D29E"/>
<g opacity="0.4">
<path d="M463.223 334.052C461.773 334.052 460.595 332.627 460.595 330.869C460.595 329.116 461.771 327.692 463.223 327.692C464.022 327.692 464.742 328.13 465.22 328.815C465.016 328.342 464.742 327.921 464.416 327.57C464.047 327.385 463.648 327.283 463.223 327.283C461.549 327.283 460.187 328.892 460.187 330.869C460.187 332.852 461.547 334.46 463.223 334.46C463.644 334.46 464.039 334.363 464.403 334.179C464.734 333.828 465.011 333.407 465.215 332.934C464.737 333.619 464.022 334.052 463.223 334.052Z" fill="black"/>
</g>
<path d="M449.668 328.302C449.668 329.019 449.346 329.602 448.95 329.602C448.554 329.602 448.233 329.019 448.233 328.302C448.233 327.585 448.554 327.002 448.95 327.002C449.346 327.002 449.668 327.585 449.668 328.302Z" fill="white"/>
<path d="M441.206 329.594C441.602 329.594 441.923 329.012 441.923 328.294C441.923 327.576 441.602 326.994 441.206 326.994C440.81 326.994 440.488 327.576 440.488 328.294C440.488 329.012 440.81 329.594 441.206 329.594Z" fill="white"/>
<path opacity="0.4" d="M445.038 334.329C445.86 335.123 447.003 336.762 447.003 336.762C447.17 336.684 447.337 336.607 447.501 336.522C449.742 335.422 450.42 334.169 450.49 333.118C450.524 332.543 450.373 332.02 450.196 331.622C449.996 331.158 449.747 330.872 449.747 330.872C448.908 332.167 446.896 333.352 445.795 333.942C445.337 334.192 445.038 334.329 445.038 334.329Z" fill="white"/>
<path d="M445.798 333.94L446.395 334.642C448.505 333.601 449.849 332.583 450.198 331.619C449.999 331.156 449.75 330.87 449.75 330.87C448.908 332.164 446.898 333.352 445.798 333.94Z" fill="white"/>
<path d="M447.501 336.522C449.742 335.422 450.42 334.169 450.49 333.118C449.74 333.522 448.881 334.094 448.241 334.834C447.753 335.397 447.561 335.987 447.501 336.522Z" fill="#00D29E"/>
<path d="M462.126 346.742C459.81 348.51 457.096 349.781 454.182 350.453C454.107 350.453 454.033 350.503 453.958 350.503C453.435 350.627 452.887 350.702 452.364 350.777C451.941 350.851 451.493 350.901 451.069 350.926C450.671 350.951 450.248 350.976 449.849 350.976C449.675 351.001 449.525 351.001 449.351 351.001C448.778 351.001 448.205 350.976 447.658 350.926C446.886 350.876 446.138 350.777 445.391 350.627L444.943 350.553C441.606 349.855 438.568 348.361 436.028 346.294C436.999 345.547 438.219 345.099 439.539 345.099H458.142C459.686 345.099 461.08 345.721 462.126 346.742Z" fill="#00D29E"/>
<g clip-path="url(#clip0_1_539)">
<path d="M213.777 323.118H172.451C170.717 323.118 169.311 324.529 169.311 326.271V338.444C169.311 340.185 170.717 341.596 172.451 341.596H191.193L194.067 347.532V341.596H213.777C215.512 341.596 216.918 340.185 216.918 338.444V326.271C216.918 324.529 215.512 323.118 213.777 323.118Z" fill="#B3B3B3"/>
<path d="M179.532 329.801V334.974H178.928L176.12 330.912H176.07V334.974H175.446V329.801H176.05L178.868 333.873H178.918V329.801H179.532ZM182.321 335.055C181.948 335.055 181.627 334.973 181.357 334.807C181.089 334.641 180.882 334.408 180.736 334.11C180.591 333.81 180.519 333.462 180.519 333.064C180.519 332.667 180.591 332.317 180.736 332.014C180.882 331.709 181.085 331.471 181.345 331.301C181.606 331.129 181.912 331.043 182.26 331.043C182.462 331.043 182.661 331.077 182.857 331.145C183.053 331.212 183.232 331.321 183.393 331.473C183.554 331.623 183.682 331.822 183.778 332.069C183.873 332.317 183.921 332.621 183.921 332.984V333.236H180.942V332.721H183.317C183.317 332.502 183.274 332.307 183.186 332.135C183.101 331.963 182.978 331.827 182.819 331.728C182.661 331.629 182.475 331.579 182.26 331.579C182.024 331.579 181.819 331.638 181.646 331.756C181.475 331.872 181.344 332.024 181.251 332.211C181.159 332.398 181.113 332.598 181.113 332.812V333.155C181.113 333.448 181.163 333.697 181.264 333.901C181.366 334.103 181.508 334.257 181.689 334.363C181.87 334.467 182.081 334.519 182.321 334.519C182.477 334.519 182.618 334.498 182.744 334.454C182.871 334.408 182.981 334.341 183.073 334.252C183.165 334.161 183.237 334.048 183.287 333.913L183.861 334.075C183.8 334.27 183.699 334.442 183.556 334.59C183.414 334.737 183.238 334.851 183.028 334.934C182.818 335.015 182.582 335.055 182.321 335.055ZM186.445 335.055C186.073 335.055 185.751 334.973 185.481 334.807C185.213 334.641 185.006 334.408 184.86 334.11C184.715 333.81 184.643 333.462 184.643 333.064C184.643 332.667 184.715 332.317 184.86 332.014C185.006 331.709 185.209 331.471 185.469 331.301C185.73 331.129 186.036 331.043 186.385 331.043C186.586 331.043 186.785 331.077 186.981 331.145C187.177 331.212 187.356 331.321 187.517 331.473C187.678 331.623 187.806 331.822 187.902 332.069C187.997 332.317 188.045 332.621 188.045 332.984V333.236H185.066V332.721H187.441C187.441 332.502 187.398 332.307 187.311 332.135C187.225 331.963 187.103 331.827 186.943 331.728C186.785 331.629 186.599 331.579 186.385 331.579C186.148 331.579 185.943 331.638 185.771 331.756C185.6 331.872 185.468 332.024 185.376 332.211C185.283 332.398 185.237 332.598 185.237 332.812V333.155C185.237 333.448 185.288 333.697 185.388 333.901C185.49 334.103 185.632 334.257 185.813 334.363C185.994 334.467 186.205 334.519 186.445 334.519C186.601 334.519 186.742 334.498 186.868 334.454C186.995 334.408 187.105 334.341 187.197 334.252C187.29 334.161 187.361 334.048 187.411 333.913L187.985 334.075C187.924 334.27 187.823 334.442 187.68 334.59C187.538 334.737 187.362 334.851 187.152 334.934C186.942 335.015 186.707 335.055 186.445 335.055ZM190.408 335.055C190.086 335.055 189.802 334.973 189.555 334.81C189.308 334.645 189.116 334.413 188.976 334.113C188.837 333.811 188.767 333.455 188.767 333.044C188.767 332.637 188.837 332.283 188.976 331.983C189.116 331.683 189.309 331.452 189.557 331.289C189.806 331.125 190.093 331.043 190.418 331.043C190.67 331.043 190.868 331.086 191.014 331.17C191.162 331.252 191.274 331.347 191.352 331.453C191.43 331.557 191.492 331.643 191.535 331.71H191.586V329.801H192.179V334.974H191.606V334.378H191.535C191.492 334.449 191.43 334.538 191.349 334.646C191.269 334.752 191.154 334.847 191.004 334.931C190.855 335.014 190.656 335.055 190.408 335.055ZM190.488 334.519C190.727 334.519 190.928 334.457 191.092 334.333C191.257 334.206 191.382 334.032 191.467 333.81C191.553 333.586 191.596 333.327 191.596 333.034C191.596 332.744 191.554 332.491 191.47 332.274C191.386 332.055 191.262 331.885 191.097 331.763C190.933 331.64 190.73 331.579 190.488 331.579C190.237 331.579 190.027 331.644 189.859 331.774C189.693 331.902 189.568 332.076 189.485 332.296C189.402 332.515 189.361 332.761 189.361 333.034C189.361 333.31 189.403 333.561 189.487 333.787C189.573 334.011 189.698 334.189 189.864 334.322C190.032 334.454 190.24 334.519 190.488 334.519ZM195.423 334.974V329.801H196.047V332.104H198.795V329.801H199.419V334.974H198.795V332.66H196.047V334.974H195.423ZM202.208 335.055C201.835 335.055 201.514 334.973 201.244 334.807C200.976 334.641 200.769 334.408 200.623 334.11C200.478 333.81 200.406 333.462 200.406 333.064C200.406 332.667 200.478 332.317 200.623 332.014C200.769 331.709 200.972 331.471 201.232 331.301C201.493 331.129 201.799 331.043 202.147 331.043C202.349 331.043 202.548 331.077 202.744 331.145C202.94 331.212 203.119 331.321 203.28 331.473C203.441 331.623 203.569 331.822 203.665 332.069C203.76 332.317 203.808 332.621 203.808 332.984V333.236H200.829V332.721H203.204C203.204 332.502 203.161 332.307 203.073 332.135C202.988 331.963 202.865 331.827 202.706 331.728C202.548 331.629 202.362 331.579 202.147 331.579C201.911 331.579 201.706 331.638 201.533 331.756C201.362 331.872 201.231 332.024 201.138 332.211C201.046 332.398 201 332.598 201 332.812V333.155C201 333.448 201.05 333.697 201.151 333.901C201.253 334.103 201.395 334.257 201.576 334.363C201.757 334.467 201.968 334.519 202.208 334.519C202.364 334.519 202.505 334.498 202.631 334.454C202.758 334.408 202.868 334.341 202.96 334.252C203.052 334.161 203.124 334.048 203.174 333.913L203.748 334.075C203.687 334.27 203.586 334.442 203.443 334.59C203.301 334.737 203.125 334.851 202.915 334.934C202.705 335.015 202.47 335.055 202.208 335.055ZM205.305 329.801V334.974H204.712V329.801H205.305ZM206.393 336.429V331.094H206.967V331.71H207.037C207.081 331.643 207.141 331.557 207.218 331.453C207.297 331.347 207.41 331.252 207.555 331.17C207.703 331.086 207.903 331.043 208.154 331.043C208.48 331.043 208.767 331.125 209.015 331.289C209.263 331.452 209.457 331.683 209.596 331.983C209.735 332.283 209.805 332.637 209.805 333.044C209.805 333.455 209.735 333.811 209.596 334.113C209.457 334.413 209.264 334.645 209.017 334.81C208.771 334.973 208.486 335.055 208.164 335.055C207.916 335.055 207.717 335.014 207.568 334.931C207.419 334.847 207.304 334.752 207.223 334.646C207.143 334.538 207.081 334.449 207.037 334.378H206.987V336.429H206.393ZM206.977 333.034C206.977 333.327 207.019 333.586 207.105 333.81C207.191 334.032 207.316 334.206 207.48 334.333C207.644 334.457 207.846 334.519 208.084 334.519C208.332 334.519 208.539 334.454 208.705 334.322C208.873 334.189 208.999 334.011 209.083 333.787C209.168 333.561 209.211 333.31 209.211 333.034C209.211 332.761 209.169 332.515 209.085 332.296C209.003 332.076 208.878 331.902 208.71 331.774C208.544 331.644 208.335 331.579 208.084 331.579C207.842 331.579 207.639 331.64 207.475 331.763C207.311 331.885 207.186 332.055 207.103 332.274C207.019 332.491 206.977 332.744 206.977 333.034Z" fill="white"/>
</g>
<path d="M156.954 286.051C155.25 280.338 149.239 277.089 143.527 278.792C137.815 280.496 134.566 286.508 136.27 292.22C137.115 295.054 139.02 297.281 141.423 298.598L141.422 298.598C141.422 298.598 145.551 301.012 147.696 304.346C147.696 304.346 149.686 304.42 151.06 304.048C152.414 303.607 154.038 302.454 154.038 302.454C154.006 298.49 156.138 294.209 156.138 294.209L156.137 294.209C157.426 291.791 157.799 288.884 156.954 286.051Z" fill="#00D29E" fill-opacity="0.4"/>
<path d="M152.677 309.478C151.789 309.743 150.855 309.238 150.59 308.35L153.805 307.391C154.07 308.279 153.565 309.213 152.677 309.478Z" fill="#4E4D4D"/>
<path d="M152.329 308.311C150.425 308.879 148.421 307.795 147.853 305.891L147.171 303.604L154.066 301.547L154.748 303.835C155.316 305.739 154.233 307.743 152.329 308.311Z" fill="#4E4D4D"/>
<g opacity="0.3">
<path d="M156.954 286.051C156.323 283.934 155.101 282.156 153.521 280.843C152.72 289.199 149.391 295.651 143.022 299.668C144.239 300.555 145.915 301.938 147.176 303.603L154.066 301.547L154.066 301.548C154.318 297.865 156.138 294.209 156.138 294.209L156.137 294.209C157.426 291.791 157.8 288.884 156.954 286.051Z" fill="#00D29E" fill-opacity="0.4"/>
</g>
<path d="M152.323 302.111L152.003 302.119C152.002 302.081 151.908 298.246 151.494 294.414C150.774 287.765 149.708 286.627 149.137 286.541C148.552 286.453 148.162 286.616 147.977 287.027C147.964 287.056 147.952 287.087 147.941 287.119C148.791 287.33 149.161 287.933 149.282 288.185C149.615 288.883 149.505 289.711 149.038 290.032C148.925 290.109 148.69 290.201 148.388 289.948C147.908 289.547 147.431 288.327 147.553 287.383C147.154 287.344 146.698 287.395 146.202 287.543L145.904 287.632C145.408 287.78 144.998 287.987 144.686 288.238C145.305 288.962 145.575 290.243 145.393 290.841C145.279 291.218 145.032 291.27 144.895 291.267C144.328 291.255 143.783 290.622 143.68 289.856C143.642 289.579 143.622 288.871 144.217 288.23C144.191 288.209 144.164 288.19 144.136 288.172C143.756 287.93 143.34 288.007 142.9 288.401C142.469 288.786 142.2 290.322 145.241 296.279C146.994 299.712 149.016 302.971 149.036 303.004L148.764 303.173C148.744 303.14 146.715 299.871 144.957 296.426C142.529 291.671 141.786 288.967 142.686 288.162C143.385 287.538 143.954 287.676 144.308 287.902C144.358 287.934 144.406 287.969 144.453 288.008C144.769 287.746 145.207 287.506 145.812 287.325L146.111 287.236C146.717 287.056 147.214 287.016 147.622 287.062C147.64 287.005 147.661 286.949 147.686 286.895C147.858 286.512 148.258 286.084 149.185 286.224C150.379 286.405 151.238 289.073 151.812 294.381C152.228 298.227 152.322 302.073 152.323 302.111ZM144.451 288.456C144.091 288.841 143.928 289.306 143.997 289.813C144.087 290.482 144.538 290.939 144.902 290.947C144.935 290.948 145.026 290.95 145.087 290.749C145.242 290.236 144.98 289.083 144.451 288.456ZM147.869 287.436C147.77 288.25 148.182 289.359 148.593 289.703C148.755 289.838 148.829 289.786 148.857 289.767C149.157 289.561 149.283 288.932 148.993 288.323C148.772 287.861 148.381 287.561 147.869 287.436Z" fill="#00D29E"/>
<path d="M147.142 303.691C146.989 303.48 146.927 303.405 146.789 303.24L146.713 303.15C144.523 300.519 141.413 298.686 141.382 298.668L141.372 298.662C138.854 297.277 137.015 294.998 136.193 292.243C134.479 286.498 137.759 280.429 143.504 278.716C147.031 277.663 150.818 278.455 153.635 280.833L153.531 280.955C150.757 278.612 147.025 277.832 143.55 278.869C137.89 280.557 134.658 286.536 136.347 292.197C137.157 294.916 138.974 297.164 141.461 298.528L141.591 298.6L141.585 298.603C142.185 298.972 144.875 300.693 146.836 303.048L146.911 303.137C147.052 303.305 147.116 303.382 147.272 303.598L147.142 303.691Z" fill="#21111D"/>
<path d="M137.965 286.515L137.805 286.516C137.805 286.488 137.81 283.714 140.098 281.99L140.194 282.117C137.972 283.792 137.965 286.488 137.965 286.515Z" fill="#21111D"/>
<path d="M138.714 287.294L138.554 287.295C138.553 287.267 138.559 284.493 140.846 282.769L140.942 282.896C138.721 284.571 138.713 287.267 138.714 287.294Z" fill="#21111D"/>
<path d="M152.728 308.275L151.976 308.499C150.24 309.017 148.406 308.026 147.888 306.29L147.071 303.55L154.043 301.471L154.089 301.624L147.27 303.658L148.042 306.244C148.534 307.896 150.279 308.839 151.93 308.346L152.682 308.122C153.473 307.886 154.128 307.358 154.526 306.635L154.666 306.713C154.247 307.472 153.559 308.027 152.728 308.275Z" fill="#21111D"/>
<path d="M152.745 309.542C151.25 309.988 150.602 308.602 150.596 308.588L150.742 308.522C150.766 308.575 151.356 309.824 152.749 309.373L152.798 309.526C152.78 309.531 152.762 309.537 152.745 309.542Z" fill="#21111D"/>
<path d="M155.431 292.81L155.303 292.714C156.366 291.294 156.076 289.539 156.073 289.522L156.231 289.494C156.234 289.512 156.536 291.333 155.431 292.81Z" fill="#21111D"/>
<path d="M154.909 292.163L154.781 292.067C155.556 291.032 155.345 289.752 155.343 289.74L155.501 289.712C155.51 289.767 155.727 291.072 154.909 292.163Z" fill="#21111D"/>
<path d="M147.266 305.077L147.218 304.924C147.276 304.906 153.068 303.097 154.704 301.861L154.801 301.989C153.142 303.241 147.505 305.003 147.266 305.077Z" fill="#21111D"/>
<path d="M147.653 306.373L147.604 306.22C147.667 306.2 153.939 304.193 154.93 303.209L155.043 303.323C154.025 304.334 147.912 306.29 147.653 306.373Z" fill="#21111D"/>
<path d="M148.366 307.608L148.319 307.455C148.375 307.438 154.019 305.689 155.302 304.453L155.413 304.569C154.103 305.831 148.599 307.536 148.366 307.608Z" fill="#21111D"/>
<path d="M133.148 291.378C133.141 291.38 133.134 291.382 133.128 291.383L129.375 292.164C129.245 292.191 129.118 292.107 129.091 291.977C129.064 291.848 129.147 291.721 129.277 291.693L133.03 290.913C133.16 290.886 133.287 290.97 133.314 291.099C133.339 291.223 133.266 291.343 133.148 291.378Z" fill="#00D29E"/>
<path d="M133.301 284.983C133.257 284.996 133.208 284.996 133.16 284.981L129.509 283.811C129.383 283.77 129.314 283.635 129.354 283.509C129.395 283.383 129.53 283.313 129.656 283.353L133.306 284.524C133.432 284.564 133.502 284.699 133.462 284.826C133.436 284.904 133.375 284.961 133.301 284.983Z" fill="#00D29E"/>
<path d="M137.532 279.166C137.442 279.193 137.339 279.164 137.276 279.086L134.879 276.095C134.796 275.991 134.812 275.84 134.916 275.757C135.019 275.674 135.17 275.691 135.253 275.794L137.651 278.785C137.734 278.889 137.717 279.04 137.614 279.123C137.589 279.143 137.561 279.157 137.532 279.166Z" fill="#00D29E"/>
<path d="M159.119 284.354C158.999 284.39 158.87 284.327 158.826 284.207C158.779 284.083 158.843 283.945 158.967 283.899L162.56 282.563C162.683 282.518 162.822 282.581 162.869 282.705C162.915 282.829 162.852 282.967 162.727 283.014L159.134 284.349C159.129 284.351 159.124 284.352 159.119 284.354Z" fill="#00D29E"/>
<path d="M155.587 279.02C155.512 279.042 155.428 279.027 155.364 278.973C155.262 278.888 155.249 278.736 155.335 278.635L157.803 275.702C157.889 275.601 158.041 275.588 158.142 275.673C158.243 275.759 158.256 275.91 158.171 276.012L155.702 278.944C155.671 278.981 155.631 279.007 155.587 279.02Z" fill="#00D29E"/>
<path d="M149.458 275.594C149.428 275.603 149.396 275.606 149.362 275.602C149.231 275.587 149.136 275.468 149.151 275.336L149.591 271.528C149.606 271.396 149.725 271.302 149.857 271.317C149.989 271.332 150.083 271.451 150.068 271.583L149.628 275.391C149.617 275.489 149.548 275.567 149.458 275.594Z" fill="#00D29E"/>
<path d="M143.025 275.566C143.024 275.566 143.023 275.567 143.022 275.567C142.894 275.603 142.761 275.529 142.725 275.401L141.686 271.711C141.651 271.585 141.723 271.453 141.849 271.416C141.85 271.415 141.851 271.415 141.852 271.415C141.98 271.379 142.113 271.453 142.149 271.581L143.188 275.271C143.223 275.397 143.151 275.529 143.025 275.566Z" fill="#00D29E"/>
<g opacity="0.5">
<path opacity="0.5" d="M152.066 282.077C151.872 282.747 150.577 282.96 149.175 282.553C147.772 282.145 146.793 281.272 146.987 280.602C147.182 279.932 148.476 279.719 149.879 280.127C151.281 280.534 152.261 281.407 152.066 282.077Z" fill="#F3FFFE"/>
</g>
<defs>
<filter id="filter0_f_1_539" x="-229" y="-241" width="769" height="769" filterUnits="userSpaceOnUse" color-interpolation-filters="sRGB">
<feFlood flood-opacity="0" result="BackgroundImageFix"/>
<feBlend mode="normal" in="SourceGraphic" in2="BackgroundImageFix" result="shape"/>
<feGaussianBlur stdDeviation="150" result="effect1_foregroundBlur_1_539"/>
</filter>
<filter id="filter1_f_1_539" x="47.5" y="-28.5" width="899" height="899" filterUnits="userSpaceOnUse" color-interpolation-filters="sRGB">
<feFlood flood-opacity="0" result="BackgroundImageFix"/>
<feBlend mode="normal" in="SourceGraphic" in2="BackgroundImageFix" result="shape"/>
<feGaussianBlur stdDeviation="177.25" result="effect1_foregroundBlur_1_539"/>
</filter>
<filter id="filter2_f_1_539" x="-220" y="357" width="765" height="765" filterUnits="userSpaceOnUse" color-interpolation-filters="sRGB">
<feFlood flood-opacity="0" result="BackgroundImageFix"/>
<feBlend mode="normal" in="SourceGraphic" in2="BackgroundImageFix" result="shape"/>
<feGaussianBlur stdDeviation="150" result="effect1_foregroundBlur_1_539"/>
</filter>
<linearGradient id="paint0_linear_1_539" x1="148.655" y1="428.969" x2="524.798" y2="428.969" gradientUnits="userSpaceOnUse">
<stop stop-color="#2C2C32"/>
<stop offset="1" stop-color="#525255"/>
</linearGradient>
<clipPath id="clip0_1_539">
<rect width="48.0252" height="24.5027" fill="white" transform="translate(169.311 323.118)"/>
</clipPath>
</defs>
</svg>
