<svg width="20" height="21" viewBox="0 0 20 21" fill="none" xmlns="http://www.w3.org/2000/svg">
<path d="M2.00299 6.384L9.99999 10.382L17.997 6.384C17.9674 5.87444 17.7441 5.39549 17.3728 5.04523C17.0015 4.69497 16.5104 4.49991 16 4.5H3.99999C3.48958 4.49991 2.99844 4.69497 2.62717 5.04523C2.2559 5.39549 2.03259 5.87444 2.00299 6.384Z" fill="#00CC99"/>
<path d="M18 8.61816L10 12.6182L2 8.61816V14.5002C2 15.0306 2.21071 15.5393 2.58579 15.9144C2.96086 16.2895 3.46957 16.5002 4 16.5002H16C16.5304 16.5002 17.0391 16.2895 17.4142 15.9144C17.7893 15.5393 18 15.0306 18 14.5002V8.61816Z" fill="#00CC99"/>
</svg>
