<svg width="20" height="21" viewBox="0 0 20 21" fill="none" xmlns="http://www.w3.org/2000/svg">
<path fill-rule="evenodd" clip-rule="evenodd" d="M18 8.49995C18.0003 9.43712 17.781 10.3613 17.3598 11.1985C16.9386 12.0357 16.3271 12.7625 15.5744 13.3208C14.8216 13.8791 13.9486 14.2533 13.0252 14.4135C12.1018 14.5736 11.1538 14.5152 10.257 14.243L10 14.5L9 15.5L8 16.5H6V18.5H2V14.5L6.257 10.243C6.00745 9.41797 5.93857 8.5489 6.05504 7.6949C6.17152 6.8409 6.47062 6.02202 6.93199 5.294C7.39336 4.56598 8.00616 3.9459 8.72869 3.47597C9.45122 3.00605 10.2665 2.6973 11.1191 2.57076C11.9716 2.44421 12.8415 2.50284 13.6693 2.74264C14.4972 2.98244 15.2637 3.39779 15.9166 3.96042C16.5696 4.52305 17.0936 5.21974 17.4531 6.00309C17.8127 6.78644 17.9992 7.63805 18 8.49995ZM12 4.49995C11.7348 4.49995 11.4804 4.60531 11.2929 4.79285C11.1054 4.98038 11 5.23474 11 5.49995C11 5.76517 11.1054 6.01952 11.2929 6.20706C11.4804 6.3946 11.7348 6.49995 12 6.49995C12.5304 6.49995 13.0391 6.71067 13.4142 7.08574C13.7893 7.46081 14 7.96952 14 8.49995C14 8.76517 14.1054 9.01952 14.2929 9.20706C14.4804 9.3946 14.7348 9.49995 15 9.49995C15.2652 9.49995 15.5196 9.3946 15.7071 9.20706C15.8946 9.01952 16 8.76517 16 8.49995C16 7.43909 15.5786 6.42167 14.8284 5.67153C14.0783 4.92138 13.0609 4.49995 12 4.49995Z" fill="#00CC99"/>
</svg>
