<svg width="21" height="21" viewBox="0 0 21 21" fill="none" xmlns="http://www.w3.org/2000/svg">
<path d="M14.086 3.70384C14.2705 3.51282 14.4912 3.36045 14.7352 3.25564C14.9792 3.15082 15.2416 3.09564 15.5072 3.09334C15.7728 3.09103 16.0361 3.14163 16.2819 3.24219C16.5277 3.34276 16.751 3.49126 16.9388 3.67905C17.1266 3.86683 17.2751 4.09014 17.3756 4.33593C17.4762 4.58172 17.5268 4.84508 17.5245 5.11064C17.5222 5.3762 17.467 5.63864 17.3622 5.88265C17.2574 6.12666 17.105 6.34734 16.914 6.53184L16.121 7.32484L13.293 4.49684L14.086 3.70384ZM11.879 5.91084L3.5 14.2898V17.1178H6.328L14.708 8.73884L11.878 5.91084H11.879Z" fill="#00CC99"/>
</svg>
