<svg width="14" height="15" viewBox="0 0 14 15" fill="#00D29E" xmlns="http://www.w3.org/2000/svg">
    <path
        d="M13.1833 15C11.5111 15 9.88115 14.6006 8.29344 13.8017C6.70522 13.0033 5.29874 11.9478 4.074 10.635C2.84874 9.32278 1.86356 7.81583 1.11844 6.11417C0.372815 4.41306 0 2.66667 0 0.875C0 0.625 0.0777777 0.416667 0.233333 0.25C0.388889 0.0833333 0.583333 0 0.816667 0H3.96667C4.14815 0 4.31019 0.0624999 4.45278 0.1875C4.59537 0.3125 4.67963 0.472222 4.70556 0.666667L5.21111 3.58333C5.23704 3.77778 5.23393 3.95472 5.20178 4.11417C5.16911 4.27417 5.09444 4.41667 4.97778 4.54167L3.11111 6.58333C3.65556 7.58333 4.33611 8.52083 5.15278 9.39583C5.96944 10.2708 6.87037 11.0278 7.85556 11.6667L9.68333 9.70833C9.8 9.58333 9.95245 9.48944 10.1407 9.42667C10.3284 9.36444 10.513 9.34722 10.6944 9.375L13.3778 9.95833C13.5593 10 13.7083 10.0936 13.825 10.2392C13.9417 10.3853 14 10.5556 14 10.75V14.125C14 14.375 13.9222 14.5833 13.7667 14.75C13.6111 14.9167 13.4167 15 13.1833 15Z"
        fill="#00D29E" />
</svg>