<svg width="15" height="15" viewBox="0 0 15 15" fill="none" xmlns="http://www.w3.org/2000/svg">
<path d="M5 7C5.55229 7 6 6.55227 6 6C6 5.44771 5.55229 5 5 5C4.44771 5 4 5.44771 4 6C4 6.55227 4.44771 7 5 7Z" fill="#EA2525"/>
<path d="M10 7C10.5523 7 11 6.55227 11 6C11 5.44771 10.5523 5 10 5C9.44771 5 9 5.44771 9 6C9 6.55227 9.44771 7 10 7Z" fill="#EA2525"/>
<path d="M9.67757 10.7293C9.85303 10.972 10.2697 11.0696 10.6128 10.9471C10.9586 10.8236 11.0989 10.5233 10.9259 10.2763C10.8682 10.1941 10.7947 10.1171 10.7176 10.0437C10.5896 9.92185 10.3964 9.76491 10.1244 9.60952C9.57164 9.29373 8.71942 9 7.49913 9C6.27877 9 5.42655 9.29373 4.87376 9.60952C4.60181 9.76491 4.4086 9.92185 4.28061 10.0437C4.20324 10.1173 4.13289 10.1944 4.07265 10.2758C3.90137 10.5195 4.04387 10.8252 4.38539 10.9471C4.72853 11.0696 5.1452 10.972 5.32061 10.7293C5.33028 10.7169 5.46202 10.554 5.74852 10.3904C6.07091 10.2062 6.61897 9.99995 7.49913 9.99995C8.37922 9.99995 8.92729 10.2062 9.24971 10.3904C9.53621 10.554 9.66791 10.7169 9.67757 10.7293Z" fill="#EA2525"/>
<path fill-rule="evenodd" clip-rule="evenodd" d="M7.5 15C11.6421 15 15 11.6421 15 7.5C15 3.35787 11.6421 0 7.5 0C3.35787 0 0 3.35787 0 7.5C0 11.6421 3.35787 15 7.5 15ZM7.5 13.6317C4.11355 13.6317 1.36829 10.8865 1.36829 7.5C1.36829 4.11355 4.11355 1.36829 7.5 1.36829C10.8865 1.36829 13.6317 4.11355 13.6317 7.5C13.6317 10.8865 10.8865 13.6317 7.5 13.6317Z" fill="#EA2525"/>
</svg>
