<svg width="76" height="57" viewBox="0 0 76 57" fill="none" xmlns="http://www.w3.org/2000/svg">
<path d="M0.15148 30.5982L1.03788 30.3871C1.03788 30.3871 0.489158 28.2767 1.86097 26.2084C3.23279 24.1612 5.21665 23.8657 5.49101 23.8235C5.74427 23.7813 6.03974 23.7602 6.03974 23.7602V24.7733L8.38238 23.2959L6.03974 21.8608V22.8316C6.03974 22.8316 3.00064 22.7894 1.1223 25.6597C-0.566085 28.2344 0.15148 30.5982 0.15148 30.5982Z" fill="#BDFF4B"/>
<g opacity="0.8">
<path d="M0.953613 32.5609L1.73449 32.0966C1.73449 32.0966 2.81084 33.9327 4.41481 34.4603C6.01878 34.9879 6.5464 34.9035 7.43281 34.7347C8.29811 34.5658 8.42474 34.4392 8.42474 34.4392L8.80462 35.2834C8.80462 35.2834 6.69414 36.2753 4.33039 35.3889C1.7767 34.4603 0.953613 32.5609 0.953613 32.5609Z" fill="#BDFF4B"/>
</g>
<g opacity="0.5">
<path d="M11.5904 30.7248L12.4768 30.9569C12.4768 30.9569 12.2235 31.9911 11.7803 32.6664C11.316 33.3418 10.7462 33.996 10.7462 33.996L10.113 33.3207C10.113 33.3207 10.5773 32.7931 10.8939 32.371C11.1894 31.9489 11.5904 30.8092 11.5904 30.7248Z" fill="#BDFF4B"/>
</g>
<g opacity="0.5">
<path d="M11.7592 28.9098L12.6667 28.8464C12.6667 28.8464 12.6034 28.0023 12.4767 27.559C12.3079 26.9048 12.0335 26.4405 12.0335 26.4405L11.2104 26.8626C11.2104 26.8626 11.4848 27.4535 11.5903 27.9389C11.6959 28.4455 11.7592 28.9098 11.7592 28.9098Z" fill="#BDFF4B"/>
</g>
<g opacity="0.5">
<path d="M10.6616 25.9551L11.4002 25.3852C11.4002 25.3852 11.147 25.0687 10.957 24.8576C10.7671 24.6466 10.4083 24.3089 10.4083 24.3089L9.81738 25.0265C9.81738 25.0265 10.0073 25.1953 10.2606 25.4486C10.5349 25.744 10.6616 25.9551 10.6616 25.9551Z" fill="#BDFF4B"/>
</g>
<path opacity="0.8" d="M7.83372 35.6001C7.91814 35.5789 8.00256 35.5578 8.10808 35.5156C8.04476 35.5367 7.96035 35.5578 7.89703 35.5789C6.50411 35.9166 5.04787 35.7478 3.73937 35.1568C3.61274 35.0935 3.48611 35.0302 3.33838 34.9458C3.54943 35.0724 3.78158 35.1991 4.01373 35.2835L7.83372 35.6001Z" fill="#BDFF4B"/>
<path d="M5.42776 30.0494C5.65991 29.8806 5.87096 29.6906 6.06091 29.5007C6.35638 29.1841 6.50411 28.8042 6.50411 28.3821C6.50411 27.9389 6.35638 27.5801 6.0398 27.2636C5.74433 26.9681 5.36445 26.7993 4.92124 26.7993C4.49915 26.7993 4.11926 26.947 3.80269 27.2636C3.63385 27.4324 3.33838 27.8334 3.33838 28.5087V28.6143H4.16147V28.5087C4.20368 28.1922 4.26699 27.96 4.39362 27.8545C4.54136 27.7068 4.7102 27.6435 4.90014 27.6435C5.11119 27.6435 5.28003 27.7068 5.42776 27.8545C5.5755 28.0022 5.63881 28.1711 5.63881 28.361C5.63881 28.5721 5.55439 28.7409 5.40666 28.9308C5.25892 29.1208 5.06898 29.3107 4.85793 29.4585L4.05594 30.0705C3.88711 30.1971 3.31727 30.6826 3.38059 31.6323V31.7378H6.52521V30.8936H4.56246C4.62578 30.7459 4.87903 30.4715 5.42776 30.0494Z" fill="white"/>
<path d="M9.12121 29.6274V26.8204H8.29812L6.39868 30.4716H8.25591V31.7379H9.12121V30.4716H9.77546V29.6274H9.12121ZM7.85492 29.6274L8.23481 28.8254V29.6274H7.85492Z" fill="white"/>
<path d="M69.0349 21.0256H63.9656C60.1347 21.0256 57.0002 24.16 57.0002 27.991C57.0002 30.8158 58.6642 33.2537 61.1021 34.3372C61.1021 36.3494 60.2508 38.1681 58.9351 39.2903C61.4116 39.2903 64.1978 37.7812 66.0552 34.9563H69.0349C72.9045 34.9563 76.0002 31.8219 76.0002 27.991C76.0002 24.16 72.8658 21.0256 69.0349 21.0256Z" fill="#BDFF4B"/>
<mask id="path-10-inside-1_551_3526" fill="white">
<path d="M72.2464 26.0562H61.1792C60.9083 26.0562 60.7148 25.8627 60.7148 25.5919C60.7148 25.321 60.9083 25.1275 61.1792 25.1275H72.2851C72.556 25.1275 72.7495 25.321 72.7495 25.5919C72.7108 25.824 72.5173 26.0562 72.2464 26.0562Z"/>
</mask>
<path d="M72.2464 26.0562H61.1792C60.9083 26.0562 60.7148 25.8627 60.7148 25.5919C60.7148 25.321 60.9083 25.1275 61.1792 25.1275H72.2851C72.556 25.1275 72.7495 25.321 72.7495 25.5919C72.7108 25.824 72.5173 26.0562 72.2464 26.0562Z" fill="#6A6A6A"/>
<path d="M72.7495 25.5919L73.7359 25.7563L73.7495 25.6746V25.5919H72.7495ZM72.2464 25.0562H61.1792V27.0562H72.2464V25.0562ZM61.1792 25.0562C61.2884 25.0562 61.4332 25.0991 61.5526 25.2185C61.6719 25.3379 61.7148 25.4827 61.7148 25.5919H59.7148C59.7148 26.415 60.356 27.0562 61.1792 27.0562V25.0562ZM61.7148 25.5919C61.7148 25.701 61.6719 25.8458 61.5526 25.9652C61.4332 26.0846 61.2884 26.1275 61.1792 26.1275V24.1275C60.356 24.1275 59.7148 24.7687 59.7148 25.5919H61.7148ZM61.1792 26.1275H72.2851V24.1275H61.1792V26.1275ZM72.2851 26.1275C72.1759 26.1275 72.0312 26.0846 71.9118 25.9652C71.7924 25.8458 71.7495 25.701 71.7495 25.5919H73.7495C73.7495 24.7687 73.1083 24.1275 72.2851 24.1275V26.1275ZM71.7631 25.4275C71.7773 25.3418 71.8149 25.267 71.8779 25.204C71.9494 25.1325 72.0783 25.0562 72.2464 25.0562V27.0562C73.1432 27.0562 73.6417 26.3215 73.7359 25.7563L71.7631 25.4275Z" fill="#6A6A6A" mask="url(#path-10-inside-1_551_3526)"/>
<mask id="path-12-inside-2_551_3526" fill="white">
<path d="M72.2464 28.6102H61.1792C60.9083 28.6102 60.7148 28.4167 60.7148 28.1458C60.7148 27.8749 60.9083 27.6815 61.1792 27.6815H72.2851C72.556 27.6815 72.7495 27.8749 72.7495 28.1458C72.7108 28.4167 72.5173 28.6102 72.2464 28.6102Z"/>
</mask>
<path d="M72.2464 28.6102H61.1792C60.9083 28.6102 60.7148 28.4167 60.7148 28.1458C60.7148 27.8749 60.9083 27.6815 61.1792 27.6815H72.2851C72.556 27.6815 72.7495 27.8749 72.7495 28.1458C72.7108 28.4167 72.5173 28.6102 72.2464 28.6102Z" fill="#6A6A6A"/>
<path d="M72.7495 28.1458L73.7394 28.2872L73.7495 28.2169V28.1458H72.7495ZM72.2464 27.6102H61.1792V29.6102H72.2464V27.6102ZM61.1792 27.6102C61.2884 27.6102 61.4332 27.6531 61.5526 27.7725C61.6719 27.8919 61.7148 28.0367 61.7148 28.1458H59.7148C59.7148 28.969 60.356 29.6102 61.1792 29.6102V27.6102ZM61.7148 28.1458C61.7148 28.255 61.6719 28.3998 61.5526 28.5192C61.4332 28.6386 61.2884 28.6815 61.1792 28.6815V26.6815C60.356 26.6815 59.7148 27.3227 59.7148 28.1458H61.7148ZM61.1792 28.6815H72.2851V26.6815H61.1792V28.6815ZM72.2851 28.6815C72.1759 28.6815 72.0312 28.6386 71.9118 28.5192C71.7924 28.3998 71.7495 28.255 71.7495 28.1458H73.7495C73.7495 27.3227 73.1083 26.6815 72.2851 26.6815V28.6815ZM71.7595 28.0044C71.7683 27.9426 71.8025 27.8432 71.8984 27.7526C72.0005 27.6561 72.1315 27.6102 72.2464 27.6102V29.6102C73.0879 29.6102 73.6412 28.9749 73.7394 28.2872L71.7595 28.0044Z" fill="#6A6A6A" mask="url(#path-12-inside-2_551_3526)"/>
<mask id="path-14-inside-3_551_3526" fill="white">
<path d="M72.2464 31.1641H61.1792C60.9083 31.1641 60.7148 30.9706 60.7148 30.6997C60.7148 30.4288 60.9083 30.2354 61.1792 30.2354H72.2851C72.556 30.2354 72.7495 30.4288 72.7495 30.6997C72.7108 30.9706 72.5173 31.1641 72.2464 31.1641Z"/>
</mask>
<path d="M72.2464 31.1641H61.1792C60.9083 31.1641 60.7148 30.9706 60.7148 30.6997C60.7148 30.4288 60.9083 30.2354 61.1792 30.2354H72.2851C72.556 30.2354 72.7495 30.4288 72.7495 30.6997C72.7108 30.9706 72.5173 31.1641 72.2464 31.1641Z" fill="#6A6A6A"/>
<path d="M72.7495 30.6997L73.7394 30.8411L73.7495 30.7708V30.6997H72.7495ZM72.2464 30.1641H61.1792V32.1641H72.2464V30.1641ZM61.1792 30.1641C61.2884 30.1641 61.4332 30.207 61.5526 30.3264C61.6719 30.4458 61.7148 30.5905 61.7148 30.6997H59.7148C59.7148 31.5229 60.356 32.1641 61.1792 32.1641V30.1641ZM61.7148 30.6997C61.7148 30.8089 61.6719 30.9537 61.5526 31.0731C61.4332 31.1925 61.2884 31.2354 61.1792 31.2354V29.2354C60.356 29.2354 59.7148 29.8766 59.7148 30.6997H61.7148ZM61.1792 31.2354H72.2851V29.2354H61.1792V31.2354ZM72.2851 31.2354C72.1759 31.2354 72.0312 31.1925 71.9118 31.0731C71.7924 30.9537 71.7495 30.8089 71.7495 30.6997H73.7495C73.7495 29.8765 73.1083 29.2354 72.2851 29.2354V31.2354ZM71.7595 30.5583C71.7683 30.4965 71.8025 30.3971 71.8984 30.3065C72.0005 30.21 72.1315 30.1641 72.2464 30.1641V32.1641C73.0879 32.1641 73.6412 31.5288 73.7394 30.8411L71.7595 30.5583Z" fill="#6A6A6A" mask="url(#path-14-inside-3_551_3526)"/>
<path opacity="0.8" d="M37.649 37.4077H28.2703V57.0001H37.649V37.4077Z" fill="#00D29E"/>
<path d="M37.6486 42.0278L31.0835 39.6322V26.3709H37.6486V39.2044V42.0278Z" fill="#FFCB81"/>
<path d="M36.7965 46.3912L33.6418 52.979L36.1997 56.9146H37.6491V39.2044L34.4092 44.0811L36.7965 46.3912Z" fill="#BDFF4B"/>
<path d="M29.805 35.5255L37.649 39.2044L34.4091 45.1079L28.2703 37.4078L29.805 35.5255Z" fill="white"/>
<path d="M12.6675 56.9146H37.649L26.224 40.6589H23.9219C12.6675 40.6589 12.6675 56.9146 12.6675 56.9146Z" fill="#00AA80"/>
<path d="M23.7515 40.3166L28.2703 37.4077L37.649 56.9146L27.0766 48.2734L29.3787 45.1078L25.2009 45.6211L23.7515 40.3166Z" fill="#00D29E"/>
<path opacity="0.8" d="M47.0276 37.4077H37.6489V57.0001H47.0276V37.4077Z" fill="#00D29E"/>
<path d="M37.6487 42.0277L44.2138 39.6321V26.3708H37.6487V39.2043V42.0277Z" fill="#FFC067"/>
<path d="M38.5868 46.3912L41.7415 52.979L39.1836 56.9146H37.6489V39.2044L40.9741 44.0811L38.5868 46.3912Z" fill="#BDFF4B"/>
<path d="M45.4929 35.5255L37.6489 39.2044L40.9741 45.1079L47.0276 37.4078L45.4929 35.5255Z" fill="white"/>
<path d="M62.6304 56.9146H37.6489L49.0739 40.6589H51.376C61.7778 40.6589 62.6304 56.9146 62.6304 56.9146Z" fill="#00AA80"/>
<path d="M51.6317 40.3166L47.0276 37.4077L37.6489 56.9146L48.2213 48.2734L45.9192 45.1078L50.1823 45.6211L51.6317 40.3166Z" fill="#00D29E"/>
<path d="M28.0142 17.0452L27.7584 16.9596C26.4795 16.4463 26.1385 16.3607 26.2237 19.2696C26.2237 19.2696 26.2237 24.4886 28.1847 24.7453C28.3553 25.6008 28.6111 26.3708 28.9521 27.0553C30.8278 30.5631 34.2383 34.5843 37.6487 34.5843V24.8308V17.1307V9.43061C26.9911 8.0617 29.0374 12.6818 28.0142 17.0452Z" fill="#FFD79E"/>
<path d="M47.3684 17.0452L47.6242 16.9596C48.9031 16.4463 49.2442 16.3607 49.1589 19.2696C49.1589 19.2696 49.1589 24.4886 47.1979 24.7453C47.0274 25.6008 46.7716 26.3708 46.4306 27.0553C44.5548 30.5631 41.0591 34.5734 37.6487 34.5734V24.8961V17.1553V9.41457C48.221 8.04567 46.3453 12.6818 47.3684 17.0452Z" fill="#FFCC84"/>
<path d="M27.7782 12.3437C27.9335 9.31071 28.9731 6.41307 32.2885 5.10525C33.3279 4.70438 34.4578 4.54053 35.5172 4.54053H37.234V12.813C37.2332 12.813 37.2323 12.813 37.2315 12.813C36.9436 12.8232 36.5382 12.8232 36.0723 12.7825C35.1314 12.7004 33.9924 12.4565 33.0697 11.8402C32.2709 11.2906 31.2546 11.1157 30.3751 11.3175C29.4846 11.5217 28.6856 12.1312 28.4644 13.1705C28.26 14.0225 28.0961 15.1276 27.9656 16.1889C27.8143 14.9957 27.7104 13.6679 27.7782 12.3437Z" fill="#6A6A6A" stroke="#6A6A6A"/>
<path d="M47.3684 19.8685C47.3569 19.9614 47.3422 19.9534 47.3239 19.8642M47.3684 19.8685C47.3807 19.7411 47.3989 19.5974 47.4216 19.4388L47.3239 19.8642M47.3684 19.8685L47.3239 19.8642M47.3684 19.8685L47.3236 19.8629L47.3239 19.8642M38.1512 12.813C38.1504 12.813 38.1495 12.813 38.1487 12.813V4.54053H39.7802C40.8399 4.54053 41.9702 4.70448 43.0099 5.1056C46.3699 6.41497 47.4284 9.31509 47.5939 12.3454C47.666 13.6661 47.5654 14.9905 47.4162 16.1813C47.2858 15.1223 47.1222 14.0204 46.9183 13.1705C46.6971 12.1312 45.8981 11.5217 45.0076 11.3175C44.1281 11.1157 43.1118 11.2906 42.313 11.8402C41.3903 12.4565 40.2513 12.7004 39.3104 12.7825C38.8445 12.8232 38.4391 12.8232 38.1512 12.813Z" fill="#6A6A6A" stroke="#6A6A6A"/>
<path d="M44.5542 30.3064H38.6711V29.4508H44.5542C45.8331 29.4508 47.0267 28.5952 47.453 27.3974L48.4762 24.403L49.2435 24.6596L48.2204 27.6541C47.7088 29.1941 46.2594 30.3064 44.5542 30.3064Z" fill="#00AA80"/>
<path d="M39.6093 31.2474H40.2914H40.9735C41.7409 31.2474 42.423 30.6485 42.423 29.793H38.2452C38.1599 30.6485 38.7567 31.2474 39.6093 31.2474Z" fill="#00AA80"/>
<path d="M40.9733 28.4241H40.2912H39.6091C38.8418 28.4241 38.1597 29.023 38.1597 29.8785H42.3375C42.3375 29.023 41.7406 28.4241 40.9733 28.4241Z" fill="#00AA80"/>
<path d="M36.71 0.618164C30.486 0.618164 25.4556 5.66601 25.4556 11.9972V13.8794H27.0755V11.9972C27.0755 6.60713 31.4238 2.3293 36.71 2.3293H37.7332V0.618164H36.71Z" fill="#00D29E"/>
<path d="M38.6713 0.618164H37.6482V2.24374H38.6713C43.9575 2.24374 48.3058 6.60713 48.3058 11.9116V13.7939H49.9258V11.9116C49.9258 5.66601 44.8101 0.618164 38.6713 0.618164Z" fill="#00D29E"/>
<path d="M52.5685 14.0505C51.7159 13.0239 50.3517 12.9383 50.3517 12.9383C49.8402 12.8528 49.4139 12.8528 48.9875 12.9383V25.344C49.4139 25.4296 49.8402 25.4296 50.3517 25.344C50.3517 25.344 51.7159 25.2585 52.5685 24.2318C53.4211 23.1196 53.4211 15.1628 52.5685 14.0505Z" fill="#00D29E"/>
<path d="M47.197 15.3339V22.8629C47.197 24.1462 47.8791 25.0018 48.9022 25.2585V12.9383C47.9644 13.195 47.197 14.1361 47.197 15.3339Z" fill="#00AA80"/>
<path d="M25.0293 12.9383C25.0293 12.9383 23.6652 13.0238 22.8126 14.0505C21.9599 15.0772 21.9599 23.034 22.8126 24.1462C23.6652 25.1729 25.0293 25.2584 25.0293 25.2584C25.5409 25.344 25.9672 25.344 26.3935 25.2584V12.9383C25.9672 12.7672 25.5409 12.7672 25.0293 12.9383Z" fill="#00D29E"/>
<path d="M26.3936 12.9383V25.344C27.4167 25.0873 28.0988 24.1462 28.0988 22.9484V15.4194C28.0988 14.1361 27.4167 13.195 26.3936 12.9383Z" fill="#00AA80"/>
<line y1="56.5" x2="76" y2="56.5" stroke="#6A6A6A"/>
</svg>
