<svg width="15" height="16" viewBox="0 0 15 16" fill="none" xmlns="http://www.w3.org/2000/svg">
<g clip-path="url(#clip0_883_5548)">
<path d="M5.57004 8.09004C6.0671 8.09004 6.47004 7.6871 6.47004 7.19004C6.47004 6.69298 6.0671 6.29004 5.57004 6.29004C5.07299 6.29004 4.67004 6.69298 4.67004 7.19004C4.67004 7.6871 5.07299 8.09004 5.57004 8.09004Z" fill="#FEDC2B"/>
<path d="M10.19 8.09004C10.6871 8.09004 11.09 7.6871 11.09 7.19004C11.09 6.69298 10.6871 6.29004 10.19 6.29004C9.69298 6.29004 9.29004 6.69298 9.29004 7.19004C9.29004 7.6871 9.69298 8.09004 10.19 8.09004Z" fill="#FEDC2B"/>
<path d="M7.87 14.24C11.3881 14.24 14.24 11.3881 14.24 7.87C14.24 4.35195 11.3881 1.5 7.87 1.5C4.35195 1.5 1.5 4.35195 1.5 7.87C1.5 11.3881 4.35195 14.24 7.87 14.24Z" stroke="#FEDC2B" stroke-width="0.75" stroke-miterlimit="10"/>
<path d="M9.30005 5.57996H11.45" stroke="#FEDC2B" stroke-width="0.75" stroke-miterlimit="10" stroke-linecap="round"/>
<path d="M6 11H10" stroke="#FEDC2B" stroke-width="0.75" stroke-miterlimit="10" stroke-linecap="round"/>
<path d="M3.82996 5.97995C3.84996 5.87995 4.01996 5.07995 4.79996 4.67995C5.65996 4.23995 6.48996 4.67995 6.54996 4.71995" stroke="#FEDC2B" stroke-width="0.75" stroke-miterlimit="10" stroke-linecap="round"/>
</g>
<defs>
<clipPath id="clip0_883_5548">
<rect width="13.73" height="13.73" fill="white" transform="translate(1 1)"/>
</clipPath>
</defs>
</svg>
