<svg width="17" height="16" viewBox="0 0 17 16" fill="none" xmlns="http://www.w3.org/2000/svg">
<path d="M15 9.10525C15 5.78947 14.4384 4.81113 13.4111 3.55925C12.3837 2.30738 10.954 1.45046 9.36562 1.13451C7.77726 0.818568 6.12848 1.06314 4.70022 1.82656C3.27196 2.58998 2.15259 3.82501 1.53284 5.32122C0.913094 6.81743 0.831307 8.48224 1.30142 10.032C1.77153 11.5817 2.76445 12.9205 4.11101 13.8203C5.45756 14.72 7.07442 15.125 8.68611 14.9663C10.2978 14.8075 11.6842 13.8947 11.6842 13.8947" stroke="#00D29E" stroke-width="1.2"/>
<path d="M6.15784 9.84204C6.68 10.3065 7.31505 10.5789 7.99994 10.5789C8.68483 10.5789 9.31987 10.3065 9.84204 9.84204" stroke="#00D29E" stroke-width="1.2" stroke-linecap="round"/>
<path d="M10.5789 6.52628C10.5789 7.13668 10.249 7.63154 9.84207 7.63154C9.43511 7.63154 9.10522 7.13668 9.10522 6.52628C9.10522 5.91586 9.43511 5.42102 9.84207 5.42102C10.249 5.42102 10.5789 5.91586 10.5789 6.52628Z" fill="#00D29E"/>
<path d="M6.15786 7.63154C6.56481 7.63154 6.8947 7.1367 6.8947 6.52628C6.8947 5.91586 6.56481 5.42102 6.15786 5.42102C5.75092 5.42102 5.42102 5.91586 5.42102 6.52628C5.42102 7.1367 5.75092 7.63154 6.15786 7.63154Z" fill="#00D29E"/>
<path d="M11.3158 11.345C11.3158 12.5938 12.3524 13.2593 13.1112 13.855C13.379 14.0652 13.6368 14.2631 13.8947 14.2631C14.1526 14.2631 14.4105 14.0652 14.6783 13.855C15.4371 13.2593 16.4737 12.5938 16.4737 11.345C16.4737 10.0961 15.0552 9.21042 13.8947 10.4111C12.7343 9.21042 11.3158 10.0961 11.3158 11.345Z" fill="#00D29E"/>
</svg>
