<svg width="35" height="35" viewBox="0 0 35 35" fill="none" xmlns="http://www.w3.org/2000/svg">
<rect y="0.00012207" width="35" height="35" rx="6" fill="#FDDE39" fill-opacity="0.2"/>
<path d="M9.72182 27.0001C8.18346 25.4436 7.1358 23.4604 6.71137 21.3014C6.28693 19.1424 6.50477 16.9045 7.33732 14.8708C8.16989 12.8371 9.57978 11.0988 11.3887 9.87586C13.1977 8.65289 15.3243 8.00012 17.5 8.00012C19.6756 8.00012 21.8023 8.65289 23.6113 9.87586C25.4201 11.0988 26.83 12.8371 27.6626 14.8708C28.4953 16.9045 28.7131 19.1424 28.2886 21.3014C27.8642 23.4604 26.8165 25.4436 25.2781 27.0001M16.5 19.0001L23.5 16.0001" stroke="#FDDE39" stroke-width="2" stroke-linecap="round" stroke-linejoin="round"/>
</svg>
