<svg width="35" height="35" viewBox="0 0 35 35" fill="none" xmlns="http://www.w3.org/2000/svg">
<rect width="35" height="35" rx="6" fill="#2AE66A" fill-opacity="0.25"/>
<path d="M27.8825 24.7259L27.8505 24.7224C27.8533 24.725 27.827 24.8241 27.7388 24.9435C27.6091 25.1254 27.361 25.3504 27.0436 25.5149C26.7256 25.6815 26.3414 25.7926 25.9263 25.7923C25.4421 25.7909 24.9126 25.6479 24.347 25.2369C23.8054 24.8397 23.5247 24.5216 23.3375 24.2014C23.1972 23.9593 23.1026 23.7005 23.0122 23.3664C22.8767 22.8678 22.7602 22.2101 22.5074 21.3506C22.2539 20.4903 21.8618 19.4318 21.1709 18.0974C20.6197 17.0375 20.1465 15.4565 20.1496 13.9599C20.1496 13.3322 20.2304 12.7201 20.4106 12.1608C20.5913 11.6007 20.8683 11.0929 21.2714 10.653C22.2245 9.61872 23.3235 9.2107 24.3687 9.20774C25.1251 9.20714 25.8508 9.42972 26.4393 9.80301C27.0293 10.176 27.4755 10.6946 27.7035 11.2716L28.7643 10.8069C28.4258 9.95482 27.8022 9.25605 27.0326 8.7684C26.2617 8.281 25.338 8.00061 24.3687 8.00001C23.0319 7.99704 21.6031 8.54782 20.444 9.81503C19.9132 10.3923 19.5489 11.0663 19.3216 11.774C19.0937 12.4822 19.0003 13.2243 19 13.9599C19.0034 15.7162 19.5245 17.4378 20.161 18.6741C20.7445 19.8024 21.0925 20.6973 21.3266 21.4373C21.502 21.9928 21.6137 22.4616 21.7116 22.8876C21.8596 23.5227 21.9729 24.0823 22.2561 24.6457C22.3973 24.9252 22.5806 25.1965 22.816 25.4574C23.0518 25.7186 23.338 25.9704 23.6905 26.2281C24.4357 26.7745 25.2162 27.0018 25.9263 27C26.7676 26.9988 27.5007 26.6963 28.0401 26.2903C28.3107 26.0857 28.5352 25.8549 28.7042 25.6013C28.8709 25.3468 28.9961 25.0673 29 24.7259H27.8825Z" fill="#2AE66A"/>
<path fill-rule="evenodd" clip-rule="evenodd" d="M28.0427 26.2884C28.0418 26.289 28.041 26.2897 28.0401 26.2903C27.9046 26.3923 27.7568 26.4878 27.5982 26.5736C27.5967 26.5744 27.5952 26.5752 27.5937 26.5761C27.1219 26.8304 26.5542 26.9991 25.9263 27C25.926 27 25.9265 27 25.9263 27C25.9253 27 25.9235 27 25.9226 27C25.2135 27.001 24.4344 26.7735 23.6905 26.2281C23.6766 26.2179 23.6627 26.2077 23.6489 26.1975C23.6476 26.1965 23.6462 26.1955 23.6449 26.1945C23.3132 25.9485 23.0415 25.7073 22.816 25.4574C22.621 25.2412 22.4617 25.018 22.3325 24.7888C22.3319 24.7876 22.3312 24.7864 22.3305 24.7852C22.3045 24.739 22.2797 24.6925 22.2561 24.6457C22.0944 24.3239 21.988 24.0033 21.899 23.6691C21.8989 23.6687 21.8987 23.6683 21.8986 23.6678C21.8463 23.4714 21.8 23.2704 21.7519 23.0617C21.7387 23.0043 21.7253 22.9463 21.7116 22.8876C21.6281 22.5242 21.5345 22.1297 21.4 21.6768C21.3999 21.6767 21.4 21.6769 21.4 21.6768C21.3768 21.5988 21.3523 21.5189 21.3266 21.4373C21.0925 20.6973 20.7445 19.8024 20.161 18.6741C20.1541 18.6606 20.1471 18.647 20.1402 18.6334C20.1399 18.6328 20.1396 18.6322 20.1393 18.6315C19.5127 17.3985 19.0033 15.6962 19 13.9599C19 13.9599 19 13.9599 19 13.9599C19 13.9591 19 13.9583 19 13.9575C19.0005 13.234 19.0911 12.5042 19.3112 11.8066C19.3111 11.8068 19.3112 11.8065 19.3112 11.8066C19.3146 11.7959 19.3181 11.7847 19.3216 11.774C19.5432 11.0841 19.895 10.4262 20.4043 9.85868C20.4051 9.85783 20.4058 9.85699 20.4066 9.85614C20.4189 9.84238 20.4314 9.82868 20.444 9.81503C21.6021 8.54889 23.0295 7.99798 24.3653 8.00001C24.3661 8.00001 24.3678 8.00001 24.3687 8.00001C24.3684 8.00001 24.369 8.00001 24.3687 8.00001C25.338 8.00061 26.2617 8.281 27.0326 8.7684C27.0471 8.77756 27.0615 8.7868 27.0759 8.79611C27.0764 8.79643 27.0769 8.79676 27.0774 8.79709C27.3787 8.99266 27.6568 9.22089 27.9033 9.47825C28.2073 9.79567 28.4631 10.1574 28.6548 10.5568C28.694 10.6386 28.7306 10.722 28.7643 10.8069L27.7035 11.2716C27.6985 11.2591 27.6935 11.2467 27.6884 11.2343C27.6693 11.188 27.6487 11.1421 27.6268 11.0966C27.3828 10.5901 26.969 10.1378 26.4393 9.80301C26.4249 9.79385 26.4104 9.78478 26.3958 9.7758C26.3954 9.77558 26.3951 9.77536 26.3947 9.77515C25.8143 9.41868 25.1061 9.20716 24.3687 9.20774C24.3684 9.20774 24.369 9.20773 24.3687 9.20774C24.3681 9.20774 24.3666 9.20774 24.366 9.20774C23.3365 9.21136 22.255 9.60805 21.3122 10.6092C21.3115 10.6099 21.3108 10.6106 21.3101 10.6114C21.2972 10.6251 21.2843 10.639 21.2714 10.653C20.8764 11.0841 20.6024 11.5804 20.4215 12.1273C20.4215 12.1275 20.4216 12.1272 20.4215 12.1273C20.4179 12.1383 20.4141 12.1498 20.4106 12.1608C20.2306 12.7195 20.1498 13.3308 20.1496 13.9577C20.1496 13.9584 20.1496 13.9592 20.1496 13.9599C20.1496 13.9598 20.1496 13.9601 20.1496 13.9599C20.1465 15.4565 20.6197 17.0375 21.1709 18.0974C21.1783 18.1118 21.1857 18.1261 21.1931 18.1404C21.1934 18.141 21.1937 18.1416 21.194 18.1422C21.8028 19.324 22.1765 20.288 22.4278 21.089C22.4277 21.0888 22.4279 21.0892 22.4278 21.089C22.4557 21.178 22.4823 21.2656 22.5074 21.3506C22.6508 21.8381 22.7503 22.2606 22.8343 22.6261C22.8346 22.6272 22.8348 22.6283 22.8351 22.6294C22.8424 22.6613 22.8497 22.6928 22.8568 22.7239C22.9116 22.9628 22.9605 23.1762 23.0122 23.3664C23.0928 23.6642 23.1767 23.9022 23.2934 24.1219C23.2938 24.1225 23.2941 24.1232 23.2944 24.1238C23.3083 24.1499 23.3227 24.1758 23.3375 24.2014C23.4272 24.3548 23.5384 24.5078 23.6894 24.6692C23.6894 24.6691 23.6895 24.6692 23.6894 24.6692C23.8536 24.8446 24.065 25.0301 24.347 25.2369C24.362 25.2477 24.3769 25.2584 24.3918 25.2689C24.3922 25.2692 24.3927 25.2695 24.3932 25.2699C24.9402 25.6547 25.4531 25.7903 25.9232 25.7923C25.9237 25.7923 25.9241 25.7923 25.9245 25.7923C25.9251 25.7923 25.9257 25.7923 25.9263 25.7923C26.1643 25.7925 26.3922 25.756 26.6033 25.6935C26.6095 25.6916 26.6158 25.6897 26.622 25.6878C26.772 25.6421 26.9134 25.5831 27.0436 25.5149C27.0855 25.4932 27.1262 25.4704 27.1655 25.4469C27.221 25.4136 27.2738 25.3788 27.3237 25.343C27.3244 25.3425 27.3252 25.342 27.3259 25.3414C27.4996 25.2165 27.6376 25.0802 27.7264 24.9606C27.7282 24.9582 27.7299 24.9557 27.7317 24.9534C27.7341 24.9501 27.7365 24.9468 27.7388 24.9435C27.8136 24.8421 27.844 24.7554 27.8497 24.7299C27.8507 24.7254 27.8509 24.7228 27.8505 24.7224L27.8825 24.7259H29C28.9961 25.0673 28.8709 25.3468 28.7042 25.6013C28.6996 25.6081 28.695 25.615 28.6903 25.6218C28.6867 25.6272 28.683 25.6326 28.6793 25.6379C28.514 25.8764 28.299 26.0942 28.0427 26.2884Z" fill="#2AE66A"/>
<path d="M16.5386 12.3086C16.3665 12.0123 15.9866 11.9117 15.6904 12.0847C15.3938 12.2572 15.294 12.6367 15.4661 12.9333C15.6027 13.1681 15.7312 13.4061 15.8459 13.649C17.1278 16.3557 16.969 19.3777 15.6815 21.8516C15.5235 22.1563 15.6415 22.5305 15.9453 22.6889C16.25 22.847 16.6242 22.7294 16.7827 22.425C18.2415 19.6237 18.4221 16.1892 16.9677 13.1172C16.8345 12.8355 16.6889 12.5667 16.5386 12.3086Z" fill="#2AE66A"/>
<path fill-rule="evenodd" clip-rule="evenodd" d="M16.5386 12.3086C16.3665 12.0123 15.9866 11.9117 15.6904 12.0847C15.3941 12.257 15.2942 12.6357 15.4655 12.9322C15.4656 12.9325 15.4659 12.933 15.4661 12.9333C15.466 12.9332 15.4662 12.9334 15.4661 12.9333C15.582 13.1325 15.6921 13.3341 15.7929 13.5389C15.8107 13.5752 15.8283 13.6116 15.8455 13.6481C15.8456 13.6482 15.8459 13.6489 15.8459 13.649C15.8458 13.6488 15.846 13.6492 15.8459 13.649C17.0227 16.1337 16.9854 18.8841 15.9753 21.2323C15.8851 21.4421 15.787 21.6487 15.6815 21.8516C15.5235 22.1563 15.6415 22.5305 15.9453 22.6889C16.25 22.847 16.6242 22.7294 16.7827 22.425C16.7826 22.4251 16.7827 22.425 16.7827 22.425C16.783 22.4245 16.7834 22.4237 16.7837 22.4232C16.8958 22.2077 17.0004 21.9885 17.0973 21.766C18.2595 19.0966 18.3099 15.9534 16.9684 13.1187C16.9683 13.1183 16.9679 13.1175 16.9677 13.1172C16.9676 13.117 16.9678 13.1173 16.9677 13.1172C16.9409 13.0604 16.9135 13.0041 16.8857 12.9484C16.7759 12.7282 16.6593 12.5159 16.5397 12.3103C16.5394 12.3099 16.5389 12.309 16.5386 12.3086C16.5387 12.3087 16.5385 12.3084 16.5386 12.3086Z" fill="#2AE66A"/>
<path d="M13.8671 13.6578C13.6945 13.3616 13.3147 13.261 13.0181 13.4331C12.7218 13.6061 12.6216 13.986 12.7934 14.2822C12.8908 14.4491 12.9809 14.6152 13.0605 14.7837C13.9592 16.6822 13.8473 18.7985 12.9449 20.5338C12.7865 20.8377 12.905 21.2127 13.2088 21.3711C13.5127 21.5295 13.8877 21.4111 14.0462 21.1072C15.1203 19.0454 15.2536 16.5157 14.1828 14.2527C14.0837 14.0437 13.9766 13.8465 13.8671 13.6578Z" fill="#2AE66A"/>
<path fill-rule="evenodd" clip-rule="evenodd" d="M12.7939 14.2831C12.7937 14.2828 12.7935 14.2825 12.7934 14.2822C12.7932 14.2819 12.793 14.2816 12.7928 14.2813C12.6219 13.9852 12.7222 13.6059 13.0181 13.4331C13.3141 13.2614 13.693 13.3612 13.8661 13.6561C13.8664 13.6567 13.8668 13.6572 13.8671 13.6578C13.8674 13.6583 13.8676 13.6587 13.8679 13.6592C13.9771 13.8474 14.084 14.0443 14.1828 14.2527C14.1915 14.2712 14.2005 14.2904 14.2091 14.3089C15.14 16.3172 15.1278 18.53 14.3557 20.4368C14.2634 20.6647 14.1599 20.8889 14.0462 21.1072C13.8877 21.4111 13.5127 21.5295 13.2088 21.3711C12.905 21.2127 12.7865 20.8377 12.9449 20.5338C13.049 20.3335 13.1429 20.1277 13.2256 19.9182C13.8469 18.3448 13.8553 16.537 13.1074 14.8849C13.0922 14.8514 13.0767 14.818 13.0609 14.7846C13.0608 14.7843 13.0606 14.784 13.0605 14.7837C13.0605 14.7837 13.0605 14.7837 13.0605 14.7837C12.981 14.6155 12.8911 14.4497 12.7939 14.2831Z" fill="#2AE66A"/>
<path d="M11.3618 15.3131C11.2947 15.1716 11.2236 15.0467 11.1581 14.9332C10.986 14.6365 10.6061 14.5355 10.3095 14.7073C10.0128 14.8794 9.91182 15.2597 10.084 15.5559C10.1442 15.6598 10.1975 15.7556 10.2395 15.8441C10.7556 16.9348 10.6894 18.1427 10.1713 19.1396C10.0124 19.4439 10.1308 19.8181 10.4347 19.9765C10.7386 20.1353 11.1132 20.0174 11.2712 19.7135C11.8742 18.5576 12.0188 17.1696 11.584 15.8655C11.5218 15.6796 11.4475 15.4949 11.3618 15.3131Z" fill="#2AE66A"/>
<path fill-rule="evenodd" clip-rule="evenodd" d="M10.1713 19.1396C10.1712 19.1398 10.1714 19.1394 10.1713 19.1396C10.171 19.1402 10.1707 19.1407 10.1704 19.1412C10.0128 19.4452 10.1314 19.8184 10.4347 19.9765C10.7386 20.1353 11.1132 20.0174 11.2712 19.7135C11.2712 19.7136 11.2713 19.7133 11.2712 19.7135C11.2714 19.7131 11.2724 19.7123 11.2726 19.712C11.3892 19.4883 11.4886 19.256 11.5699 19.0174C11.909 18.0226 11.9346 16.9169 11.584 15.8655C11.5552 15.7793 11.5237 15.6933 11.4897 15.6078C11.4829 15.5906 11.476 15.5735 11.4689 15.5563C11.4689 15.5562 11.469 15.5565 11.4689 15.5563C11.4356 15.4749 11.3997 15.3935 11.3618 15.3131C11.3618 15.3131 11.3618 15.3131 11.3618 15.3131C11.3616 15.3126 11.3614 15.3121 11.3611 15.3116C11.2942 15.1709 11.2233 15.0463 11.1581 14.9332C11.1581 14.9331 11.1582 14.9333 11.1581 14.9332C11.1579 14.9328 11.1577 14.9324 11.1574 14.932C10.985 14.6363 10.6057 14.5357 10.3095 14.7073C10.0138 14.8789 9.91245 15.2573 10.0824 15.5532C10.0829 15.5541 10.0835 15.555 10.084 15.5559C10.084 15.5559 10.084 15.556 10.084 15.5559C10.1437 15.659 10.1967 15.7541 10.2386 15.842C10.2389 15.8427 10.2392 15.8434 10.2395 15.8441C10.2397 15.8445 10.24 15.845 10.2402 15.8454C10.288 15.9467 10.3308 16.0489 10.3688 16.1518C10.3818 16.1872 10.3942 16.2227 10.4061 16.2583C10.4062 16.2587 10.4064 16.259 10.4065 16.2594C10.6399 16.959 10.6505 17.6885 10.4706 18.3668C10.4558 18.4227 10.4397 18.4782 10.4223 18.5334C10.3566 18.7417 10.2724 18.945 10.1713 19.1396Z" fill="#2AE66A"/>
<path fill-rule="evenodd" clip-rule="evenodd" d="M22.7346 15.4818C22.8318 16.3517 23.0608 17.1883 23.3419 17.7878C23.4591 18.0378 23.3514 18.3355 23.1014 18.4528C22.8514 18.57 22.5537 18.4623 22.4364 18.2123C22.1009 17.4966 21.8478 16.5506 21.7408 15.5929C21.6342 14.6389 21.6669 13.6235 21.9449 12.7829C22.2258 11.9336 22.7871 11.1948 23.7591 10.9862C24.6886 10.7868 25.8502 11.1091 27.2636 11.9854C27.4983 12.131 27.5706 12.4392 27.4251 12.6739C27.2795 12.9085 26.9713 12.9808 26.7366 12.8353C25.3999 12.0065 24.5185 11.8461 23.9689 11.964C23.4617 12.0728 23.1078 12.4513 22.8943 13.0969C22.6779 13.7512 22.637 14.6083 22.7346 15.4818Z" fill="#2AE66A"/>
</svg>
