<svg width="32" height="33" viewBox="0 0 32 33" fill="none" xmlns="http://www.w3.org/2000/svg">
<path fill-rule="evenodd" clip-rule="evenodd" d="M14.3998 3.70001C14.1027 3.70017 13.8116 3.78303 13.559 3.9393C13.3063 4.09557 13.1022 4.31908 12.9694 4.58481L11.811 6.90001H6.3998C5.97546 6.90001 5.56849 7.06858 5.26843 7.36864C4.96838 7.6687 4.7998 8.07567 4.7998 8.50001C4.7998 8.92436 4.96838 9.33132 5.26843 9.63138C5.56849 9.93144 5.97546 10.1 6.3998 10.1V26.1C6.3998 26.9487 6.73695 27.7626 7.33706 28.3628C7.93718 28.9629 8.75111 29.3 9.5998 29.3H22.3998C23.2485 29.3 24.0624 28.9629 24.6625 28.3628C25.2627 27.7626 25.5998 26.9487 25.5998 26.1V10.1C26.0242 10.1 26.4311 9.93144 26.7312 9.63138C27.0312 9.33132 27.1998 8.92436 27.1998 8.50001C27.1998 8.07567 27.0312 7.6687 26.7312 7.36864C26.4311 7.06858 26.0242 6.90001 25.5998 6.90001H20.1886L19.0302 4.58481C18.8974 4.31908 18.6933 4.09557 18.4406 3.9393C18.188 3.78303 17.8969 3.70017 17.5998 3.70001H14.3998ZM11.1998 13.3C11.1998 12.8757 11.3684 12.4687 11.6684 12.1686C11.9685 11.8686 12.3755 11.7 12.7998 11.7C13.2242 11.7 13.6311 11.8686 13.9312 12.1686C14.2312 12.4687 14.3998 12.8757 14.3998 13.3V22.9C14.3998 23.3244 14.2312 23.7313 13.9312 24.0314C13.6311 24.3314 13.2242 24.5 12.7998 24.5C12.3755 24.5 11.9685 24.3314 11.6684 24.0314C11.3684 23.7313 11.1998 23.3244 11.1998 22.9V13.3ZM19.1998 11.7C18.7755 11.7 18.3685 11.8686 18.0684 12.1686C17.7684 12.4687 17.5998 12.8757 17.5998 13.3V22.9C17.5998 23.3244 17.7684 23.7313 18.0684 24.0314C18.3685 24.3314 18.7755 24.5 19.1998 24.5C19.6242 24.5 20.0311 24.3314 20.3312 24.0314C20.6312 23.7313 20.7998 23.3244 20.7998 22.9V13.3C20.7998 12.8757 20.6312 12.4687 20.3312 12.1686C20.0311 11.8686 19.6242 11.7 19.1998 11.7Z" fill="#F0483C"/>
</svg>
