<?xml version="1.0" encoding="UTF-8"?>
<svg id="Layer_1" data-name="Layer 1" xmlns="http://www.w3.org/2000/svg" xmlns:xlink="http://www.w3.org/1999/xlink" viewBox="0 0 432.87 432.86">
  <defs>
    <style>
      .cls-1 {
        fill: url(#linear-gradient);
      }
    </style>
    <linearGradient id="linear-gradient" x1="464.71" y1="-65.59" x2="-43.85" y2="512.52" gradientUnits="userSpaceOnUse">
      <stop offset="0" stop-color="#bdff4b"/>
      <stop offset="1" stop-color="#00d29e"/>
    </linearGradient>
  </defs>
  <path class="cls-1" d="m80.46,58.05l-1.39-.08c-5.04,0-20.38,0-20.77,21.78-.47,24.41,25.73,50.07,51.93,51h.15l.23-.08c13.18-.62,19.3-7.44,19.3-21.47,0-24.49-24.95-50.38-49.45-51.15Zm161.44-26.51c-2.02-9.54-6.28-18.52-12.87-25.27-4.65-4.19-9.14-6.28-13.49-6.28-4.96,0-10.08,2.71-15.35,7.99-5.42,5.42-9.22,12.79-11.24,20.77-1.47,5.5-2.02,11.32-1.86,17.13.23,12.56,4.34,24.88,12.25,33.17,5.11,5.35,10.31,8.14,15.35,8.14s10.46-2.71,15.81-7.91c7.6-7.44,11.86-18.6,12.63-30.38.39-5.73,0-11.63-1.24-17.36Zm-89.44,275.68c-9.53-6.05-17.98-13.64-25.42-22.32-3.02-3.72-5.89-7.52-8.37-11.55-17.13,24.96-41.39,46.5-65.26,64.56-6.36,4.96-12.79,9.46-18.99,13.95-16.12,11.39-14.65,35.73,2.63,45.27,11.16,6.04,24.96,3.41,33.09-6.2l.85-1.01c.23-.39.39-.62.7-1.01,16.97-22.17,40.15-48.05,70.61-66.5.85-.16,1.63-.54,2.4-1.24,5.35-3.25,11.01-6.2,16.9-8.76-3.18-1.47-6.12-3.25-9.14-5.19ZM352.43,57.74c-12.25.08-24.8,6.43-34.49,15.81-3.95,3.95-7.44,8.37-10.08,13.1-3.8,6.51-5.97,13.56-6.28,20.61-.23,7.29,1.39,12.87,4.96,16.43,3.49,3.8,9.3,5.74,16.97,5.81h.39c5.89,0,11.7-1.47,17.28-4.11,4.8-2.17,9.45-5.27,13.48-9.07,11.24-10,19.07-24.57,19.38-39.45-.7-13.1-7.6-19.14-21.62-19.14ZM79.07,202.6c-8.22-8.22-21.7-13.1-36.04-13.1s-26.66,4.5-34.95,12.25C2.8,206.7.09,211.74.01,216.78c-.23,5.19,2.56,10.62,7.91,16.12,7.91,8.06,20.85,12.79,34.72,12.79,14.88,0,28.6-5.12,38.29-14.26,8.68-9.76,8.29-18.99-1.86-28.83Zm245.92,99.9l-1.39-.08c-5.04,0-20.46,0-20.85,21.85-.39,24.42,25.65,50.07,51.93,50.84l.16.08.31-.08c13.1-.54,19.22-7.44,19.22-21.47,0-24.41-24.88-50.3-49.37-51.15Zm99.98-102c-8.37-8.3-21.93-13.18-36.27-13.18-2.02,0-4.03.08-5.97.31-5.74.54-11.24,1.86-16.04,3.88-4.88,2.02-9.3,4.73-12.79,8.06-5.35,5.04-7.98,10.07-8.14,15.04-.16,5.27,2.56,10.62,7.98,16.2,2.56,2.63,5.66,4.88,9.22,6.74,4.57,2.48,9.77,4.19,15.42,5.12,3.25.54,6.67.85,10.08.85,14.8,0,28.68-5.04,38.13-14.18,8.91-9.84,8.29-19.07-1.63-28.83Zm-188.03,73.86c-1.39-1.47-2.25-3.41-2.25-5.5v-31l-32.09.93c-2.17,0-4.19-.7-5.66-2.25-1.55-1.47-2.33-3.56-2.25-5.66l.93-32.09h-31.7c-2.02,0-4.03-.85-5.42-2.25l-21.7-21.7c-14.41,25.19-15.73,55.73-3.88,81.22,3.49,7.83,8.29,15.11,14.34,21.7,9.38,10.08,21.08,17.67,34.1,22.4,9.22,3.33,19.22,5.04,29.45,5.04,15.89,0,31.31-4.19,44.95-12.01l-18.83-18.83Zm43.17-119.05c-16.04-17.51-39.22-27.51-63.4-27.51-19.38,0-38.75,6.43-54.56,18.21-2.25,1.71-4.5,3.41-6.51,5.2l-9.84,10.69,21.39,21.39h36.43c2.09,0,4.03.86,5.5,2.33,1.47,1.55,2.25,3.56,2.25,5.66l-.93,31.78,31.78-.93c2.09.08,4.11.78,5.66,2.25,1.47,1.39,2.32,3.41,2.32,5.5v35.81l18.6,18.6c.85-.7,1.7-1.47,2.56-2.17l1.16-1.01,12.17-13.72c25.65-34.41,23.72-81.3-4.57-112.07Zm-48.91,196.7c-4.57-4.19-9.14-6.28-13.56-6.28-4.88,0-10.08,2.71-15.27,7.99-17.28,17.44-17.67,53.25-.93,71.07,5.19,5.43,10.31,8.06,15.35,8.06s10.46-2.56,15.81-7.91c17.52-16.97,16.97-53.63-1.39-72.93Z"/>
</svg>