<svg xmlns="http://www.w3.org/2000/svg" xmlns:xlink="http://www.w3.org/1999/xlink" width="500" zoomAndPan="magnify" viewBox="0 0 375 374.999991" height="500" preserveAspectRatio="xMidYMid meet" version="1.0"><defs><linearGradient x1="0" gradientTransform="matrix(0.75, 0, 0, 0.75, 0.0000045, 0)" y1="0" x2="499.999979" gradientUnits="userSpaceOnUse" y2="0" id="ae20cce3c2"><stop stop-opacity="1" stop-color="rgb(12.5%, 69.799805%, 52.49939%)" offset="0"/><stop stop-opacity="1" stop-color="rgb(12.451172%, 69.65332%, 52.445984%)" offset="0.0078125"/><stop stop-opacity="1" stop-color="rgb(12.353516%, 69.361877%, 52.339172%)" offset="0.015625"/><stop stop-opacity="1" stop-color="rgb(12.255859%, 69.070435%, 52.230835%)" offset="0.0234375"/><stop stop-opacity="1" stop-color="rgb(12.158203%, 68.778992%, 52.124023%)" offset="0.03125"/><stop stop-opacity="1" stop-color="rgb(12.060547%, 68.487549%, 52.017212%)" offset="0.0390625"/><stop stop-opacity="1" stop-color="rgb(11.962891%, 68.196106%, 51.9104%)" offset="0.046875"/><stop stop-opacity="1" stop-color="rgb(11.865234%, 67.904663%, 51.803589%)" offset="0.0546875"/><stop stop-opacity="1" stop-color="rgb(11.767578%, 67.61322%, 51.696777%)" offset="0.0625"/><stop stop-opacity="1" stop-color="rgb(11.669922%, 67.321777%, 51.589966%)" offset="0.0703125"/><stop stop-opacity="1" stop-color="rgb(11.572266%, 67.030334%, 51.481628%)" offset="0.078125"/><stop stop-opacity="1" stop-color="rgb(11.474609%, 66.738892%, 51.374817%)" offset="0.0859375"/><stop stop-opacity="1" stop-color="rgb(11.376953%, 66.447449%, 51.268005%)" offset="0.09375"/><stop stop-opacity="1" stop-color="rgb(11.279297%, 66.156006%, 51.161194%)" offset="0.101562"/><stop stop-opacity="1" stop-color="rgb(11.181641%, 65.864563%, 51.054382%)" offset="0.109375"/><stop stop-opacity="1" stop-color="rgb(11.083984%, 65.57312%, 50.947571%)" offset="0.117188"/><stop stop-opacity="1" stop-color="rgb(10.986328%, 65.281677%, 50.840759%)" offset="0.125"/><stop stop-opacity="1" stop-color="rgb(10.888672%, 64.990234%, 50.732422%)" offset="0.132812"/><stop stop-opacity="1" stop-color="rgb(10.791016%, 64.698792%, 50.62561%)" offset="0.140625"/><stop stop-opacity="1" stop-color="rgb(10.693359%, 64.407349%, 50.518799%)" offset="0.148437"/><stop stop-opacity="1" stop-color="rgb(10.595703%, 64.115906%, 50.411987%)" offset="0.15625"/><stop stop-opacity="1" stop-color="rgb(10.498047%, 63.824463%, 50.305176%)" offset="0.164062"/><stop stop-opacity="1" stop-color="rgb(10.400391%, 63.53302%, 50.198364%)" offset="0.171875"/><stop stop-opacity="1" stop-color="rgb(10.302734%, 63.241577%, 50.091553%)" offset="0.179687"/><stop stop-opacity="1" stop-color="rgb(10.205078%, 62.950134%, 49.983215%)" offset="0.1875"/><stop stop-opacity="1" stop-color="rgb(10.107422%, 62.658691%, 49.876404%)" offset="0.195312"/><stop stop-opacity="1" stop-color="rgb(10.009766%, 62.367249%, 49.769592%)" offset="0.203125"/><stop stop-opacity="1" stop-color="rgb(9.912109%, 62.075806%, 49.662781%)" offset="0.210938"/><stop stop-opacity="1" stop-color="rgb(9.814453%, 61.784363%, 49.555969%)" offset="0.21875"/><stop stop-opacity="1" stop-color="rgb(9.716797%, 61.49292%, 49.449158%)" offset="0.226562"/><stop stop-opacity="1" stop-color="rgb(9.619141%, 61.201477%, 49.342346%)" offset="0.234375"/><stop stop-opacity="1" stop-color="rgb(9.521484%, 60.910034%, 49.234009%)" offset="0.242188"/><stop stop-opacity="1" stop-color="rgb(9.423828%, 60.618591%, 49.127197%)" offset="0.25"/><stop stop-opacity="1" stop-color="rgb(9.326172%, 60.327148%, 49.020386%)" offset="0.257812"/><stop stop-opacity="1" stop-color="rgb(9.228516%, 60.035706%, 48.913574%)" offset="0.265625"/><stop stop-opacity="1" stop-color="rgb(9.130859%, 59.744263%, 48.806763%)" offset="0.273437"/><stop stop-opacity="1" stop-color="rgb(9.033203%, 59.45282%, 48.699951%)" offset="0.28125"/><stop stop-opacity="1" stop-color="rgb(8.935547%, 59.162903%, 48.59314%)" offset="0.289062"/><stop stop-opacity="1" stop-color="rgb(8.837891%, 58.87146%, 48.484802%)" offset="0.296875"/><stop stop-opacity="1" stop-color="rgb(8.740234%, 58.580017%, 48.377991%)" offset="0.304687"/><stop stop-opacity="1" stop-color="rgb(8.642578%, 58.288574%, 48.271179%)" offset="0.3125"/><stop stop-opacity="1" stop-color="rgb(8.544922%, 57.997131%, 48.164368%)" offset="0.320312"/><stop stop-opacity="1" stop-color="rgb(8.447266%, 57.705688%, 48.057556%)" offset="0.328125"/><stop stop-opacity="1" stop-color="rgb(8.349609%, 57.414246%, 47.950745%)" offset="0.335937"/><stop stop-opacity="1" stop-color="rgb(8.251953%, 57.122803%, 47.843933%)" offset="0.34375"/><stop stop-opacity="1" stop-color="rgb(8.154297%, 56.83136%, 47.735596%)" offset="0.351562"/><stop stop-opacity="1" stop-color="rgb(8.056641%, 56.539917%, 47.628784%)" offset="0.359375"/><stop stop-opacity="1" stop-color="rgb(7.958984%, 56.248474%, 47.521973%)" offset="0.367187"/><stop stop-opacity="1" stop-color="rgb(7.861328%, 55.957031%, 47.415161%)" offset="0.375"/><stop stop-opacity="1" stop-color="rgb(7.763672%, 55.665588%, 47.30835%)" offset="0.382812"/><stop stop-opacity="1" stop-color="rgb(7.666016%, 55.374146%, 47.201538%)" offset="0.390625"/><stop stop-opacity="1" stop-color="rgb(7.568359%, 55.082703%, 47.094727%)" offset="0.398438"/><stop stop-opacity="1" stop-color="rgb(7.470703%, 54.79126%, 46.986389%)" offset="0.40625"/><stop stop-opacity="1" stop-color="rgb(7.373047%, 54.499817%, 46.879578%)" offset="0.414062"/><stop stop-opacity="1" stop-color="rgb(7.275391%, 54.208374%, 46.772766%)" offset="0.421875"/><stop stop-opacity="1" stop-color="rgb(7.177734%, 53.916931%, 46.665955%)" offset="0.429688"/><stop stop-opacity="1" stop-color="rgb(7.080078%, 53.625488%, 46.559143%)" offset="0.4375"/><stop stop-opacity="1" stop-color="rgb(6.982422%, 53.334045%, 46.452332%)" offset="0.445312"/><stop stop-opacity="1" stop-color="rgb(6.884766%, 53.042603%, 46.34552%)" offset="0.453125"/><stop stop-opacity="1" stop-color="rgb(6.787109%, 52.75116%, 46.237183%)" offset="0.460938"/><stop stop-opacity="1" stop-color="rgb(6.689453%, 52.459717%, 46.130371%)" offset="0.46875"/><stop stop-opacity="1" stop-color="rgb(6.591797%, 52.168274%, 46.02356%)" offset="0.476562"/><stop stop-opacity="1" stop-color="rgb(6.494141%, 51.876831%, 45.916748%)" offset="0.484375"/><stop stop-opacity="1" stop-color="rgb(6.396484%, 51.585388%, 45.809937%)" offset="0.492188"/><stop stop-opacity="1" stop-color="rgb(6.298828%, 51.293945%, 45.703125%)" offset="0.5"/><stop stop-opacity="1" stop-color="rgb(6.201172%, 51.002502%, 45.596313%)" offset="0.507812"/><stop stop-opacity="1" stop-color="rgb(6.103516%, 50.71106%, 45.487976%)" offset="0.515625"/><stop stop-opacity="1" stop-color="rgb(6.005859%, 50.419617%, 45.381165%)" offset="0.523437"/><stop stop-opacity="1" stop-color="rgb(5.908203%, 50.128174%, 45.274353%)" offset="0.53125"/><stop stop-opacity="1" stop-color="rgb(5.810547%, 49.836731%, 45.167542%)" offset="0.539062"/><stop stop-opacity="1" stop-color="rgb(5.712891%, 49.545288%, 45.06073%)" offset="0.546875"/><stop stop-opacity="1" stop-color="rgb(5.615234%, 49.253845%, 44.953918%)" offset="0.554687"/><stop stop-opacity="1" stop-color="rgb(5.517578%, 48.962402%, 44.847107%)" offset="0.5625"/><stop stop-opacity="1" stop-color="rgb(5.419922%, 48.670959%, 44.73877%)" offset="0.570312"/><stop stop-opacity="1" stop-color="rgb(5.322266%, 48.379517%, 44.631958%)" offset="0.578125"/><stop stop-opacity="1" stop-color="rgb(5.224609%, 48.088074%, 44.525146%)" offset="0.585937"/><stop stop-opacity="1" stop-color="rgb(5.126953%, 47.796631%, 44.418335%)" offset="0.59375"/><stop stop-opacity="1" stop-color="rgb(5.029297%, 47.505188%, 44.311523%)" offset="0.601562"/><stop stop-opacity="1" stop-color="rgb(4.931641%, 47.215271%, 44.204712%)" offset="0.609375"/><stop stop-opacity="1" stop-color="rgb(4.833984%, 46.923828%, 44.0979%)" offset="0.617187"/><stop stop-opacity="1" stop-color="rgb(4.736328%, 46.632385%, 43.989563%)" offset="0.625"/><stop stop-opacity="1" stop-color="rgb(4.638672%, 46.340942%, 43.882751%)" offset="0.632812"/><stop stop-opacity="1" stop-color="rgb(4.541016%, 46.0495%, 43.77594%)" offset="0.640625"/><stop stop-opacity="1" stop-color="rgb(4.443359%, 45.758057%, 43.669128%)" offset="0.648437"/><stop stop-opacity="1" stop-color="rgb(4.345703%, 45.466614%, 43.562317%)" offset="0.65625"/><stop stop-opacity="1" stop-color="rgb(4.248047%, 45.175171%, 43.455505%)" offset="0.664062"/><stop stop-opacity="1" stop-color="rgb(4.150391%, 44.883728%, 43.348694%)" offset="0.671875"/><stop stop-opacity="1" stop-color="rgb(4.052734%, 44.592285%, 43.240356%)" offset="0.679687"/><stop stop-opacity="1" stop-color="rgb(3.955078%, 44.300842%, 43.133545%)" offset="0.6875"/><stop stop-opacity="1" stop-color="rgb(3.857422%, 44.009399%, 43.026733%)" offset="0.695312"/><stop stop-opacity="1" stop-color="rgb(3.759766%, 43.717957%, 42.919922%)" offset="0.703125"/><stop stop-opacity="1" stop-color="rgb(3.662109%, 43.426514%, 42.81311%)" offset="0.710937"/><stop stop-opacity="1" stop-color="rgb(3.564453%, 43.135071%, 42.706299%)" offset="0.71875"/><stop stop-opacity="1" stop-color="rgb(3.466797%, 42.843628%, 42.599487%)" offset="0.726562"/><stop stop-opacity="1" stop-color="rgb(3.369141%, 42.552185%, 42.49115%)" offset="0.734375"/><stop stop-opacity="1" stop-color="rgb(3.271484%, 42.260742%, 42.384338%)" offset="0.742187"/><stop stop-opacity="1" stop-color="rgb(3.173828%, 41.969299%, 42.277527%)" offset="0.75"/><stop stop-opacity="1" stop-color="rgb(3.076172%, 41.677856%, 42.170715%)" offset="0.757812"/><stop stop-opacity="1" stop-color="rgb(2.978516%, 41.386414%, 42.063904%)" offset="0.765625"/><stop stop-opacity="1" stop-color="rgb(2.880859%, 41.094971%, 41.957092%)" offset="0.773438"/><stop stop-opacity="1" stop-color="rgb(2.783203%, 40.803528%, 41.850281%)" offset="0.78125"/><stop stop-opacity="1" stop-color="rgb(2.685547%, 40.512085%, 41.741943%)" offset="0.789062"/><stop stop-opacity="1" stop-color="rgb(2.587891%, 40.220642%, 41.635132%)" offset="0.796875"/><stop stop-opacity="1" stop-color="rgb(2.490234%, 39.929199%, 41.52832%)" offset="0.804688"/><stop stop-opacity="1" stop-color="rgb(2.392578%, 39.637756%, 41.421509%)" offset="0.8125"/><stop stop-opacity="1" stop-color="rgb(2.294922%, 39.346313%, 41.314697%)" offset="0.820312"/><stop stop-opacity="1" stop-color="rgb(2.197266%, 39.054871%, 41.207886%)" offset="0.828125"/><stop stop-opacity="1" stop-color="rgb(2.099609%, 38.763428%, 41.099548%)" offset="0.835938"/><stop stop-opacity="1" stop-color="rgb(2.001953%, 38.471985%, 40.992737%)" offset="0.84375"/><stop stop-opacity="1" stop-color="rgb(1.904297%, 38.180542%, 40.885925%)" offset="0.851562"/><stop stop-opacity="1" stop-color="rgb(1.806641%, 37.889099%, 40.779114%)" offset="0.859375"/><stop stop-opacity="1" stop-color="rgb(1.708984%, 37.597656%, 40.672302%)" offset="0.867188"/><stop stop-opacity="1" stop-color="rgb(1.611328%, 37.306213%, 40.565491%)" offset="0.875"/><stop stop-opacity="1" stop-color="rgb(1.513672%, 37.014771%, 40.458679%)" offset="0.882812"/><stop stop-opacity="1" stop-color="rgb(1.416016%, 36.723328%, 40.350342%)" offset="0.890625"/><stop stop-opacity="1" stop-color="rgb(1.318359%, 36.431885%, 40.24353%)" offset="0.898438"/><stop stop-opacity="1" stop-color="rgb(1.220703%, 36.140442%, 40.136719%)" offset="0.90625"/><stop stop-opacity="1" stop-color="rgb(1.123047%, 35.848999%, 40.029907%)" offset="0.914062"/><stop stop-opacity="1" stop-color="rgb(1.025391%, 35.557556%, 39.923096%)" offset="0.921875"/><stop stop-opacity="1" stop-color="rgb(0.927734%, 35.266113%, 39.816284%)" offset="0.929688"/><stop stop-opacity="1" stop-color="rgb(0.830078%, 34.976196%, 39.709473%)" offset="0.9375"/><stop stop-opacity="1" stop-color="rgb(0.732422%, 34.684753%, 39.601135%)" offset="0.945312"/><stop stop-opacity="1" stop-color="rgb(0.634766%, 34.393311%, 39.494324%)" offset="0.953125"/><stop stop-opacity="1" stop-color="rgb(0.537109%, 34.101868%, 39.387512%)" offset="0.960938"/><stop stop-opacity="1" stop-color="rgb(0.439453%, 33.810425%, 39.280701%)" offset="0.96875"/><stop stop-opacity="1" stop-color="rgb(0.341797%, 33.518982%, 39.173889%)" offset="0.976562"/><stop stop-opacity="1" stop-color="rgb(0.244141%, 33.227539%, 39.067078%)" offset="0.984375"/><stop stop-opacity="1" stop-color="rgb(0.146484%, 32.936096%, 38.960266%)" offset="0.992188"/><stop stop-opacity="1" stop-color="rgb(0.0488281%, 32.644653%, 38.851929%)" offset="1"/></linearGradient><clipPath id="1e4bb70d4b"><path d="M 51 93 L 308 93 L 308 295 L 51 295 Z M 51 93 " clip-rule="nonzero"/></clipPath><clipPath id="dabdc985a8"><path d="M 110.828125 41.519531 L 345.132812 103.058594 L 279.972656 351.144531 L 45.671875 289.605469 Z M 110.828125 41.519531 " clip-rule="nonzero"/></clipPath><clipPath id="c1be360cc3"><path d="M 110.828125 41.519531 L 345.132812 103.058594 L 279.972656 351.144531 L 45.671875 289.605469 Z M 110.828125 41.519531 " clip-rule="nonzero"/></clipPath><clipPath id="21cd672af6"><path d="M 180 161 L 216 161 L 216 207 L 180 207 Z M 180 161 " clip-rule="nonzero"/></clipPath><clipPath id="2394390b02"><path d="M 110.828125 41.519531 L 345.132812 103.058594 L 279.972656 351.144531 L 45.671875 289.605469 Z M 110.828125 41.519531 " clip-rule="nonzero"/></clipPath><clipPath id="19cfcc568a"><path d="M 110.828125 41.519531 L 345.132812 103.058594 L 279.972656 351.144531 L 45.671875 289.605469 Z M 110.828125 41.519531 " clip-rule="nonzero"/></clipPath><clipPath id="8672448d45"><path d="M 194 177 L 206 177 L 206 189 L 194 189 Z M 194 177 " clip-rule="nonzero"/></clipPath><clipPath id="70044b4f89"><path d="M 110.828125 41.519531 L 345.132812 103.058594 L 279.972656 351.144531 L 45.671875 289.605469 Z M 110.828125 41.519531 " clip-rule="nonzero"/></clipPath><clipPath id="63cb7f037c"><path d="M 110.828125 41.519531 L 345.132812 103.058594 L 279.972656 351.144531 L 45.671875 289.605469 Z M 110.828125 41.519531 " clip-rule="nonzero"/></clipPath><clipPath id="6a19700e5d"><path d="M 160 68 L 310 68 L 310 247 L 160 247 Z M 160 68 " clip-rule="nonzero"/></clipPath><clipPath id="6517521c5a"><path d="M 110.828125 41.519531 L 345.132812 103.058594 L 279.972656 351.144531 L 45.671875 289.605469 Z M 110.828125 41.519531 " clip-rule="nonzero"/></clipPath><clipPath id="b1d4387a1f"><path d="M 110.828125 41.519531 L 345.132812 103.058594 L 279.972656 351.144531 L 45.671875 289.605469 Z M 110.828125 41.519531 " clip-rule="nonzero"/></clipPath><clipPath id="755272bd9e"><path d="M 262 111 L 273 111 L 273 122 L 262 122 Z M 262 111 " clip-rule="nonzero"/></clipPath><clipPath id="ae8ea374eb"><path d="M 110.828125 41.519531 L 345.132812 103.058594 L 279.972656 351.144531 L 45.671875 289.605469 Z M 110.828125 41.519531 " clip-rule="nonzero"/></clipPath><clipPath id="19d1f3b88c"><path d="M 110.828125 41.519531 L 345.132812 103.058594 L 279.972656 351.144531 L 45.671875 289.605469 Z M 110.828125 41.519531 " clip-rule="nonzero"/></clipPath><clipPath id="104d5ccfec"><path d="M 198 110 L 253 110 L 253 147 L 198 147 Z M 198 110 " clip-rule="nonzero"/></clipPath><clipPath id="3382b3d712"><path d="M 110.828125 41.519531 L 345.132812 103.058594 L 279.972656 351.144531 L 45.671875 289.605469 Z M 110.828125 41.519531 " clip-rule="nonzero"/></clipPath><clipPath id="413e834b2a"><path d="M 110.828125 41.519531 L 345.132812 103.058594 L 279.972656 351.144531 L 45.671875 289.605469 Z M 110.828125 41.519531 " clip-rule="nonzero"/></clipPath></defs><rect x="-37.5" width="450" fill="#ffffff" y="-37.499999" height="449.999989" fill-opacity="1"/><rect x="-37.5" fill="url(#ae20cce3c2)" width="450" y="-37.499999" height="449.999989"/><g clip-path="url(#1e4bb70d4b)"><g clip-path="url(#dabdc985a8)"><g clip-path="url(#c1be360cc3)"><path fill="#ffffff" d="M 212.269531 172.558594 C 216.667969 178.703125 220.589844 185.101562 224.046875 191.695312 C 226.492188 196.359375 228.136719 199.761719 230.082031 204.539062 C 231.421875 207.835938 231.976562 208.796875 235.539062 208.140625 C 248.921875 205.683594 262.300781 199.535156 276.976562 184.03125 C 292.101562 168.046875 298.742188 151.929688 298.695312 138.238281 C 298.667969 130.554688 296.523438 123.648438 292.585938 118.007812 C 288.644531 112.359375 282.875 107.929688 275.609375 105.199219 C 262.496094 100.277344 244.578125 100.882812 223.640625 109.730469 C 205.148438 117.546875 194.648438 128.019531 187.945312 139.203125 C 184.859375 144.347656 186.777344 144.5 191.023438 148.355469 C 194.171875 151.214844 195.605469 152.722656 198.546875 155.859375 C 203.46875 161.101562 208.054688 166.671875 212.269531 172.558594 Z M 120.347656 239.589844 C 117.894531 236.164062 115.175781 232.96875 112.230469 230.007812 C 111.429688 229.203125 111.050781 228.828125 110.222656 228.0625 C 108.078125 226.09375 108.410156 225.890625 111.222656 224.382812 C 121.570312 218.824219 132.964844 213.738281 147.035156 208.539062 C 161.046875 203.359375 167.421875 193.832031 171.871094 182.265625 C 176.050781 171.398438 199.144531 209.238281 192.160156 209.585938 C 191.527344 209.617188 190.089844 209.71875 189.460938 209.765625 C 177.925781 210.601562 168.378906 213.859375 159.355469 224.980469 C 150.144531 236.324219 142.4375 244.714844 133.984375 252.585938 C 130.78125 255.566406 129.417969 256.230469 127.933594 252.765625 C 127.472656 251.695312 127.574219 251.960938 127.0625 250.902344 C 125.167969 246.992188 122.933594 243.207031 120.347656 239.589844 Z M 130.304688 267.878906 C 127.214844 270.457031 124.082031 272.898438 120.929688 275.195312 C 117.695312 277.558594 114.605469 279.640625 111.667969 281.464844 C 101.757812 287.617188 90.828125 293.007812 78.835938 294.441406 C 67.730469 295.769531 59.457031 292.699219 55.050781 286.621094 C 50.632812 280.527344 50.355469 271.753906 55.257812 261.699219 C 60.621094 250.691406 69.550781 242.078125 78.808594 234.683594 C 81.527344 232.515625 84.507812 230.308594 87.769531 228.066406 C 91 225.847656 94.332031 223.707031 97.746094 221.667969 C 112.25 213.015625 128.058594 205.953125 143.90625 200.097656 C 158.007812 194.886719 162.589844 182.882812 166.855469 168.847656 L 166.878906 168.765625 L 166.949219 168.539062 L 166.964844 168.484375 L 166.996094 168.382812 L 167.011719 168.328125 C 167.328125 167.289062 167.640625 166.238281 167.953125 165.183594 C 168.164062 164.480469 168.375 163.773438 168.585938 163.066406 L 168.664062 162.8125 L 168.851562 162.183594 L 168.972656 161.789062 L 169.074219 161.445312 C 171.21875 154.371094 173.625 147.023438 177.207031 139.8125 C 185.378906 121.925781 202.195312 109.007812 220.132812 101.429688 C 243.371094 91.605469 263.644531 91.082031 278.78125 96.765625 C 287.785156 100.144531 294.992188 105.714844 299.972656 112.851562 C 304.957031 120 307.679688 128.660156 307.710938 138.214844 C 307.765625 154.082031 300.367188 172.441406 283.511719 190.253906 C 269.75 204.796875 252.011719 215.929688 232.003906 217.949219 C 224.667969 218.878906 217.597656 218.882812 210.835938 218.738281 L 210.496094 218.730469 L 210.160156 218.722656 L 210.003906 218.71875 L 209.820312 218.714844 L 209.484375 218.707031 L 209.144531 218.699219 L 208.933594 218.695312 L 208.808594 218.691406 L 206.804688 218.640625 L 205.199219 218.597656 L 205.109375 218.59375 L 205.019531 218.59375 C 189.6875 218.207031 176.347656 218.332031 166.335938 230.667969 C 155.527344 243.984375 143.460938 256.894531 130.304688 267.878906 Z M 78.140625 247.019531 C 70.964844 253.640625 66.132812 259.980469 63.355469 265.675781 C 60.039062 272.480469 59.898438 277.964844 62.355469 281.351562 C 64.820312 284.753906 70.152344 286.390625 77.765625 285.480469 C 83.726562 284.765625 90.8125 282.539062 98.789062 278.472656 C 112.964844 271.25 87.664062 238.242188 78.140625 247.019531 Z M 118.941406 254.847656 C 117.285156 251.425781 115.304688 248.082031 112.992188 244.851562 C 110.769531 241.746094 108.375 238.917969 105.832031 236.363281 C 104.285156 234.808594 102.671875 233.339844 101.007812 231.964844 C 99.515625 230.730469 99.117188 231.417969 97.429688 232.480469 C 95.523438 233.679688 94.554688 234.335938 92.894531 235.472656 C 92.289062 235.890625 92.414062 235.796875 91.824219 236.214844 C 90.023438 237.492188 89.402344 237.5625 91.121094 238.820312 C 92.34375 239.71875 93.539062 240.671875 94.699219 241.675781 C 98.035156 244.566406 101.058594 247.851562 103.679688 251.515625 C 106.425781 255.355469 108.628906 259.441406 110.300781 263.675781 C 110.808594 264.960938 110.613281 264.300781 111.023438 265.613281 C 112.214844 269.453125 111.90625 270.632812 115.632812 267.914062 C 116.878906 267.003906 118.164062 266.035156 119.480469 265.011719 C 122.222656 262.878906 122.027344 262.296875 120.859375 259.199219 C 120.148438 257.308594 119.832031 256.6875 118.941406 254.847656 Z M 177.828125 169.707031 C 176.617188 168.570312 176.359375 168.542969 176.851562 166.894531 C 178.066406 162.824219 178.542969 160.933594 179.980469 156.933594 C 181.15625 153.671875 181.40625 151.742188 183.992188 154.117188 C 186.722656 156.632812 189.382812 159.261719 191.960938 162.007812 C 196.515625 166.863281 200.847656 172.132812 204.914062 177.820312 C 209.128906 183.703125 212.839844 189.742188 216.0625 195.890625 C 218.0625 199.703125 219.886719 203.585938 221.542969 207.523438 C 222.589844 210.019531 221.824219 209.671875 219.117188 209.746094 C 215.308594 209.84375 212.613281 209.753906 208.992188 209.664062 L 208.902344 209.664062 C 206.050781 209.589844 205.71875 210.457031 204.597656 207.90625 C 198.351562 193.683594 189.15625 180.359375 177.828125 169.707031 Z M 177.828125 169.707031 " fill-opacity="1" fill-rule="evenodd"/></g></g></g><g clip-path="url(#21cd672af6)"><g clip-path="url(#2394390b02)"><g clip-path="url(#19cfcc568a)"><path fill="#ffffff" d="M 190.199219 163.582031 C 191.960938 166.042969 191.394531 169.46875 188.929688 171.230469 C 186.46875 172.992188 183.042969 172.421875 181.285156 169.960938 C 179.523438 167.5 180.089844 164.074219 182.550781 162.3125 C 185.011719 160.550781 188.4375 161.121094 190.199219 163.582031 Z M 214.574219 197.648438 C 216.335938 200.113281 215.769531 203.535156 213.308594 205.296875 C 210.84375 207.058594 207.421875 206.492188 205.660156 204.03125 C 203.898438 201.566406 204.464844 198.144531 206.929688 196.382812 C 209.390625 194.621094 212.8125 195.1875 214.574219 197.648438 Z M 214.574219 197.648438 " fill-opacity="1" fill-rule="evenodd"/></g></g></g><g clip-path="url(#8672448d45)"><g clip-path="url(#70044b4f89)"><g clip-path="url(#63cb7f037c)"><path fill="#ffffff" d="M 204.152344 179.351562 C 205.914062 181.816406 205.347656 185.238281 202.882812 187 C 200.421875 188.761719 196.996094 188.195312 195.234375 185.730469 C 193.476562 183.269531 194.042969 179.847656 196.503906 178.085938 C 198.964844 176.324219 202.390625 176.890625 204.152344 179.351562 Z M 204.152344 179.351562 " fill-opacity="1" fill-rule="evenodd"/></g></g></g><g clip-path="url(#6a19700e5d)"><g clip-path="url(#6517521c5a)"><g clip-path="url(#b1d4387a1f)"><path fill="#ffffff" d="M 210.859375 70.539062 C 184.285156 60.828125 158.6875 84.003906 160.296875 110.898438 C 171.6875 87.257812 185.433594 77.445312 210.859375 70.539062 Z M 309.5625 208.488281 C 310.175781 236.773438 279.980469 253.523438 255.046875 243.316406 C 281.09375 240.167969 294.824219 230.324219 309.5625 208.488281 Z M 307.757812 173.765625 C 290.023438 211.175781 268.140625 226.566406 221.621094 228.796875 C 262.164062 244.265625 309.847656 217.671875 307.757812 173.765625 Z M 243.140625 83.457031 C 202.007812 88.164062 180.378906 103.910156 163.25 147.21875 C 161.699219 103.851562 202.257812 67.308594 243.140625 83.457031 Z M 243.140625 83.457031 " fill-opacity="1" fill-rule="evenodd"/></g></g></g><g clip-path="url(#755272bd9e)"><g clip-path="url(#ae8ea374eb)"><g clip-path="url(#19d1f3b88c)"><path fill="#ffffff" d="M 265.703125 120.332031 C 263.316406 119.628906 261.953125 117.125 262.65625 114.738281 C 263.359375 112.351562 265.863281 110.988281 268.25 111.691406 C 268.601562 111.792969 268.890625 111.882812 269.113281 111.953125 C 269.535156 112.089844 269.816406 112.183594 269.96875 112.234375 C 272.320312 113.058594 273.558594 115.632812 272.734375 117.984375 C 271.910156 120.335938 269.335938 121.574219 266.984375 120.75 L 266.347656 120.53125 C 266.074219 120.445312 265.855469 120.378906 265.703125 120.332031 Z M 265.703125 120.332031 " fill-opacity="1" fill-rule="evenodd"/></g></g></g><g clip-path="url(#104d5ccfec)"><g clip-path="url(#3382b3d712)"><g clip-path="url(#413e834b2a)"><path fill="#ffffff" d="M 206.9375 144.933594 C 205.367188 146.859375 202.53125 147.148438 200.601562 145.578125 C 198.675781 144.007812 198.386719 141.171875 199.957031 139.242188 C 202.199219 136.480469 204.667969 133.84375 207.320312 131.359375 C 210.03125 128.828125 212.878906 126.488281 215.824219 124.378906 C 220.75 120.855469 225.992188 117.902344 231.335938 115.609375 C 236.710938 113.304688 242.203125 111.671875 247.597656 110.800781 C 250.054688 110.394531 252.375 112.0625 252.777344 114.519531 C 253.179688 116.976562 251.515625 119.296875 249.058594 119.699219 C 244.417969 120.449219 239.644531 121.878906 234.925781 123.902344 C 230.175781 125.9375 225.5 128.574219 221.085938 131.734375 C 218.335938 133.699219 215.785156 135.78125 213.46875 137.949219 C 211.09375 140.167969 208.90625 142.507812 206.9375 144.933594 Z M 206.9375 144.933594 " fill-opacity="1" fill-rule="evenodd"/></g></g></g></svg>