<svg xmlns="http://www.w3.org/2000/svg" xmlns:xlink="http://www.w3.org/1999/xlink" width="500" zoomAndPan="magnify" viewBox="0 0 375 374.999991" height="500" preserveAspectRatio="xMidYMid meet" version="1.0"><defs><g/><linearGradient x1="0" gradientTransform="matrix(0.75, 0, 0, 0.75, 0.0000045, 0)" y1="0" x2="499.999979" gradientUnits="userSpaceOnUse" y2="0" id="6c5f3a4e1e"><stop stop-opacity="1" stop-color="rgb(12.5%, 69.799805%, 52.49939%)" offset="0"/><stop stop-opacity="1" stop-color="rgb(12.451172%, 69.65332%, 52.445984%)" offset="0.0078125"/><stop stop-opacity="1" stop-color="rgb(12.353516%, 69.361877%, 52.339172%)" offset="0.015625"/><stop stop-opacity="1" stop-color="rgb(12.255859%, 69.070435%, 52.230835%)" offset="0.0234375"/><stop stop-opacity="1" stop-color="rgb(12.158203%, 68.778992%, 52.124023%)" offset="0.03125"/><stop stop-opacity="1" stop-color="rgb(12.060547%, 68.487549%, 52.017212%)" offset="0.0390625"/><stop stop-opacity="1" stop-color="rgb(11.962891%, 68.196106%, 51.9104%)" offset="0.046875"/><stop stop-opacity="1" stop-color="rgb(11.865234%, 67.904663%, 51.803589%)" offset="0.0546875"/><stop stop-opacity="1" stop-color="rgb(11.767578%, 67.61322%, 51.696777%)" offset="0.0625"/><stop stop-opacity="1" stop-color="rgb(11.669922%, 67.321777%, 51.589966%)" offset="0.0703125"/><stop stop-opacity="1" stop-color="rgb(11.572266%, 67.030334%, 51.481628%)" offset="0.078125"/><stop stop-opacity="1" stop-color="rgb(11.474609%, 66.738892%, 51.374817%)" offset="0.0859375"/><stop stop-opacity="1" stop-color="rgb(11.376953%, 66.447449%, 51.268005%)" offset="0.09375"/><stop stop-opacity="1" stop-color="rgb(11.279297%, 66.156006%, 51.161194%)" offset="0.101562"/><stop stop-opacity="1" stop-color="rgb(11.181641%, 65.864563%, 51.054382%)" offset="0.109375"/><stop stop-opacity="1" stop-color="rgb(11.083984%, 65.57312%, 50.947571%)" offset="0.117188"/><stop stop-opacity="1" stop-color="rgb(10.986328%, 65.281677%, 50.840759%)" offset="0.125"/><stop stop-opacity="1" stop-color="rgb(10.888672%, 64.990234%, 50.732422%)" offset="0.132812"/><stop stop-opacity="1" stop-color="rgb(10.791016%, 64.698792%, 50.62561%)" offset="0.140625"/><stop stop-opacity="1" stop-color="rgb(10.693359%, 64.407349%, 50.518799%)" offset="0.148437"/><stop stop-opacity="1" stop-color="rgb(10.595703%, 64.115906%, 50.411987%)" offset="0.15625"/><stop stop-opacity="1" stop-color="rgb(10.498047%, 63.824463%, 50.305176%)" offset="0.164062"/><stop stop-opacity="1" stop-color="rgb(10.400391%, 63.53302%, 50.198364%)" offset="0.171875"/><stop stop-opacity="1" stop-color="rgb(10.302734%, 63.241577%, 50.091553%)" offset="0.179687"/><stop stop-opacity="1" stop-color="rgb(10.205078%, 62.950134%, 49.983215%)" offset="0.1875"/><stop stop-opacity="1" stop-color="rgb(10.107422%, 62.658691%, 49.876404%)" offset="0.195312"/><stop stop-opacity="1" stop-color="rgb(10.009766%, 62.367249%, 49.769592%)" offset="0.203125"/><stop stop-opacity="1" stop-color="rgb(9.912109%, 62.075806%, 49.662781%)" offset="0.210938"/><stop stop-opacity="1" stop-color="rgb(9.814453%, 61.784363%, 49.555969%)" offset="0.21875"/><stop stop-opacity="1" stop-color="rgb(9.716797%, 61.49292%, 49.449158%)" offset="0.226562"/><stop stop-opacity="1" stop-color="rgb(9.619141%, 61.201477%, 49.342346%)" offset="0.234375"/><stop stop-opacity="1" stop-color="rgb(9.521484%, 60.910034%, 49.234009%)" offset="0.242188"/><stop stop-opacity="1" stop-color="rgb(9.423828%, 60.618591%, 49.127197%)" offset="0.25"/><stop stop-opacity="1" stop-color="rgb(9.326172%, 60.327148%, 49.020386%)" offset="0.257812"/><stop stop-opacity="1" stop-color="rgb(9.228516%, 60.035706%, 48.913574%)" offset="0.265625"/><stop stop-opacity="1" stop-color="rgb(9.130859%, 59.744263%, 48.806763%)" offset="0.273437"/><stop stop-opacity="1" stop-color="rgb(9.033203%, 59.45282%, 48.699951%)" offset="0.28125"/><stop stop-opacity="1" stop-color="rgb(8.935547%, 59.162903%, 48.59314%)" offset="0.289062"/><stop stop-opacity="1" stop-color="rgb(8.837891%, 58.87146%, 48.484802%)" offset="0.296875"/><stop stop-opacity="1" stop-color="rgb(8.740234%, 58.580017%, 48.377991%)" offset="0.304687"/><stop stop-opacity="1" stop-color="rgb(8.642578%, 58.288574%, 48.271179%)" offset="0.3125"/><stop stop-opacity="1" stop-color="rgb(8.544922%, 57.997131%, 48.164368%)" offset="0.320312"/><stop stop-opacity="1" stop-color="rgb(8.447266%, 57.705688%, 48.057556%)" offset="0.328125"/><stop stop-opacity="1" stop-color="rgb(8.349609%, 57.414246%, 47.950745%)" offset="0.335937"/><stop stop-opacity="1" stop-color="rgb(8.251953%, 57.122803%, 47.843933%)" offset="0.34375"/><stop stop-opacity="1" stop-color="rgb(8.154297%, 56.83136%, 47.735596%)" offset="0.351562"/><stop stop-opacity="1" stop-color="rgb(8.056641%, 56.539917%, 47.628784%)" offset="0.359375"/><stop stop-opacity="1" stop-color="rgb(7.958984%, 56.248474%, 47.521973%)" offset="0.367187"/><stop stop-opacity="1" stop-color="rgb(7.861328%, 55.957031%, 47.415161%)" offset="0.375"/><stop stop-opacity="1" stop-color="rgb(7.763672%, 55.665588%, 47.30835%)" offset="0.382812"/><stop stop-opacity="1" stop-color="rgb(7.666016%, 55.374146%, 47.201538%)" offset="0.390625"/><stop stop-opacity="1" stop-color="rgb(7.568359%, 55.082703%, 47.094727%)" offset="0.398438"/><stop stop-opacity="1" stop-color="rgb(7.470703%, 54.79126%, 46.986389%)" offset="0.40625"/><stop stop-opacity="1" stop-color="rgb(7.373047%, 54.499817%, 46.879578%)" offset="0.414062"/><stop stop-opacity="1" stop-color="rgb(7.275391%, 54.208374%, 46.772766%)" offset="0.421875"/><stop stop-opacity="1" stop-color="rgb(7.177734%, 53.916931%, 46.665955%)" offset="0.429688"/><stop stop-opacity="1" stop-color="rgb(7.080078%, 53.625488%, 46.559143%)" offset="0.4375"/><stop stop-opacity="1" stop-color="rgb(6.982422%, 53.334045%, 46.452332%)" offset="0.445312"/><stop stop-opacity="1" stop-color="rgb(6.884766%, 53.042603%, 46.34552%)" offset="0.453125"/><stop stop-opacity="1" stop-color="rgb(6.787109%, 52.75116%, 46.237183%)" offset="0.460938"/><stop stop-opacity="1" stop-color="rgb(6.689453%, 52.459717%, 46.130371%)" offset="0.46875"/><stop stop-opacity="1" stop-color="rgb(6.591797%, 52.168274%, 46.02356%)" offset="0.476562"/><stop stop-opacity="1" stop-color="rgb(6.494141%, 51.876831%, 45.916748%)" offset="0.484375"/><stop stop-opacity="1" stop-color="rgb(6.396484%, 51.585388%, 45.809937%)" offset="0.492188"/><stop stop-opacity="1" stop-color="rgb(6.298828%, 51.293945%, 45.703125%)" offset="0.5"/><stop stop-opacity="1" stop-color="rgb(6.201172%, 51.002502%, 45.596313%)" offset="0.507812"/><stop stop-opacity="1" stop-color="rgb(6.103516%, 50.71106%, 45.487976%)" offset="0.515625"/><stop stop-opacity="1" stop-color="rgb(6.005859%, 50.419617%, 45.381165%)" offset="0.523437"/><stop stop-opacity="1" stop-color="rgb(5.908203%, 50.128174%, 45.274353%)" offset="0.53125"/><stop stop-opacity="1" stop-color="rgb(5.810547%, 49.836731%, 45.167542%)" offset="0.539062"/><stop stop-opacity="1" stop-color="rgb(5.712891%, 49.545288%, 45.06073%)" offset="0.546875"/><stop stop-opacity="1" stop-color="rgb(5.615234%, 49.253845%, 44.953918%)" offset="0.554687"/><stop stop-opacity="1" stop-color="rgb(5.517578%, 48.962402%, 44.847107%)" offset="0.5625"/><stop stop-opacity="1" stop-color="rgb(5.419922%, 48.670959%, 44.73877%)" offset="0.570312"/><stop stop-opacity="1" stop-color="rgb(5.322266%, 48.379517%, 44.631958%)" offset="0.578125"/><stop stop-opacity="1" stop-color="rgb(5.224609%, 48.088074%, 44.525146%)" offset="0.585937"/><stop stop-opacity="1" stop-color="rgb(5.126953%, 47.796631%, 44.418335%)" offset="0.59375"/><stop stop-opacity="1" stop-color="rgb(5.029297%, 47.505188%, 44.311523%)" offset="0.601562"/><stop stop-opacity="1" stop-color="rgb(4.931641%, 47.215271%, 44.204712%)" offset="0.609375"/><stop stop-opacity="1" stop-color="rgb(4.833984%, 46.923828%, 44.0979%)" offset="0.617187"/><stop stop-opacity="1" stop-color="rgb(4.736328%, 46.632385%, 43.989563%)" offset="0.625"/><stop stop-opacity="1" stop-color="rgb(4.638672%, 46.340942%, 43.882751%)" offset="0.632812"/><stop stop-opacity="1" stop-color="rgb(4.541016%, 46.0495%, 43.77594%)" offset="0.640625"/><stop stop-opacity="1" stop-color="rgb(4.443359%, 45.758057%, 43.669128%)" offset="0.648437"/><stop stop-opacity="1" stop-color="rgb(4.345703%, 45.466614%, 43.562317%)" offset="0.65625"/><stop stop-opacity="1" stop-color="rgb(4.248047%, 45.175171%, 43.455505%)" offset="0.664062"/><stop stop-opacity="1" stop-color="rgb(4.150391%, 44.883728%, 43.348694%)" offset="0.671875"/><stop stop-opacity="1" stop-color="rgb(4.052734%, 44.592285%, 43.240356%)" offset="0.679687"/><stop stop-opacity="1" stop-color="rgb(3.955078%, 44.300842%, 43.133545%)" offset="0.6875"/><stop stop-opacity="1" stop-color="rgb(3.857422%, 44.009399%, 43.026733%)" offset="0.695312"/><stop stop-opacity="1" stop-color="rgb(3.759766%, 43.717957%, 42.919922%)" offset="0.703125"/><stop stop-opacity="1" stop-color="rgb(3.662109%, 43.426514%, 42.81311%)" offset="0.710937"/><stop stop-opacity="1" stop-color="rgb(3.564453%, 43.135071%, 42.706299%)" offset="0.71875"/><stop stop-opacity="1" stop-color="rgb(3.466797%, 42.843628%, 42.599487%)" offset="0.726562"/><stop stop-opacity="1" stop-color="rgb(3.369141%, 42.552185%, 42.49115%)" offset="0.734375"/><stop stop-opacity="1" stop-color="rgb(3.271484%, 42.260742%, 42.384338%)" offset="0.742187"/><stop stop-opacity="1" stop-color="rgb(3.173828%, 41.969299%, 42.277527%)" offset="0.75"/><stop stop-opacity="1" stop-color="rgb(3.076172%, 41.677856%, 42.170715%)" offset="0.757812"/><stop stop-opacity="1" stop-color="rgb(2.978516%, 41.386414%, 42.063904%)" offset="0.765625"/><stop stop-opacity="1" stop-color="rgb(2.880859%, 41.094971%, 41.957092%)" offset="0.773438"/><stop stop-opacity="1" stop-color="rgb(2.783203%, 40.803528%, 41.850281%)" offset="0.78125"/><stop stop-opacity="1" stop-color="rgb(2.685547%, 40.512085%, 41.741943%)" offset="0.789062"/><stop stop-opacity="1" stop-color="rgb(2.587891%, 40.220642%, 41.635132%)" offset="0.796875"/><stop stop-opacity="1" stop-color="rgb(2.490234%, 39.929199%, 41.52832%)" offset="0.804688"/><stop stop-opacity="1" stop-color="rgb(2.392578%, 39.637756%, 41.421509%)" offset="0.8125"/><stop stop-opacity="1" stop-color="rgb(2.294922%, 39.346313%, 41.314697%)" offset="0.820312"/><stop stop-opacity="1" stop-color="rgb(2.197266%, 39.054871%, 41.207886%)" offset="0.828125"/><stop stop-opacity="1" stop-color="rgb(2.099609%, 38.763428%, 41.099548%)" offset="0.835938"/><stop stop-opacity="1" stop-color="rgb(2.001953%, 38.471985%, 40.992737%)" offset="0.84375"/><stop stop-opacity="1" stop-color="rgb(1.904297%, 38.180542%, 40.885925%)" offset="0.851562"/><stop stop-opacity="1" stop-color="rgb(1.806641%, 37.889099%, 40.779114%)" offset="0.859375"/><stop stop-opacity="1" stop-color="rgb(1.708984%, 37.597656%, 40.672302%)" offset="0.867188"/><stop stop-opacity="1" stop-color="rgb(1.611328%, 37.306213%, 40.565491%)" offset="0.875"/><stop stop-opacity="1" stop-color="rgb(1.513672%, 37.014771%, 40.458679%)" offset="0.882812"/><stop stop-opacity="1" stop-color="rgb(1.416016%, 36.723328%, 40.350342%)" offset="0.890625"/><stop stop-opacity="1" stop-color="rgb(1.318359%, 36.431885%, 40.24353%)" offset="0.898438"/><stop stop-opacity="1" stop-color="rgb(1.220703%, 36.140442%, 40.136719%)" offset="0.90625"/><stop stop-opacity="1" stop-color="rgb(1.123047%, 35.848999%, 40.029907%)" offset="0.914062"/><stop stop-opacity="1" stop-color="rgb(1.025391%, 35.557556%, 39.923096%)" offset="0.921875"/><stop stop-opacity="1" stop-color="rgb(0.927734%, 35.266113%, 39.816284%)" offset="0.929688"/><stop stop-opacity="1" stop-color="rgb(0.830078%, 34.976196%, 39.709473%)" offset="0.9375"/><stop stop-opacity="1" stop-color="rgb(0.732422%, 34.684753%, 39.601135%)" offset="0.945312"/><stop stop-opacity="1" stop-color="rgb(0.634766%, 34.393311%, 39.494324%)" offset="0.953125"/><stop stop-opacity="1" stop-color="rgb(0.537109%, 34.101868%, 39.387512%)" offset="0.960938"/><stop stop-opacity="1" stop-color="rgb(0.439453%, 33.810425%, 39.280701%)" offset="0.96875"/><stop stop-opacity="1" stop-color="rgb(0.341797%, 33.518982%, 39.173889%)" offset="0.976562"/><stop stop-opacity="1" stop-color="rgb(0.244141%, 33.227539%, 39.067078%)" offset="0.984375"/><stop stop-opacity="1" stop-color="rgb(0.146484%, 32.936096%, 38.960266%)" offset="0.992188"/><stop stop-opacity="1" stop-color="rgb(0.0488281%, 32.644653%, 38.851929%)" offset="1"/></linearGradient><clipPath id="5994112c76"><path d="M 57 51 L 314 51 L 314 254 L 57 254 Z M 57 51 " clip-rule="nonzero"/></clipPath><clipPath id="c46296bc86"><path d="M 116.183594 0 L 350.484375 61.539062 L 285.328125 309.625 L 51.023438 248.085938 Z M 116.183594 0 " clip-rule="nonzero"/></clipPath><clipPath id="e4ae7fd613"><path d="M 116.183594 0 L 350.484375 61.539062 L 285.328125 309.625 L 51.023438 248.085938 Z M 116.183594 0 " clip-rule="nonzero"/></clipPath><clipPath id="60aeccec56"><path d="M 185 119 L 221 119 L 221 165 L 185 165 Z M 185 119 " clip-rule="nonzero"/></clipPath><clipPath id="506e24f953"><path d="M 116.183594 0 L 350.484375 61.539062 L 285.328125 309.625 L 51.023438 248.085938 Z M 116.183594 0 " clip-rule="nonzero"/></clipPath><clipPath id="d3d87e650f"><path d="M 116.183594 0 L 350.484375 61.539062 L 285.328125 309.625 L 51.023438 248.085938 Z M 116.183594 0 " clip-rule="nonzero"/></clipPath><clipPath id="68c386708d"><path d="M 199 135 L 211 135 L 211 147 L 199 147 Z M 199 135 " clip-rule="nonzero"/></clipPath><clipPath id="43e539bd51"><path d="M 116.183594 0 L 350.484375 61.539062 L 285.328125 309.625 L 51.023438 248.085938 Z M 116.183594 0 " clip-rule="nonzero"/></clipPath><clipPath id="b0f0752e51"><path d="M 116.183594 0 L 350.484375 61.539062 L 285.328125 309.625 L 51.023438 248.085938 Z M 116.183594 0 " clip-rule="nonzero"/></clipPath><clipPath id="65bcf89172"><path d="M 165 26 L 315 26 L 315 205 L 165 205 Z M 165 26 " clip-rule="nonzero"/></clipPath><clipPath id="9b15f99289"><path d="M 116.183594 0 L 350.484375 61.539062 L 285.328125 309.625 L 51.023438 248.085938 Z M 116.183594 0 " clip-rule="nonzero"/></clipPath><clipPath id="fc958574d8"><path d="M 116.183594 0 L 350.484375 61.539062 L 285.328125 309.625 L 51.023438 248.085938 Z M 116.183594 0 " clip-rule="nonzero"/></clipPath><clipPath id="850b7005ad"><path d="M 267 69 L 279 69 L 279 80 L 267 80 Z M 267 69 " clip-rule="nonzero"/></clipPath><clipPath id="ff9bda1e73"><path d="M 116.183594 0 L 350.484375 61.539062 L 285.328125 309.625 L 51.023438 248.085938 Z M 116.183594 0 " clip-rule="nonzero"/></clipPath><clipPath id="33d002ed6f"><path d="M 116.183594 0 L 350.484375 61.539062 L 285.328125 309.625 L 51.023438 248.085938 Z M 116.183594 0 " clip-rule="nonzero"/></clipPath><clipPath id="ee8688fa7d"><path d="M 204 69 L 259 69 L 259 106 L 204 106 Z M 204 69 " clip-rule="nonzero"/></clipPath><clipPath id="f35a18f722"><path d="M 116.183594 0 L 350.484375 61.539062 L 285.328125 309.625 L 51.023438 248.085938 Z M 116.183594 0 " clip-rule="nonzero"/></clipPath><clipPath id="211aefb5da"><path d="M 116.183594 0 L 350.484375 61.539062 L 285.328125 309.625 L 51.023438 248.085938 Z M 116.183594 0 " clip-rule="nonzero"/></clipPath></defs><rect x="-37.5" width="450" fill="#ffffff" y="-37.499999" height="449.999989" fill-opacity="1"/><rect x="-37.5" fill="url(#6c5f3a4e1e)" width="450" y="-37.499999" height="449.999989"/><g clip-path="url(#5994112c76)"><g clip-path="url(#c46296bc86)"><g clip-path="url(#e4ae7fd613)"><path fill="#ffffff" d="M 217.621094 131.035156 C 222.019531 137.183594 225.941406 143.578125 229.402344 150.175781 C 231.84375 154.835938 233.492188 158.242188 235.433594 163.015625 C 236.773438 166.3125 237.328125 167.273438 240.890625 166.621094 C 254.273438 164.160156 267.652344 158.015625 282.328125 142.507812 C 297.453125 126.523438 304.09375 110.410156 304.046875 96.71875 C 304.023438 89.035156 301.875 82.125 297.9375 76.488281 C 294 70.839844 288.226562 66.40625 280.960938 63.679688 C 267.847656 58.757812 249.929688 59.359375 228.992188 68.210938 C 210.503906 76.023438 200 86.496094 193.296875 97.679688 C 190.210938 102.824219 192.132812 102.980469 196.375 106.832031 C 199.523438 109.695312 200.957031 111.203125 203.898438 114.339844 C 208.820312 119.578125 213.410156 125.148438 217.621094 131.035156 Z M 125.699219 198.070312 C 123.246094 194.644531 120.527344 191.445312 117.582031 188.488281 C 116.78125 187.683594 116.402344 187.304688 115.574219 186.542969 C 113.429688 184.570312 113.761719 184.371094 116.574219 182.859375 C 126.921875 177.300781 138.320312 172.214844 152.386719 167.015625 C 166.402344 161.839844 172.773438 152.3125 177.222656 140.746094 C 181.402344 129.875 204.5 167.71875 197.515625 168.066406 C 196.878906 168.097656 195.441406 168.199219 194.816406 168.242188 C 183.277344 169.078125 173.730469 172.339844 164.707031 183.457031 C 155.496094 194.804688 147.789062 203.191406 139.335938 211.0625 C 136.132812 214.046875 134.773438 214.710938 133.285156 211.246094 C 132.828125 210.171875 132.925781 210.4375 132.414062 209.378906 C 130.519531 205.46875 128.285156 201.683594 125.699219 198.070312 Z M 135.65625 226.359375 C 132.566406 228.9375 129.433594 231.375 126.28125 233.675781 C 123.046875 236.035156 119.957031 238.121094 117.019531 239.945312 C 107.113281 246.097656 96.179688 251.488281 84.1875 252.921875 C 73.082031 254.25 64.808594 251.179688 60.402344 245.101562 C 55.984375 239.007812 55.707031 230.234375 60.609375 220.179688 C 65.976562 209.171875 74.902344 200.558594 84.160156 193.164062 C 86.878906 190.992188 89.859375 188.785156 93.121094 186.546875 C 96.355469 184.328125 99.683594 182.1875 103.101562 180.148438 C 117.601562 171.496094 133.410156 164.429688 149.257812 158.574219 C 163.359375 153.363281 167.941406 141.363281 172.207031 127.328125 L 172.234375 127.246094 L 172.300781 127.015625 L 172.316406 126.964844 L 172.332031 126.910156 L 172.363281 126.808594 C 172.679688 125.769531 172.992188 124.71875 173.308594 123.660156 C 173.515625 122.957031 173.726562 122.253906 173.941406 121.542969 L 174.015625 121.289062 L 174.207031 120.660156 L 174.324219 120.265625 L 174.429688 119.925781 C 176.570312 112.847656 178.976562 105.503906 182.558594 98.292969 C 190.730469 80.40625 207.546875 67.488281 225.484375 59.90625 C 248.722656 50.085938 268.996094 49.5625 284.132812 55.242188 C 293.140625 58.625 300.34375 64.195312 305.324219 71.332031 C 310.3125 78.476562 313.03125 87.136719 313.0625 96.695312 C 313.117188 112.558594 305.71875 130.921875 288.863281 148.730469 C 275.105469 163.273438 257.363281 174.410156 237.355469 176.425781 C 230.019531 177.359375 222.949219 177.363281 216.1875 177.214844 L 215.847656 177.210938 L 215.511719 177.203125 L 215.355469 177.199219 L 215.171875 177.195312 L 214.835938 177.1875 L 214.5 177.175781 L 214.289062 177.171875 L 214.164062 177.167969 L 212.15625 177.117188 L 210.550781 177.074219 L 210.460938 177.074219 L 210.371094 177.070312 C 195.039062 176.6875 181.703125 176.808594 171.6875 189.144531 C 160.878906 202.460938 148.816406 215.371094 135.65625 226.359375 Z M 83.496094 205.5 C 76.320312 212.117188 71.484375 218.457031 68.707031 224.15625 C 65.390625 230.960938 65.25 236.441406 67.707031 239.832031 C 70.171875 243.234375 75.503906 244.871094 83.117188 243.960938 C 89.082031 243.246094 96.164062 241.015625 104.140625 236.953125 C 118.316406 229.726562 93.015625 196.71875 83.496094 205.5 Z M 124.292969 213.324219 C 122.636719 209.90625 120.660156 206.5625 118.34375 203.328125 C 116.125 200.226562 113.726562 197.394531 111.1875 194.84375 C 109.636719 193.289062 108.027344 191.820312 106.359375 190.441406 C 104.867188 189.207031 104.46875 189.894531 102.78125 190.957031 C 100.875 192.15625 99.90625 192.8125 98.246094 193.953125 C 97.640625 194.371094 97.765625 194.277344 97.175781 194.695312 C 95.375 195.96875 94.753906 196.042969 96.472656 197.300781 C 97.695312 198.199219 98.890625 199.148438 100.050781 200.15625 C 103.386719 203.046875 106.410156 206.332031 109.03125 209.992188 C 111.777344 213.832031 113.980469 217.917969 115.652344 222.152344 C 116.160156 223.441406 115.96875 222.777344 116.375 224.089844 C 117.570312 227.933594 117.257812 229.109375 120.984375 226.390625 C 122.234375 225.480469 123.515625 224.515625 124.832031 223.492188 C 127.574219 221.355469 127.382812 220.777344 126.214844 217.675781 C 125.5 215.785156 125.183594 215.167969 124.292969 213.324219 Z M 183.179688 128.1875 C 181.972656 127.046875 181.710938 127.019531 182.203125 125.375 C 183.421875 121.300781 183.898438 119.410156 185.335938 115.410156 C 186.507812 112.148438 186.757812 110.222656 189.34375 112.597656 C 192.078125 115.109375 194.734375 117.738281 197.3125 120.484375 C 201.871094 125.339844 206.199219 130.613281 210.269531 136.296875 C 214.480469 142.183594 218.191406 148.222656 221.414062 154.367188 C 223.414062 158.183594 225.238281 162.066406 226.894531 166.003906 C 227.945312 168.5 227.175781 168.152344 224.46875 168.222656 C 220.660156 168.324219 217.964844 168.234375 214.34375 168.144531 L 214.253906 168.140625 C 211.402344 168.066406 211.074219 168.933594 209.953125 166.382812 C 203.707031 152.164062 194.507812 138.835938 183.179688 128.1875 Z M 183.179688 128.1875 " fill-opacity="1" fill-rule="evenodd"/></g></g></g><g clip-path="url(#60aeccec56)"><g clip-path="url(#506e24f953)"><g clip-path="url(#d3d87e650f)"><path fill="#ffffff" d="M 195.550781 122.058594 C 197.3125 124.523438 196.746094 127.945312 194.285156 129.707031 C 191.820312 131.46875 188.398438 130.902344 186.636719 128.4375 C 184.875 125.976562 185.441406 122.554688 187.902344 120.792969 C 190.367188 119.03125 193.789062 119.597656 195.550781 122.058594 Z M 219.929688 156.128906 C 221.691406 158.589844 221.121094 162.015625 218.660156 163.777344 C 216.199219 165.539062 212.773438 164.96875 211.011719 162.507812 C 209.25 160.046875 209.820312 156.621094 212.28125 154.859375 C 214.742188 153.097656 218.167969 153.667969 219.929688 156.128906 Z M 219.929688 156.128906 " fill-opacity="1" fill-rule="evenodd"/></g></g></g><g clip-path="url(#68c386708d)"><g clip-path="url(#43e539bd51)"><g clip-path="url(#b0f0752e51)"><path fill="#ffffff" d="M 209.503906 137.832031 C 211.265625 140.292969 210.699219 143.71875 208.238281 145.480469 C 205.773438 147.242188 202.351562 146.671875 200.589844 144.210938 C 198.828125 141.75 199.394531 138.324219 201.855469 136.5625 C 204.320312 134.800781 207.742188 135.371094 209.503906 137.832031 Z M 209.503906 137.832031 " fill-opacity="1" fill-rule="evenodd"/></g></g></g><g clip-path="url(#65bcf89172)"><g clip-path="url(#9b15f99289)"><g clip-path="url(#fc958574d8)"><path fill="#ffffff" d="M 216.214844 29.019531 C 189.636719 19.308594 164.039062 42.480469 165.648438 69.375 C 177.039062 45.738281 190.785156 35.921875 216.214844 29.019531 Z M 314.914062 166.964844 C 315.527344 195.253906 285.332031 212.003906 260.398438 201.796875 C 286.449219 198.644531 300.175781 188.800781 314.914062 166.964844 Z M 313.109375 132.246094 C 295.375 169.65625 273.492188 185.046875 226.972656 187.277344 C 267.519531 202.742188 315.199219 176.148438 313.109375 132.246094 Z M 248.492188 41.9375 C 207.359375 46.644531 185.730469 62.386719 168.601562 105.699219 C 167.050781 62.332031 207.609375 25.785156 248.492188 41.9375 Z M 248.492188 41.9375 " fill-opacity="1" fill-rule="evenodd"/></g></g></g><g clip-path="url(#850b7005ad)"><g clip-path="url(#ff9bda1e73)"><g clip-path="url(#33d002ed6f)"><path fill="#ffffff" d="M 271.054688 78.808594 C 268.667969 78.105469 267.304688 75.601562 268.007812 73.214844 C 268.710938 70.832031 271.214844 69.464844 273.601562 70.171875 C 273.953125 70.273438 274.242188 70.359375 274.464844 70.433594 C 274.886719 70.566406 275.171875 70.660156 275.320312 70.710938 C 277.671875 71.535156 278.910156 74.109375 278.085938 76.460938 C 277.265625 78.8125 274.691406 80.054688 272.339844 79.230469 L 271.703125 79.011719 C 271.425781 78.921875 271.210938 78.855469 271.054688 78.808594 Z M 271.054688 78.808594 " fill-opacity="1" fill-rule="evenodd"/></g></g></g><g clip-path="url(#ee8688fa7d)"><g clip-path="url(#f35a18f722)"><g clip-path="url(#211aefb5da)"><path fill="#ffffff" d="M 212.289062 103.410156 C 210.71875 105.339844 207.882812 105.628906 205.953125 104.054688 C 204.027344 102.484375 203.738281 99.648438 205.308594 97.722656 C 207.550781 94.960938 210.019531 92.320312 212.671875 89.839844 C 215.382812 87.304688 218.230469 84.964844 221.175781 82.859375 C 226.101562 79.335938 231.34375 76.378906 236.691406 74.089844 C 242.0625 71.785156 247.558594 70.152344 252.949219 69.277344 C 255.40625 68.875 257.726562 70.539062 258.128906 72.996094 C 258.535156 75.457031 256.867188 77.773438 254.410156 78.179688 C 249.773438 78.929688 244.996094 80.355469 240.277344 82.378906 C 235.527344 84.414062 230.851562 87.054688 226.4375 90.210938 C 223.6875 92.179688 221.136719 94.261719 218.820312 96.425781 C 216.449219 98.648438 214.257812 100.984375 212.289062 103.410156 Z M 212.289062 103.410156 " fill-opacity="1" fill-rule="evenodd"/></g></g></g><g fill="#ffffff" fill-opacity="1"><g transform="translate(42.875738, 328.598638)"><g><path d="M 42 -35.664062 C 41.457031 -35.664062 41.082031 -36.457031 40.207031 -37.707031 C 37.875 -41.289062 34.375 -42.875 30.207031 -42.875 C 22.75 -42.875 17.875 -36.082031 17.082031 -36.082031 C 16.417969 -36.082031 16.25 -38.207031 15.875 -40.164062 C 15.457031 -41.957031 14.667969 -42.5 13.417969 -42.5 C 12.042969 -42.5 10.957031 -41.582031 7.5 -40.082031 C 4.792969 -38.914062 2.542969 -38.582031 2.542969 -36.75 C 2.542969 -35.664062 3.417969 -35.125 4.207031 -34.75 C 5.542969 -34.207031 6.792969 -33.414062 6.792969 -31.25 L 6.792969 -10.457031 C 6.792969 -8.332031 6.5 -6.542969 4.542969 -4.707031 C 3.792969 -4.042969 2.375 -3.332031 2.375 -1.75 C 2.375 -0.707031 2.957031 0.207031 4.875 0.207031 C 7.457031 0.207031 9.5 0 11.875 0 C 13.917969 0 15.582031 0.207031 17.75 0.207031 C 19.917969 0.207031 20.582031 -0.667969 20.582031 -1.875 C 20.582031 -3.5 19.292969 -3.75 18.167969 -4.832031 C 17 -5.917969 16.542969 -7.082031 16.542969 -9.957031 L 16.542969 -27.164062 C 16.542969 -31.375 21.207031 -35.832031 25.207031 -35.832031 C 30.039062 -35.832031 32.914062 -31.914062 32.914062 -23.707031 C 32.914062 -15.542969 32.164062 -7.75 31.414062 -5.292969 C 31.125 -4.5 30.5 -3.082031 30.5 -1.75 C 30.5 -0.707031 31.039062 0.207031 32.625 0.207031 C 34.707031 0.207031 35.625 0 38.164062 0 C 40.289062 0 41.414062 0.207031 43.289062 0.207031 C 45.5 0.207031 46.375 -0.625 46.375 -1.875 C 46.375 -3.457031 45.164062 -3.667969 43.789062 -4.707031 C 42.582031 -5.667969 42.207031 -7.332031 42.207031 -8.957031 C 42.207031 -11.707031 42.664062 -18.75 42.664062 -26.414062 C 42.664062 -32.375 47.5 -35.832031 51.164062 -35.832031 C 56 -35.832031 59 -31.914062 59 -23.707031 C 59 -15.542969 58.039062 -7.75 57.25 -5.292969 C 57 -4.5 56.375 -3.082031 56.375 -1.75 C 56.375 -0.707031 56.914062 0.207031 58.457031 0.207031 C 60.582031 0.207031 61.5 0 64.039062 0 C 66.125 0 67.664062 0.207031 69.496094 0.207031 C 71.707031 0.207031 72.582031 -0.625 72.582031 -1.875 C 72.582031 -3.457031 71.332031 -3.667969 69.871094 -4.707031 C 68.582031 -5.625 67.996094 -7.332031 67.996094 -8.957031 C 67.996094 -11.707031 69.082031 -18.832031 69.082031 -26.5 C 69.082031 -37.207031 64.625 -42.875 56.207031 -42.875 C 47.625 -42.875 42.957031 -35.664062 42 -35.664062 Z M 42 -35.664062 "/></g></g></g><g fill="#ffffff" fill-opacity="1"><g transform="translate(117.496916, 328.598638)"><g><path d="M 28.664062 -16.292969 C 28.664062 -9.917969 24.707031 -5.667969 19.042969 -5.667969 C 15.457031 -5.667969 12.875 -7.667969 12.875 -11.125 C 12.875 -14.082031 14.832031 -17 19.25 -18.457031 C 21.625 -19.207031 24.414062 -19.542969 27.875 -19.542969 C 28.414062 -19.542969 28.664062 -18.792969 28.664062 -16.292969 Z M 14.792969 -22.375 C 7.417969 -20.167969 2.667969 -15.917969 2.667969 -9.375 C 2.667969 -2.707031 8.167969 1 15.207031 1 C 19.957031 1 24.457031 -1 27.164062 -3.625 C 27.5 -3.957031 27.832031 -4.457031 28.125 -4.457031 C 28.414062 -4.457031 28.664062 -4.125 28.832031 -3.75 C 30.082031 -0.707031 32.414062 0.625 35.957031 0.625 C 40.125 0.625 43.457031 -2.292969 43.457031 -5.875 C 43.457031 -6.832031 43.039062 -7.292969 42.707031 -7.292969 C 42.082031 -7.292969 41.664062 -6.957031 40.664062 -6.957031 C 38.832031 -6.957031 38.25 -8.707031 38.25 -10.542969 C 38.25 -14.332031 38.707031 -20.75 38.707031 -26.164062 C 38.707031 -36.957031 31.75 -42.914062 21 -42.914062 C 10.792969 -42.914062 4.875 -37.707031 4.875 -32.914062 C 4.875 -29.25 7.457031 -27.582031 9.792969 -27.582031 C 12.082031 -27.582031 12.917969 -28.914062 13.417969 -30.957031 C 14.332031 -34.789062 16.417969 -38.207031 20.875 -38.207031 C 26.375 -38.207031 28.625 -33.875 28.625 -28.5 C 28.625 -25.875 28.207031 -25.207031 27.75 -24.875 C 26.75 -24.164062 20.207031 -23.914062 14.792969 -22.375 Z M 14.792969 -22.375 "/></g></g></g><g fill="#ffffff" fill-opacity="1"><g transform="translate(162.411286, 328.598638)"><g><path d="M 24.375 -34.832031 C 26.164062 -34.832031 27.332031 -33.289062 27.832031 -30.75 C 28.375 -28.164062 28.289062 -26.664062 30.707031 -26.664062 C 34.332031 -26.664062 37.164062 -30.625 37.164062 -34.707031 C 37.164062 -40.625 33.414062 -42.875 29.625 -42.875 C 22.582031 -42.875 18.207031 -36.082031 17.332031 -36.082031 C 16.625 -36.082031 16.457031 -38.207031 16.042969 -40.164062 C 15.625 -41.957031 14.875 -42.5 13.582031 -42.5 C 12.207031 -42.5 10.875 -41.582031 7.417969 -40.082031 C 4.707031 -38.914062 2.542969 -38.582031 2.542969 -36.75 C 2.542969 -35.75 3.292969 -35.207031 4.167969 -34.789062 C 5.625 -34.25 7 -33.414062 7 -31.25 L 7 -10.457031 C 7 -8.332031 6.667969 -6.542969 4.625 -4.707031 C 3.832031 -4.042969 2.375 -3.332031 2.375 -1.75 C 2.375 -0.707031 2.957031 0.207031 4.957031 0.207031 C 8.417969 0.207031 9.5 0 12.082031 0 C 15.625 0 18.417969 0.207031 20.625 0.207031 C 22.875 0.207031 23.539062 -0.667969 23.539062 -1.875 C 23.539062 -3.582031 21.25 -3.917969 19.957031 -4.792969 C 17.667969 -6.207031 16.875 -7.457031 16.875 -10.332031 L 16.875 -25.5 C 16.875 -29.707031 20.417969 -34.832031 24.375 -34.832031 Z M 24.375 -34.832031 "/></g></g></g><g fill="#ffffff" fill-opacity="1"><g transform="translate(200.492675, 328.598638)"><g><path d="M 28.664062 -16.292969 C 28.664062 -9.917969 24.707031 -5.667969 19.042969 -5.667969 C 15.457031 -5.667969 12.875 -7.667969 12.875 -11.125 C 12.875 -14.082031 14.832031 -17 19.25 -18.457031 C 21.625 -19.207031 24.414062 -19.542969 27.875 -19.542969 C 28.414062 -19.542969 28.664062 -18.792969 28.664062 -16.292969 Z M 14.792969 -22.375 C 7.417969 -20.167969 2.667969 -15.917969 2.667969 -9.375 C 2.667969 -2.707031 8.167969 1 15.207031 1 C 19.957031 1 24.457031 -1 27.164062 -3.625 C 27.5 -3.957031 27.832031 -4.457031 28.125 -4.457031 C 28.414062 -4.457031 28.664062 -4.125 28.832031 -3.75 C 30.082031 -0.707031 32.414062 0.625 35.957031 0.625 C 40.125 0.625 43.457031 -2.292969 43.457031 -5.875 C 43.457031 -6.832031 43.039062 -7.292969 42.707031 -7.292969 C 42.082031 -7.292969 41.664062 -6.957031 40.664062 -6.957031 C 38.832031 -6.957031 38.25 -8.707031 38.25 -10.542969 C 38.25 -14.332031 38.707031 -20.75 38.707031 -26.164062 C 38.707031 -36.957031 31.75 -42.914062 21 -42.914062 C 10.792969 -42.914062 4.875 -37.707031 4.875 -32.914062 C 4.875 -29.25 7.457031 -27.582031 9.792969 -27.582031 C 12.082031 -27.582031 12.917969 -28.914062 13.417969 -30.957031 C 14.332031 -34.789062 16.417969 -38.207031 20.875 -38.207031 C 26.375 -38.207031 28.625 -33.875 28.625 -28.5 C 28.625 -25.875 28.207031 -25.207031 27.75 -24.875 C 26.75 -24.164062 20.207031 -23.914062 14.792969 -22.375 Z M 14.792969 -22.375 "/></g></g></g><g fill="#ffffff" fill-opacity="1"><g transform="translate(245.407046, 328.598638)"><g><path d="M 2.082031 -20.125 C 2.082031 -7.917969 10.332031 0.917969 22.332031 0.917969 C 33.789062 0.917969 40.164062 -7.75 40.164062 -13.875 C 40.164062 -15.167969 39.914062 -16.25 38.957031 -16.25 C 38.414062 -16.25 37.914062 -15.667969 37.539062 -15.167969 C 36.039062 -12.75 32.957031 -8.082031 25.75 -8.082031 C 16.957031 -8.082031 11.917969 -15.207031 11.917969 -24.289062 C 11.917969 -32.125 15.957031 -37.582031 21.292969 -37.582031 C 25.707031 -37.582031 27.875 -33.625 28.789062 -29.375 C 29.375 -26.957031 29.5 -25.875 31.457031 -25.875 C 34.957031 -25.875 37.957031 -28.207031 37.957031 -32.207031 C 37.957031 -38.164062 31.789062 -42.875 23.289062 -42.875 C 10.082031 -42.875 2.082031 -32.289062 2.082031 -20.125 Z M 2.082031 -20.125 "/></g></g></g><g fill="#ffffff" fill-opacity="1"><g transform="translate(287.196567, 328.598638)"><g><path d="M 28.664062 -16.292969 C 28.664062 -9.917969 24.707031 -5.667969 19.042969 -5.667969 C 15.457031 -5.667969 12.875 -7.667969 12.875 -11.125 C 12.875 -14.082031 14.832031 -17 19.25 -18.457031 C 21.625 -19.207031 24.414062 -19.542969 27.875 -19.542969 C 28.414062 -19.542969 28.664062 -18.792969 28.664062 -16.292969 Z M 14.792969 -22.375 C 7.417969 -20.167969 2.667969 -15.917969 2.667969 -9.375 C 2.667969 -2.707031 8.167969 1 15.207031 1 C 19.957031 1 24.457031 -1 27.164062 -3.625 C 27.5 -3.957031 27.832031 -4.457031 28.125 -4.457031 C 28.414062 -4.457031 28.664062 -4.125 28.832031 -3.75 C 30.082031 -0.707031 32.414062 0.625 35.957031 0.625 C 40.125 0.625 43.457031 -2.292969 43.457031 -5.875 C 43.457031 -6.832031 43.039062 -7.292969 42.707031 -7.292969 C 42.082031 -7.292969 41.664062 -6.957031 40.664062 -6.957031 C 38.832031 -6.957031 38.25 -8.707031 38.25 -10.542969 C 38.25 -14.332031 38.707031 -20.75 38.707031 -26.164062 C 38.707031 -36.957031 31.75 -42.914062 21 -42.914062 C 10.792969 -42.914062 4.875 -37.707031 4.875 -32.914062 C 4.875 -29.25 7.457031 -27.582031 9.792969 -27.582031 C 12.082031 -27.582031 12.917969 -28.914062 13.417969 -30.957031 C 14.332031 -34.789062 16.417969 -38.207031 20.875 -38.207031 C 26.375 -38.207031 28.625 -33.875 28.625 -28.5 C 28.625 -25.875 28.207031 -25.207031 27.75 -24.875 C 26.75 -24.164062 20.207031 -23.914062 14.792969 -22.375 Z M 14.792969 -22.375 "/></g></g></g></svg>